<svg xmlns="http://www.w3.org/2000/svg" xml:space="preserve" width="525.632" height="74.392"><path d="M69.517 12.835v25.922h3.434V25.9l12.874 12.856h4.647L79.596 28.255l11.352-15.42h-4.526l-9.228 13.12-4.243-4.14v-8.98zm36.146 2.317q-1.775-1.501-3.404-2.124a9.9 9.9 0 0 0-3.513-.615c-2.064 0-3.646.5-4.756 1.508-1.104 1.008-1.66 2.3-1.66 3.863 0 .923.205 1.762.628 2.523.416.76.966 1.37 1.642 1.828a7.8 7.8 0 0 0 2.293 1.044c.622.163 1.564.326 2.825.477 2.57.308 4.465.67 5.679 1.099q.018.653.018.826c0 1.298-.302 2.215-.906 2.74-.808.725-2.021 1.08-3.62 1.08q-2.244.002-3.32-.784-1.066-.787-1.581-2.788l-3.108.429c.283 1.328.748 2.408 1.394 3.222.646.821 1.587 1.455 2.812 1.895q1.837.663 4.26.664c1.607 0 2.904-.193 3.906-.567 1.002-.38 1.739-.851 2.215-1.424.471-.574.797-1.292.99-2.167q.156-.815.157-2.933v-4.243q-.002-4.445.205-5.613c.132-.785.404-1.54.803-2.257h-3.326c-.325.658-.543 1.43-.633 2.317zm-.266 7.11c-1.16-.477-2.891-.875-5.197-1.207-1.31-.187-2.239-.398-2.776-.634-.543-.235-.965-.58-1.255-1.038a2.7 2.7 0 0 1-.447-1.509c0-.85.326-1.557.966-2.124q.961-.844 2.818-.845 1.84-.002 3.271.803c.954.537 1.66 1.273 2.107 2.203q.514 1.079.513 3.18zm8.117-9.427V31.61h2.862v-2.843c.73 1.328 1.406 2.209 2.027 2.631.616.423 1.298.64 2.04.64 1.074 0 2.16-.344 3.271-1.026l-1.098-2.958c-.773.466-1.551.695-2.33.695a3.04 3.04 0 0 1-1.877-.628q-.83-.632-1.183-1.744-.532-1.693-.53-3.712v-9.831zm12.095 0V31.61h2.862v-2.668q2.073 3.096 5.974 3.096 1.701-.001 3.12-.61c.954-.41 1.66-.94 2.13-1.604.478-.659.804-1.444.997-2.348.114-.592.175-1.624.175-3.097V12.835h-3.187V24.26q.002 1.938-.368 2.909-.372.96-1.316 1.533c-.634.386-1.37.58-2.22.58-1.359 0-2.524-.435-3.513-1.292-.984-.864-1.473-2.493-1.473-4.9V12.834zm32.393 2.317q-1.775-1.501-3.404-2.124a9.9 9.9 0 0 0-3.513-.615c-2.064 0-3.646.5-4.756 1.508-1.105 1.008-1.66 2.3-1.66 3.863 0 .923.205 1.762.628 2.523a5.2 5.2 0 0 0 1.642 1.828 7.8 7.8 0 0 0 2.293 1.044c.622.163 1.563.326 2.824.477 2.571.308 4.466.67 5.68 1.099q.018.653.018.826c0 1.298-.302 2.215-.906 2.74-.808.725-2.022 1.08-3.62 1.08q-2.245.002-3.32-.784-1.066-.787-1.581-2.788l-3.109.429c.284 1.328.749 2.408 1.395 3.222.645.821 1.587 1.455 2.812 1.895q1.837.663 4.26.664c1.607 0 2.904-.193 3.906-.567 1.002-.38 1.738-.851 2.215-1.424.47-.574.797-1.292.99-2.167q.155-.815.157-2.933v-4.243q-.002-4.445.205-5.613c.132-.785.404-1.54.802-2.257h-3.325c-.326.658-.543 1.43-.633 2.317zm-.266 7.11c-1.16-.477-2.891-.875-5.197-1.207-1.31-.187-2.24-.398-2.776-.634-.543-.235-.966-.58-1.255-1.038a2.7 2.7 0 0 1-.447-1.509c0-.85.326-1.557.966-2.124q.96-.844 2.818-.845 1.84-.002 3.271.803c.954.537 1.66 1.273 2.107 2.203q.514 1.079.513 3.18zm15.1-6.578.459-2.813q-1.342-.282-2.402-.284c-1.159 0-2.052.181-2.692.55q-.95.543-1.34 1.442c-.26.591-.392 1.847-.392 3.754v10.803h-2.336v2.475h2.336v4.653l3.168 1.907v-6.56h3.2v-2.475h-3.2V18.158c0-.912.055-1.49.163-1.75.116-.26.296-.465.55-.622q.38-.227 1.086-.229c.356 0 .82.042 1.4.127zm15.366-.532q-1.773-1.501-3.403-2.124a9.9 9.9 0 0 0-3.513-.615c-2.064 0-3.646.5-4.756 1.508-1.105 1.008-1.66 2.3-1.66 3.863 0 .923.205 1.762.627 2.523a5.2 5.2 0 0 0 1.643 1.828 7.8 7.8 0 0 0 2.293 1.044c.621.163 1.563.326 2.825.477 2.57.308 4.465.67 5.678 1.099q.02.653.019.826c0 1.298-.302 2.215-.906 2.74-.808.725-2.021 1.08-3.621 1.08q-2.243.002-3.32-.784-1.065-.787-1.58-2.788l-3.109.429c.284 1.328.749 2.408 1.395 3.222.645.821 1.587 1.455 2.812 1.895q1.837.663 4.26.664c1.607 0 2.904-.193 3.906-.567 1.002-.38 1.738-.851 2.215-1.424.47-.574.797-1.292.99-2.167.102-.543.157-1.521.157-2.933v-4.243q-.002-4.445.205-5.613c.132-.785.404-1.54.802-2.257h-3.325c-.326.658-.543 1.43-.634 2.317zm-.265 7.11c-1.16-.477-2.891-.875-5.197-1.207-1.31-.187-2.239-.398-2.776-.634-.543-.235-.965-.58-1.255-1.038a2.7 2.7 0 0 1-.447-1.509c0-.85.326-1.557.965-2.124q.962-.844 2.819-.845 1.84-.002 3.271.803c.954.537 1.66 1.273 2.107 2.203q.514 1.079.512 3.18zm8.166-9.427v25.922h3.186V23.976l7.532 7.635h4.116l-7.175-6.965 7.905-11.811h-3.928l-6.204 9.602-2.246-2.16v-7.442zm30.345 2.317q-1.775-1.501-3.403-2.124a9.9 9.9 0 0 0-3.513-.615c-2.064 0-3.646.5-4.756 1.508-1.105 1.008-1.66 2.3-1.66 3.863 0 .923.205 1.762.627 2.523q.627 1.14 1.643 1.828a7.8 7.8 0 0 0 2.293 1.044c.622.163 1.563.326 2.825.477 2.57.308 4.465.67 5.679 1.099q.018.653.018.826c0 1.298-.302 2.215-.906 2.74-.808.725-2.021 1.08-3.621 1.08q-2.243.002-3.32-.784-1.065-.787-1.58-2.788l-3.109.429c.284 1.328.749 2.408 1.395 3.222.645.821 1.587 1.455 2.812 1.895q1.838.663 4.26.664c1.606 0 2.904-.193 3.906-.567 1.002-.38 1.738-.851 2.215-1.424.47-.574.797-1.292.99-2.167q.155-.815.156-2.933v-4.243q-.001-4.445.206-5.613c.132-.785.404-1.54.802-2.257h-3.325c-.326.658-.543 1.43-.634 2.317zm-.265 7.11c-1.16-.477-2.891-.875-5.197-1.207-1.31-.187-2.24-.398-2.776-.634-.543-.235-.966-.58-1.255-1.038a2.7 2.7 0 0 1-.447-1.509c0-.85.326-1.557.965-2.124q.962-.844 2.819-.845c1.225 0 2.318.265 3.271.803.954.537 1.66 1.273 2.107 2.203q.514 1.079.513 3.18zm18.474-9.427v25.922h9.729c1.98 0 3.567-.266 4.762-.785a6.1 6.1 0 0 0 2.812-2.426c.676-1.087 1.02-2.227 1.02-3.422q0-1.659-.905-3.127c-.598-.978-1.509-1.768-2.722-2.371 1.569-.459 2.77-1.243 3.615-2.348q1.268-1.665 1.268-3.929-.002-1.82-.773-3.386c-.771-1.566-1.147-1.847-1.9-2.414-.756-.568-1.703-.99-2.837-1.28q-1.704-.434-4.183-.434zm3.434 15.028h5.606q2.275.001 3.272.301c.869.26 1.527.688 1.967 1.292q.663.906.665 2.264c0 .856-.206 1.617-.616 2.268-.417.659-1.008 1.105-1.768 1.346q-1.15.363-3.948.362h-5.178zm0-11.968h6.452q1.666.002 2.335.12c.791.145 1.449.38 1.98.713.53.326.966.808 1.31 1.436.338.634.513 1.358.513 2.185q0 1.446-.743 2.523-.742 1.067-2.064 1.502c-.875.284-2.142.43-3.79.43h-5.993zm32.711-.743q-1.775-1.502-3.404-2.124a9.9 9.9 0 0 0-3.512-.615c-2.064 0-3.646.5-4.756 1.508-1.105 1.008-1.66 2.3-1.66 3.863 0 .923.205 1.762.627 2.523q.627 1.14 1.643 1.828a7.8 7.8 0 0 0 2.293 1.044c.622.163 1.563.326 2.824.477 2.571.308 4.466.67 5.68 1.099q.018.653.018.826c0 1.298-.302 2.215-.906 2.74-.808.725-2.022 1.08-3.62 1.08-1.498 0-2.602-.259-3.32-.784q-1.067-.787-1.581-2.788l-3.109.429c.284 1.328.749 2.408 1.395 3.222.645.821 1.587 1.455 2.812 1.895q1.837.663 4.26.664c1.606 0 2.904-.193 3.906-.567 1.002-.38 1.738-.851 2.215-1.424.47-.574.797-1.292.99-2.167q.154-.815.156-2.933v-4.243c0-2.963.066-4.834.206-5.613.132-.785.404-1.54.802-2.257h-3.325c-.326.658-.543 1.43-.634 2.317zm-.265 7.11c-1.16-.477-2.891-.875-5.197-1.207-1.31-.187-2.24-.398-2.776-.634-.543-.235-.966-.58-1.255-1.038a2.7 2.7 0 0 1-.447-1.509c0-.85.326-1.557.965-2.124q.962-.844 2.82-.845 1.839-.002 3.27.803c.954.537 1.66 1.273 2.107 2.203q.514 1.079.513 3.18zm8.153-9.427V31.61h2.862v-2.668q2.073 3.096 5.974 3.096 1.701-.001 3.12-.61c.954-.41 1.66-.94 2.13-1.604.478-.659.804-1.444.997-2.348.114-.592.175-1.624.175-3.097V12.835h-3.187V24.26c0 1.291-.12 2.263-.368 2.909q-.372.96-1.316 1.533c-.633.386-1.37.58-2.22.58-1.359 0-2.524-.435-3.513-1.292-.984-.864-1.473-2.493-1.473-4.9V12.834zm20.153 0v25.922h3.186V23.976l7.532 7.635h4.116l-7.175-6.965 7.905-11.811h-3.929l-6.203 9.602-2.246-2.16v-7.442zm28.414 0v25.922h3.434V15.895h12.765v-3.06zm26.827 2.849.459-2.813q-1.342-.282-2.402-.284c-1.159 0-2.052.181-2.692.55q-.95.543-1.34 1.442c-.26.591-.392 1.847-.392 3.754v10.803h-2.336v2.475h2.336v4.653l3.168 1.907v-6.56h3.199v-2.475h-3.199V18.158c0-.912.054-1.49.163-1.75q.17-.388.55-.622.38-.227 1.086-.229.532 0 1.4.127zm15.294-2.85v2.373q-1.785-2.796-5.251-2.794-2.245-.002-4.128 1.237-1.882 1.23-2.921 3.458c-.688 1.478-1.032 3.174-1.032 5.1q.001 2.807.935 5.1.94 2.29 2.813 3.506c1.249.815 2.65 1.225 4.194 1.225 1.128 0 2.137-.241 3.018-.718a6.3 6.3 0 0 0 2.16-1.865v9.3h3.163v-25.92zm-10.061 9.374q0-3.612 1.52-5.396 1.52-1.785 3.592-1.787c1.388 0 2.57.574 3.542 1.708q1.46 1.704 1.461 5.209 0 3.855-1.485 5.655c-.99 1.208-2.208 1.804-3.663 1.804q-2.12 0-3.543-1.732c-.947-1.152-1.424-2.975-1.424-5.461zm18.92-9.373v3.627h3.628v-3.627z" style="fill:#853a93;fill-opacity:1;fill-rule:nonzero;stroke:#853a93;stroke-width:.99999994;stroke-opacity:1" transform="matrix(1.33333 0 0 -1.33333 0 74.392)"/><path d="M244.193 8.227h1.88l1.106-1.924 1.107 1.924h1.869l-2.13-3.312V2.528h-1.698v2.387zm5.952-3.647q0 .946.612 1.557.613.613 1.656.613 1.193 0 1.801-.72.491-.578.49-1.427 0-.952-.607-1.56-.608-.608-1.68-.609-.957.001-1.547.506-.725.626-.725 1.64m1.524.004q0-.552.216-.816a.67.67 0 0 1 .54-.265q.33 0 .54.261.21.26.211.837 0 .535-.212.798a.66.66 0 0 1-.528.262.68.68 0 0 1-.55-.265q-.216-.268-.217-.812m8.334-2.056h-1.421v.669q-.318-.413-.64-.587a1.7 1.7 0 0 0-.795-.175q-.628 0-.985.39c-.357.39-.357.662-.357 1.204v2.627h1.529v-2.27q0-.39.138-.553a.48.48 0 0 1 .389-.163q.272 0 .447.218.173.219.173.782v1.986h1.522zm1.32 4.128h1.424v-.675q.207.437.425.603.217.166.54.166.336 0 .735-.217l-.47-1.129a1.1 1.1 0 0 1-.426.117.52.52 0 0 1-.463-.255q-.236-.363-.236-1.354V2.528h-1.53zm7.32 1.572h4.187V7.003h-2.486v-.996h2.122v-1.15h-2.122v-2.33h-1.7zm6.57-2.908-1.454.159q.082.397.238.624.154.227.446.394a1.8 1.8 0 0 0 .576.187q.365.066.792.066.683 0 1.098-.079.416-.08.691-.333.195-.175.308-.496a1.9 1.9 0 0 0 .11-.612V3.406q.002-.29.036-.457.037-.165.156-.421h-1.427a1.6 1.6 0 0 0-.113.242 2 2 0 0 0-.052.264 1.9 1.9 0 0 0-.594-.428 2.4 2.4 0 0 0-.937-.171q-.711 0-1.08.343a1.1 1.1 0 0 0-.368.842q0 .471.266.774.265.304.978.451.858.18 1.112.25.252.072.537.19 0 .291-.115.408-.117.116-.409.116-.372 0-.56-.125-.145-.096-.236-.364zm1.319-.832a7 7 0 0 0-.654-.208q-.462-.127-.587-.251a.4.4 0 0 1-.127-.292q0-.187.125-.306.127-.117.369-.117.253 0 .473.127a.77.77 0 0 1 .31.313q.091.186.091.48zm2.793 2.168h1.42v-.602q.308.377.62.537.311.16.753.16.475 0 .75-.176.278-.174.453-.521.358.404.654.55.295.146.73.146.639.001.997-.395.36-.394.359-1.234V2.528h-1.525v2.351q0 .281-.105.417-.154.213-.381.213a.54.54 0 0 1-.434-.2q-.164-.205-.163-.652v-2.13h-1.526v2.275q0 .273-.03.37a.5.5 0 0 1-.168.25.44.44 0 0 1-.281.096.53.53 0 0 1-.43-.206q-.168-.207-.168-.677V2.528h-1.525zm8.083 1.572h1.522V7.15h-1.522zm0-1.572h1.522V2.528h-1.522zm2.928 1.572h1.526v-5.7h-1.526zm2.572-1.572h1.606l.818-2.748.76 2.748h1.5l-1.576-4.412q-.268-.755-.549-1.018-.396-.375-1.207-.374-.33 0-1.017.094l-.118 1.104a2.3 2.3 0 0 1 .731-.109.7.7 0 0 1 .436.128q.167.128.281.459zm9.05 1.572h3.17q.793 0 1.216-.409.425-.409.425-1.01a1.3 1.3 0 0 0-.303-.868q-.202-.24-.59-.381.59-.148.868-.507.278-.36.278-.904 0-.443-.197-.797a1.5 1.5 0 0 0-.542-.56q-.214-.127-.643-.186a7 7 0 0 0-.76-.078h-2.923zm1.707-2.237h.737q.395 0 .552.142.155.144.155.41a.5.5 0 0 1-.155.39q-.157.14-.54.14h-.749zm0-2.238h.864q.438 0 .616.16.18.162.18.434a.51.51 0 0 1-.177.406q-.177.154-.623.154h-.86zm5.912 1.567-1.454.159q.082.397.238.624.154.227.447.394.207.121.575.187.365.066.792.066.684 0 1.099-.079.415-.08.691-.333.195-.175.308-.496.11-.32.11-.612V3.406q0-.29.036-.457.036-.165.156-.421h-1.428a1.5 1.5 0 0 0-.112.242 2 2 0 0 0-.052.264q-.3-.3-.595-.428a2.4 2.4 0 0 0-.938-.171q-.709 0-1.079.343a1.1 1.1 0 0 0-.367.842q0 .471.265.774t.979.451q.856.18 1.111.25.253.072.537.19 0 .291-.115.408-.116.116-.408.116-.374 0-.56-.125-.147-.096-.236-.364m1.32-.832a7 7 0 0 0-.654-.208q-.464-.127-.587-.251a.4.4 0 0 1-.128-.292q0-.187.125-.306.127-.117.369-.117.254 0 .473.127.22.13.31.313.091.186.091.48zm2.781 2.168h1.417v-.671q.32.412.643.588.326.177.793.177.63 0 .99-.39.355-.391.355-1.207V2.528h-1.528v2.27q0 .389-.139.55a.48.48 0 0 1-.389.161.54.54 0 0 1-.448-.217q-.172-.218-.172-.782V2.528h-1.522zm5.489 1.572h1.555v-2.94l1.137 1.368h1.873l-1.426-1.446 1.507-2.682h-1.716l-.804 1.656-.57-.583V2.528h-1.556zm5.492-4.114h1.627V2.528h-1.627zm9.848-.645h-1.93l-.264-.941h-1.73l2.058 5.7h1.847l2.06-5.7h-1.772zm-.355 1.232-.606 2.05-.602-2.05zm6.18-.56 1.446-.17a2.15 2.15 0 0 0-.392-.815 1.84 1.84 0 0 0-.698-.535q-.424-.19-1.077-.19-.632 0-1.052.122-.42.123-.723.396a2 2 0 0 0-.475.645q-.172.367-.172.979 0 .636.21 1.061.151.31.418.558.265.247.545.367.445.192 1.14.191.972 0 1.482-.362.511-.36.716-1.058l-1.432-.197a.7.7 0 0 1-.245.398q-.177.135-.477.134a.76.76 0 0 1-.611-.281q-.233-.283-.233-.854 0-.51.232-.773a.75.75 0 0 1 .59-.264q.3 0 .504.159.202.159.304.49zm2.543 2.515h1.423v-.675q.208.437.425.603.219.165.54.166.337 0 .736-.217l-.47-1.129q-.269.118-.427.117a.52.52 0 0 1-.463-.255q-.235-.363-.236-1.354V2.528h-1.528zm3.702-2.075q0 .945.613 1.556.613.614 1.656.613 1.192 0 1.8-.719.492-.579.491-1.428 0-.951-.607-1.56-.607-.608-1.68-.608-.957 0-1.547.506-.726.624-.726 1.64m1.525.004q0-.553.216-.816a.67.67 0 0 1 .54-.265q.328 0 .54.26.21.261.21.837 0 .535-.212.799a.66.66 0 0 1-.528.261.68.68 0 0 1-.549-.265q-.216-.268-.217-.811m3.881-.914 1.51.148q.094-.28.262-.4.168-.121.45-.121.305 0 .474.136.13.1.13.252-.001.172-.17.265-.126.065-.656.163-.791.144-1.1.266a1.17 1.17 0 0 0-.52.415 1.1 1.1 0 0 0-.21.664q0 .409.227.704.228.297.627.442.4.146 1.073.146.71-.001 1.05-.113.337-.113.563-.35t.376-.641l-1.443-.149a.5.5 0 0 1-.187.292.73.73 0 0 1-.434.124q-.257 0-.375-.095a.29.29 0 0 1-.117-.23q0-.153.15-.23.148-.077.65-.141.758-.09 1.127-.248a1.24 1.24 0 0 0 .567-.455 1.14 1.14 0 0 0 .196-.65q0-.357-.207-.696-.209-.339-.654-.537-.447-.2-1.217-.2-1.088-.001-1.549.322t-.593.917m5.06 0 1.51.148q.093-.28.261-.4.167-.121.45-.121.305 0 .473.136.13.1.13.252 0 .172-.17.265-.124.065-.655.163-.792.144-1.101.266a1.2 1.2 0 0 0-.52.415 1.1 1.1 0 0 0-.21.664q0 .409.228.704.228.297.627.442.4.146 1.073.146.709-.001 1.049-.113.338-.113.563-.35.227-.237.377-.641l-1.443-.149a.5.5 0 0 1-.187.292.73.73 0 0 1-.434.124q-.257 0-.375-.095a.28.28 0 0 1-.117-.23q0-.153.148-.23.15-.077.651-.141.759-.09 1.128-.248.371-.16.567-.455t.196-.65q0-.357-.207-.696-.209-.339-.654-.537-.447-.2-1.217-.2-1.088-.001-1.549.322a1.46 1.46 0 0 0-.593.917zm8.942 4.557h1.696v-5.7h-1.696zm3.193-1.572h1.417v-.671q.32.412.643.588.326.178.793.178.631-.001.989-.392.355-.39.355-1.206V2.528h-1.528V4.8q0 .388-.138.55a.48.48 0 0 1-.389.16.54.54 0 0 1-.448-.217q-.171-.218-.172-.782V2.528h-1.522zm9.668 1.572v-5.7h-1.423v.61q-.3-.387-.547-.525a1.5 1.5 0 0 0-.732-.178q-.811 0-1.24.64-.427.643-.427 1.56-.001 1.027.472 1.57.474.546 1.201.546a1.48 1.48 0 0 0 1.16-.498v1.975zm-1.526-3.624q0 .487-.198.725a.62.62 0 0 1-.5.24.55.55 0 0 1-.445-.23q-.18-.229-.18-.77 0-.506.185-.74a.56.56 0 0 1 .458-.235q.293 0 .486.236.195.238.194.774m2.891 3.624h1.522V7.151h-1.522zm0-1.572h1.522V2.528h-1.522zm4.263-1.336-1.453.16q.082.396.237.623.155.228.447.394.209.122.575.187.366.067.792.067.685 0 1.099-.08.416-.08.691-.333a1.2 1.2 0 0 0 .308-.495q.11-.321.11-.613V3.406q.002-.29.036-.456.037-.164.157-.422h-1.429a1.6 1.6 0 0 0-.112.242 2 2 0 0 0-.052.264 1.9 1.9 0 0 0-.595-.428 2.4 2.4 0 0 0-.937-.171q-.71 0-1.08.343a1.1 1.1 0 0 0-.367.842q0 .472.265.774.266.304.979.451.858.18 1.111.25.255.074.538.19-.001.291-.115.408-.116.116-.41.117-.372 0-.559-.125-.146-.098-.236-.365m1.32-.832a7 7 0 0 0-.654-.207q-.463-.128-.587-.252a.4.4 0 0 1-.127-.292q0-.187.125-.305.126-.118.368-.118.254 0 .474.127a.77.77 0 0 1 .31.313q.09.186.09.48zm2.786-.374h1.627V2.528h-1.627z" style="fill:#853a93;fill-opacity:1;fill-rule:nonzero;stroke:none;stroke-width:.99999994" transform="matrix(1.33333 0 0 -1.33333 0 74.392)"/><path d="m42.315 16.967-3.68 5.984-3.61-5.984zm-.007 18.56H34.98l3.652-5.865zM25.15 44.84l-3.63-5.952h7.29zM8.073 35.527l3.623-5.9 3.606 5.9zm-.004-18.61 7.239.045-3.61 5.931zM1.879 38.89H17.43l7.315 11.953.463.756.462-.756 7.316-11.953h15.552l-.463-.752-7.314-11.875 7.316-11.96.46-.753H32.986L25.671 1.624 25.21.87l-.463.754-7.315 11.925H1.88l.46.752 7.315 11.96-7.314 11.876zm17.587-3.474-5.893-9.156 5.893-9.236h11.485l5.893 9.236-5.893 9.156zm5.737-27.768 3.61 5.902h-7.285zm-.417 22.51a4.3 4.3 0 0 0 2.95-1.154v.002c.755-.71 1.224-1.691 1.224-2.772 0-1.079-.47-2.06-1.225-2.77v-.002a4.3 4.3 0 0 0-2.949-1.151c-1.15 0-2.193.44-2.948 1.15h.002c-.758.713-1.227 1.694-1.227 2.773 0 1.078.468 2.06 1.224 2.77l.002.003-.002-.002.002.002a4.3 4.3 0 0 0 2.947 1.151" style="fill:#853a93;fill-opacity:1;fill-rule:evenodd;stroke:none;stroke-width:.99999994" transform="matrix(1.33333 0 0 -1.33333 0 74.392)"/></svg>