<svg xmlns="http://www.w3.org/2000/svg" xml:space="preserve" width="318.845" height="123.787" style="shape-rendering:geometricPrecision;text-rendering:geometricPrecision;image-rendering:optimizeQuality;fill-rule:evenodd;clip-rule:evenodd" viewBox="0 0 2693 1046"><defs><style>.fil2{fill:#fefefe;fill-rule:nonzero}</style></defs><g id="Layer_x0020_1"><g id="_2719417828272"><path d="M1235 134h-202v77h186v124h-186v96h209v125H894V9h341zm364 261c0-39-45-47-100-50-119-9-197-50-198-168-5-236 420-236 417 0h-133c0-73-147-67-152-2-3 42 38 50 87 56 108 11 215 28 215 164 0 230-445 234-442-7h135c0 70 171 71 171 7m522 92h-215l-32 69h-137v-21L1983 2h60l247 533v21h-137zm-108-263-62 143h125zm475 154v178h-142V9h341v125h-199v119h176v125z" style="fill-rule:nonzero;fill:#c92123"/><path d="M83 658H35v18h44v29H35v22h49v29H3V629h80zm84 60c0-9-10-11-23-11-28-2-46-12-46-39-1-55 98-55 97 0h-31c0-17-34-16-35-1-1 10 8 12 20 13 25 3 50 7 50 39 0 53-104 54-103-2h31c0 16 40 16 40 1m122 22h-50l-8 16h-32v-5l58-124h14l57 124v5h-32zm-26-61-14 33h29zm111 36v41h-33V629h79v29h-46v27h41v30zm189 3c0-9-11-11-24-11-27-2-45-12-46-39-1-55 98-55 97 0h-31c0-17-34-16-35-1-1 10 9 12 20 13 26 3 50 7 50 38 0 54-103 55-103-1h32c0 16 40 16 40 1m174-90h12v128h-33v-57l-27 28h-4l-27-28v57h-33V628h12l50 55zm128 112h-50l-8 16h-32v-5l58-124h14l57 124v5h-32zm-25-61-15 33h29zm120 47h47v30h-79V629h32zm109 0h46v30h-79V629h33zm165-12v42h-33V629h80v29h-47v27h41v29zm133 13v29h-65v-29h16v-70h-14v-28h61v28h-14v70zm62-34v63h-34V628h12l64 63v-62h34v127h-12zm188 47h-50l-7 16h-32v-5l57-124h14l58 124v5h-32zm-25-61-14 33h29zm122 14v63h-33V628h11l65 63v-62h33v127h-12zm173-66c26 0 55 14 60 48h-32c-5-12-14-18-28-18-19 0-32 14-32 35 0 19 13 35 32 35 14 0 25-7 28-20h32c-5 36-33 50-60 50-32 0-65-22-65-65s33-65 65-65m172 31h-47v18h43v29h-43v22h48v29h-81V629h80zm177 32c11 5 16 14 16 26 0 22-14 40-40 40h-59V629h54c22 0 39 17 39 39 0 7-3 16-10 22m-52-32v20h21c12 0 12-20-1-20zm0 47v22h26c13 0 13-22 0-22zm174 35h-50l-8 16h-32v-5l58-124h14l57 124v5h-32zm-25-61-15 33h29zm121 14v63h-33V628h12l64 63v-62h33v127h-12zm116 63V629h33v48h2c33 0 31-25 31-48h34c0 26 0 50-25 66l34 56v5h-36l-28-50c-4 1-8 1-12 1v49zM757 557H0V0h757z" style="fill-rule:nonzero;fill:#243b77"/><path d="M270 172h-99V74h99zm90 130H81v-98h279z" class="fil2"/><path d="M171 483V204h99v279zm414-311h-98V74h98zm91 130H397v-98h279z" class="fil2"/><path d="M487 483V204h98v279z" class="fil2"/><path d="M1462 1038c-6 0-11-1-15-2v-19c5 2 10 2 14 2 12 0 20-7 23-22l28-129h21l-28 131c-2 14-7 23-14 30-7 6-17 9-29 9m168-100c0 12-2 23-7 33-4 10-10 18-18 23-8 6-16 9-27 9s-20-4-27-11-11-16-11-28 3-23 7-34c4-10 10-17 18-23s17-8 27-8c12 0 21 3 28 10s10 17 10 29m-21-1c0-7-2-12-5-15-3-4-7-6-13-6-5 0-10 2-15 7-4 4-8 10-10 17-3 8-4 16-4 24 0 7 2 12 5 16 3 3 7 5 13 5q7.5 0 15-6c4-4 7-10 10-17 2-8 4-16 4-25m39-37h21l6 49c0 3 1 9 1 15 1 7 1 13 1 17 6-13 10-23 13-29l26-52h23l-62 117c-6 10-12 17-18 22-6 4-14 7-23 7-4 0-9-1-13-2v-17c5 1 9 1 12 1 4 0 8-1 12-4 3-2 7-7 11-14l5-8zm229 38c0 12-2 23-7 33-4 10-10 18-18 23q-12 9-27 9c-11 0-21-4-28-11-6-7-10-16-10-28s2-23 7-34c4-10 10-17 18-23s17-8 27-8c12 0 21 3 28 10s10 17 10 29m-22-1c0-7-1-12-4-15-3-4-7-6-13-6s-11 2-15 7c-4 4-8 10-10 17-3 8-4 16-4 24 0 7 1 12 4 16 3 3 8 5 14 5q7.5 0 15-6c4-4 7-10 10-17 2-8 3-16 3-25m24 109c-6 0-10-1-14-2v-18c4 2 7 2 10 2 9 0 14-6 17-19l19-93h-16l2-9 18-7 2-9c2-12 6-20 12-25 5-5 13-8 23-8 7 0 14 1 19 4l-5 16c-5-2-9-2-13-2s-7 1-10 3c-2 3-4 7-5 13l-2 8h21l-4 16h-20l-21 96c-2 12-6 20-12 26-5 5-12 8-21 8m190-178c13 0 24 2 30 7 7 5 11 13 11 23 0 9-3 16-8 22s-13 10-22 12c7 2 12 5 15 10 4 4 6 10 6 17 0 13-5 23-14 31-9 7-22 11-38 11h-45l28-133zm-39 115h20c9 0 16-2 21-7 5-4 8-10 8-17 0-6-2-11-6-14s-9-5-16-5h-18zm13-60h18c8 0 15-2 19-6 5-3 7-9 7-15 0-11-7-16-20-16h-17zm105 80c-9 0-15-3-20-10-5-6-8-14-8-26s2-23 6-34c5-11 10-19 18-25 7-7 15-10 24-10 6 0 11 2 16 4 4 3 7 7 9 13h1l6-15h16l-21 101h-17l2-16c-10 12-21 18-32 18m8-18c5 0 10-2 14-7 5-4 9-11 12-19 3-7 5-16 5-25 0-6-2-10-4-13-3-4-7-5-12-5s-10 2-14 7c-5 5-8 11-11 19s-4 16-4 25c0 6 1 11 3 14 3 3 6 4 11 4m128 16 12-61c2-6 2-10 2-12q0-12-12-12c-4 0-8 2-13 5-4 3-8 8-11 15s-6 14-8 22l-9 43h-21l21-101h17l-2 19h1c5-7 10-13 16-16 5-3 11-5 17-5 8 0 14 3 19 7 4 5 7 11 7 20 0 4-1 10-3 16l-12 60zm126-101h25l-44 44 27 57h-24l-19-43-13 9-7 34h-21l30-142h21c-8 38-13 60-14 67-2 6-3 13-6 20h1zm44 101h-22l22-101h21zm4-126c0-4 1-7 4-10 2-2 5-3 10-3 3 0 6 0 8 2s3 4 3 7c0 5-2 8-4 10-3 3-6 4-10 4-3 0-6-1-8-2-2-2-3-4-3-8m85 126 13-61c1-6 2-10 2-12q0-12-12-12c-4 0-9 2-13 5s-8 8-11 15c-4 7-6 14-8 22l-9 43h-21l21-101h17l-2 19h1c5-7 10-13 15-16 6-3 12-5 18-5 8 0 14 3 19 7 4 5 6 11 6 20 0 4 0 10-2 16l-12 60zm150-101-2 13-18 3q3 4.5 3 12c0 12-4 21-11 28s-17 10-29 10h-9c-6 2-10 5-10 9 0 2 1 4 3 5s5 1 9 2l11 1c11 2 18 4 23 8s7 10 7 17c0 12-5 21-14 28-9 6-22 10-39 10-12 0-22-3-28-7-7-5-11-11-11-19 0-6 2-12 7-16 4-5 11-9 20-12-5-2-7-6-7-11 0-4 2-8 4-11 3-3 8-6 14-9-8-5-13-13-13-23 0-12 4-21 12-29 7-7 17-11 29-11 5 0 10 1 15 2zm-74 99c-7 1-12 3-16 7-3 3-5 7-5 12 0 4 1 7 5 9 3 2 8 4 15 4 10 0 18-2 23-5 6-4 9-8 9-14 0-4-2-6-4-8q-4.5-3-15-3zm24-86c-3 0-7 1-10 3s-5 6-7 10c-1 4-2 8-2 13 0 4 1 8 3 10q3 3 9 3c4 0 8-1 10-3 3-2 6-6 7-10 2-4 3-9 3-13 0-9-4-13-13-13" style="fill:#898989;fill-rule:nonzero"/></g></g></svg>