<svg xmlns="http://www.w3.org/2000/svg" xml:space="preserve" id="svg6" width="89.538" height="65.85" style="clip-rule:evenodd;fill-rule:evenodd;image-rendering:optimizeQuality;shape-rendering:geometricPrecision;text-rendering:geometricPrecision" viewBox="0 0 756.245 556.437"><defs id="defs1"><clipPath id="clipPath27" clipPathUnits="userSpaceOnUse"><path id="rect27" d="M-.124.248h756.718v556.437H-.124z" style="opacity:0;fill:#000;stroke-width:8.38192;filter:url(#filter27)"/></clipPath><filter id="filter27" width="3.082" height="3.832" x="-1.041" y="-1.416" style="color-interpolation-filters:sRGB"><feGaussianBlur id="feGaussianBlur27" stdDeviation="328.289"/></filter><style id="style1">.fil2{fill:#fefefe;fill-rule:nonzero}</style></defs><g id="Layer_x0020_1" clip-path="url(#clipPath27)" transform="matrix(1.00165 0 0 1 -.62 -.248)"><g id="_2719417828272" style="display:inline"><path id="path2" d="M83 658H35v18h44v29H35v22h49v29H3V629h80zm84 60c0-9-10-11-23-11-28-2-46-12-46-39-1-55 98-55 97 0h-31c0-17-34-16-35-1-1 10 8 12 20 13 25 3 50 7 50 39 0 53-104 54-103-2h31c0 16 40 16 40 1m122 22h-50l-8 16h-32v-5l58-124h14l57 124v5h-32zm-26-61-14 33h29zm111 36v41h-33V629h79v29h-46v27h41v30zm189 3c0-9-11-11-24-11-27-2-45-12-46-39-1-55 98-55 97 0h-31c0-17-34-16-35-1-1 10 9 12 20 13 26 3 50 7 50 38 0 54-103 55-103-1h32c0 16 40 16 40 1m174-90h12v128h-33v-57l-27 28h-4l-27-28v57h-33V628h12l50 55zm128 112h-50l-8 16h-32v-5l58-124h14l57 124v5h-32zm-25-61-15 33h29zm120 47h47v30h-79V629h32zm109 0h46v30h-79V629h33zm165-12v42h-33V629h80v29h-47v27h41v29zm133 13v29h-65v-29h16v-70h-14v-28h61v28h-14v70zm62-34v63h-34V628h12l64 63v-62h34v127h-12zm188 47h-50l-7 16h-32v-5l57-124h14l58 124v5h-32zm-25-61-14 33h29zm122 14v63h-33V628h11l65 63v-62h33v127h-12zm173-66c26 0 55 14 60 48h-32c-5-12-14-18-28-18-19 0-32 14-32 35 0 19 13 35 32 35 14 0 25-7 28-20h32c-5 36-33 50-60 50-32 0-65-22-65-65s33-65 65-65m172 31h-47v18h43v29h-43v22h48v29h-81V629h80zm177 32c11 5 16 14 16 26 0 22-14 40-40 40h-59V629h54c22 0 39 17 39 39 0 7-3 16-10 22m-52-32v20h21c12 0 12-20-1-20zm0 47v22h26c13 0 13-22 0-22zm174 35h-50l-8 16h-32v-5l58-124h14l57 124v5h-32zm-25-61-15 33h29zm121 14v63h-33V628h12l64 63v-62h33v127h-12zm116 63V629h33v48h2c33 0 31-25 31-48h34c0 26 0 50-25 66l34 56v5h-36l-28-50c-4 1-8 1-12 1v49zM757 557H0V0h757z" style="display:inline;fill:#243b77;fill-rule:nonzero"/><path id="path3" d="M270 172h-99V74h99zm90 130H81v-98h279z" class="fil2" style="display:inline"/><path id="path4" d="M171 483V204h99v279Zm414-311h-98V74h98zm91 130H397v-98h279z" class="fil2" style="display:inline"/><path id="path5" d="M487 483V204h98v279z" class="fil2" style="display:inline"/></g></g></svg>