<svg xmlns="http://www.w3.org/2000/svg" width="405" height="60" fill="none" viewBox="0 0 405 60"><path fill="#48337e" d="M223.263 59.245V1.088h1.761v58.157zm-57.321-.827H154.06V35.045c.055-2.095-.44-4.19-1.485-6.009-.991-1.433-2.421-2.425-4.126-2.811s-3.466-.441-5.226-.276c-.605.055-1.265.11-1.87.22-.551.11-1.101.276-1.651.442s-1.1.386-1.65.606v31.2h-11.937V19.775c.715-.386 1.485-.661 2.255-.992 1.485-.551 2.971-1.048 4.511-1.433 1.815-.441 3.631-.827 5.446-1.103a54 54 0 0 1 8.417-.496c2.805.055 5.556.551 8.196 1.488 2.31.827 4.456 2.095 6.271 3.804 1.54 1.488 2.751 3.363 3.521 5.347.77 2.04 1.155 4.19 1.155 6.395v25.522z"/><path fill="#d62a23" d="M28.087 9.963c-.44-1.378-.935-2.756-1.43-4.134-.385-1.433-1.926-2.26-3.3-1.82-.276.111-.606.221-.826.387-.22.165-.385.33-.55.551-.11.22-.22.44-.275.606l-.055-.055c.055-.22.165-.44.275-.661.605-1.268 1.595-2.37 2.86-3.032.33-.166.66-.33 1.046-.441.385-.11.77-.22 1.21-.33a6.6 6.6 0 0 1 1.045-.111c1.1 0 2.256.22 3.246.716a7 7 0 0 1 2.475 2.095 7.1 7.1 0 0 1 .935 1.82c1.1 3.197 2.2 6.339 3.3 9.536.056.22.166.44.22.716 3.302.056 6.602.11 9.903.221h.605s.055 0 .055.055l-.055.055c-.11.166-.165.331-.275.496-.11.166-.275.441-.33.607a.4.4 0 0 1-.11.22c-.055.055-.165.22-.22.276-.11.165-.275.44-.33.606a.4.4 0 0 1-.11.22c0 .056-.165.221-.22.276-.77 1.544-1.76 3.198-2.696 4.686.275 0 .55-.055.88 0v.055c-2.75-.055-5.5-.055-8.251-.165a6.36 6.36 0 0 1-3.41-1.323c-1.156-.882-2.036-2.04-2.476-3.418-.99-2.866-1.98-5.733-2.97-8.544-.11-.11-.166-.11-.166-.166"/><path fill="#48337e" d="M349.567 18.232V3.899c0-.606.33-1.212.88-1.488.33-.11.66-.22 1.045-.165h4.896c1.54-.055 3.08.55 4.126 1.653a4.144 4.144 0 0 1 0 5.072c-.33.44-.77.772-1.266.992 1.046.276 1.871.937 2.421 1.874.275.441.385.937.44 1.434.11.992-.11 1.984-.66 2.81a5.07 5.07 0 0 1-3.191 1.985c-.275.056-.605.11-.88.11-2.585.11-5.226.056-7.811.056m3.3-2.701c1.376.11 2.751.055 4.126-.056.22-.055.385-.11.605-.165.495-.22.88-.661 1.045-1.158.22-.716.055-1.543-.44-2.094-.33-.331-.825-.551-1.32-.607-1.32-.055-2.64 0-3.961 0zm0-6.78h3.191c.77 0 1.485-.442 1.815-1.103a1.76 1.76 0 0 0 0-1.654c-.275-.606-.825-.992-1.485-.992-1.155-.055-2.366-.11-3.521-.055zm-117.171 9.426h-3.246V4.01c0-.882.275-1.599 1.21-1.82.165-.055.33-.055.496-.055 1.76 0 3.575-.055 5.335 0 .331 0 .661.055.991.11a4.58 4.58 0 0 1 2.585 1.379c.44.496.825 1.047 1.045 1.653.11.331.22.717.275 1.048.055.33.11.661.11.992.11 1.488-.44 2.977-1.485 4.08-.55.495-1.21.881-1.87 1.157-.385.11-.715.22-1.1.275a7 7 0 0 1-1.046.11 10 10 0 0 1-1.815 0c-.495-.054-.935-.11-1.43-.165v5.292zm1.265-7.773c.495.055.99.055 1.43 0 1.156-.11 2.256-.717 2.586-1.874.165-.496.165-1.048.055-1.599a2.53 2.53 0 0 0-.935-1.543c-.606-.331-1.321-.552-1.981-.496h-2.31v5.347q.495.082 1.155.165m-125.093 3.528a6.58 6.58 0 0 1-5.006-3.528 6.4 6.4 0 0 1-.66-2.426c-.11-1.212.165-2.48.77-3.583.88-1.488 2.256-2.646 3.906-3.087a7.03 7.03 0 0 1 5.171.496c1.54.827 2.695 2.205 3.19 3.86a6.4 6.4 0 0 1-.605 5.016 6.8 6.8 0 0 1-4.181 3.087 6.8 6.8 0 0 1-2.585.165m176.087 4.3v-6.89c.11-.828-.22-1.654-.825-2.26a2.7 2.7 0 0 0-2.255-.332c-1.211.331-1.651 1.6-1.651 2.757v6.725h-3.245v-6.836c.055-.882-.275-1.764-.935-2.315-.716-.496-1.981-.44-2.751-.33-.33.055-.66.165-.935.33v9.15h-3.246V7.042c1.541-.716 3.246-1.047 4.951-1.102 1.045-.055 2.091.055 3.081.386.825.276 1.485.772 2.035 1.433.77-.937 1.87-1.598 3.026-1.764 1.375-.22 2.75 0 3.96.607 1.046.606 1.816 1.653 1.981 2.866.055.276.055.606.055.882v7.773z"/><path fill="#d62a23" d="M3.994 29.201h.165a.5.5 0 0 1 .385-.165l.055-.055h.055c.11-.055.275-.166.44-.22l.055-.056h.11a268 268 0 0 1 3.85-1.819l.056-.055h.055c.11-.055.275-.165.44-.22l.055-.056h.11c.385-.22.715-.33 1.1-.55h.11l.055-.056h.055c.11-.055.275-.165.44-.22l.055-.056h.11c.11-.055.165-.11.275-.11v-.11l4.896 3.748c.66.497 1.21 1.103 1.705 1.82a7.2 7.2 0 0 1 1.1 3.527c0 .827-.11 1.599-.33 2.37l-2.64 8.766c-.44 1.433-.88 2.866-1.265 4.244-.33.937-.11 1.93.495 2.646.44.496 1.045.827 1.705.882q.66.083 1.32-.165h.055c-.22.165-.495.275-.77.386-1.54.661-3.245.771-4.84.275a6.9 6.9 0 0 1-3.081-2.04 6.36 6.36 0 0 1-1.595-3.141 5 5 0 0 1-.11-.882 6.6 6.6 0 0 1 .165-2.095 4 4 0 0 1 .22-.772A694 694 0 0 0 12.08 34.99l-.165-.11z"/><path fill="#48337e" d="M335.099 18.452a10.6 10.6 0 0 1-3.136-.826 4 4 0 0 1-1.155-.662l1.265-2.205a8.6 8.6 0 0 0 3.851 1.268c.825.055 1.87.055 2.586-.386.33-.276.44-.717.33-1.102-.165-.496-.771-.662-1.211-.717-1.43-.276-2.97-.276-4.345-.772-1.156-.386-1.981-1.323-2.146-2.48-.385-1.93.88-3.804 2.806-4.19 2.09-.496 4.29-.44 6.381.276a2.03 2.03 0 0 1 1.43 1.323q.082.495-.165.992a3 3 0 0 1-.825.827 6.2 6.2 0 0 0-1.265-.827 7.4 7.4 0 0 0-3.081-.496c-.55 0-1.045.11-1.54.33-.385.221-.605.717-.44 1.158.165.496.88.662 1.32.717 1.1.165 2.255.276 3.356.496.99.165 1.925.606 2.585 1.378.66.882.825 2.04.495 3.142-.44 1.268-1.485 2.26-2.75 2.591-1.486.33-2.916.386-4.346.165m50.719-.22v-6.78c.055-.717-.22-1.489-.66-2.04-.715-.827-2.2-.827-3.191-.662-.385.055-.77.166-1.1.331v9.15h-3.245V7.042a14.6 14.6 0 0 1 5.941-1.102c1.54 0 3.025.496 4.18 1.544a4.43 4.43 0 0 1 1.266 2.7c.055.221.055.497.055.717v7.332zm-86.641.386c-1.595-.055-3.135-.661-4.291-1.82a4.65 4.65 0 0 1-1.155-1.928 8.56 8.56 0 0 1-.275-3.914 6.17 6.17 0 0 1 2.586-4.08 7.35 7.35 0 0 1 4.675-.937c1.376.11 2.641.827 3.521 1.93.715.992.99 2.26.77 3.473-.11.496-.33.992-.66 1.378-.66.606-1.54.937-2.475.937-1.706.055-3.466 0-5.171 0 .275 1.047 1.1 1.874 2.145 2.095.77.165 1.595.22 2.366.11.77-.055 1.54-.22 2.255-.496l.88 2.315a11 11 0 0 1-2.915.772c-.661.165-1.486.165-2.256.165m-2.53-7.111h4.401c.22 0 .44-.055.605-.165.385-.22.44-.772.44-1.158-.055-.937-.715-1.764-1.651-1.93-.825-.22-1.65-.054-2.365.442-.88.661-1.43 1.709-1.43 2.811m28.935 7.056c-.77 0-1.54-.276-2.2-.717a3.8 3.8 0 0 1-1.43-2.756c-.22-1.82-.055-4.245-.055-6.119-.495.055-1.045 0-1.541-.11-.605-.22-.715-.992-.605-1.599.055-.33.165-.661.275-.992h1.871V4.175c0-.882.605-1.323 1.43-1.323.605 0 1.21.055 1.815.276v3.197h2.476a1.29 1.29 0 0 1 1.21.551c.165.386.22.772.165 1.213-.055.33-.165.606-.275.937h-3.576v5.237c-.055.441.11.882.44 1.268q.33.248.661.33c.825.166 1.705-.054 2.42-.55l1.21 1.929c-.825.716-1.925 1.157-3.025 1.268-.44.055-.88.055-1.266.055m-65.627 4.299a6.6 6.6 0 0 1-2.531-.661l.935-2.315c.826.44 1.761.44 2.586.11.33-.22.66-.496.825-.882.385-.607.77-1.268 1.045-1.93-.99-1.653-1.98-3.362-2.915-5.016-.605-1.047-1.21-2.095-1.706-3.142-.385-.606-.44-1.378-.11-1.984.22-.386.661-.607 1.101-.662a3.3 3.3 0 0 1 1.045 0c.22.055.44.11.66.22.055 0 .055 0 .055.056 1.1 2.425 2.255 4.85 3.521 7.166.88-1.985 1.705-4.024 2.53-6.009.165-.496.495-.937.88-1.268.66-.33 1.431-.33 2.146 0 .22.11.44.276.605.441-.11.386-.275.827-.44 1.213-.825 2.15-1.761 4.245-2.696 6.34a42 42 0 0 1-2.255 4.465c-.495 1.047-1.21 1.984-2.091 2.81a4.55 4.55 0 0 1-2.42 1.048zM118.744 58.473h-11.883V22.808c0-.662.055-1.323.165-2.04a3.5 3.5 0 0 1 1.541-2.37 6.8 6.8 0 0 1 2.53-.993c1.76-.275 3.576-.22 5.336.22.55.111 1.1.276 1.65.442.275.055.495.165.716.275v40.131zm252.277-25.137h-2.916V30.36h3.026v2.977zM328.443 59.19l-4.401-3.859-.935.551-1.596-1.654 2.641-1.598 6.271 5.292zm71.678-40.958c-.77-1.048-1.595-1.985-2.476-2.922a25 25 0 0 0-2.475-2.315v5.237h-3.246V2.41c0-.992.77-1.378 1.651-1.378.55 0 1.1.11 1.595.275v9.426c1.43-1.157 2.75-2.425 4.181-3.582a2.87 2.87 0 0 1 2.365-.827 2.3 2.3 0 0 1 1.76 1.047l.055.055c-.33.33-.66.607-.99.882a84 84 0 0 1-4.125 3.363 22 22 0 0 1 3.025 2.976c.99 1.103 1.925 2.26 2.751 3.529zM66.98 58.473h-.166V15.366c0-1.378.275-2.701.77-3.97.825-2.26 2.42-4.244 4.456-5.567a16.25 16.25 0 0 1 7.206-2.425q1.485-.165 2.971-.166h14.578c.935 0 1.87.166 2.75.441a3.8 3.8 0 0 1 2.421 2.426 9.1 9.1 0 0 1 .165 4.85q-.33 1.407-.991 2.647c-.11.165-.22.386-.33.551H84.638c-1.1-.055-2.2.165-3.191.661a4 4 0 0 0-2.035 2.205c-.166.386-.22.827-.276 1.268v7.663H94.43c1.046 0 2.146.165 3.136.55a4.22 4.22 0 0 1 2.365 2.922c.33 1.544.275 3.143-.11 4.686a9.7 9.7 0 0 1-.66 1.764 6.3 6.3 0 0 1-.55 1.047H79.137v21.61H66.979zm301.95-39.91a7.9 7.9 0 0 1-3.741-.772c-.605-.33-1.1-.827-1.375-1.488-.275-.882-.33-1.82-.11-2.702.165-.716.55-1.378 1.21-1.819 1.376-.937 3.741-.992 5.391-.882.495 0 .991.056 1.431.11.11-.826-.22-1.653-.826-2.15a4.7 4.7 0 0 0-3.135-.44 3.7 3.7 0 0 0-1.1.33 5.2 5.2 0 0 0-1.211.662 1.8 1.8 0 0 1-.825-1.323c-.055-.827.55-1.543 1.376-1.709.385-.11.715-.22 1.1-.275 1.54-.22 3.135-.11 4.621.275.99.276 1.87.882 2.42 1.71.55.826.825 1.763.77 2.7.055 2.426 0 4.906 0 7.332-.55.11-1.1.165-1.705.22-1.485.166-2.916.22-4.291.22m.055-2.15c.88.055 1.76-.055 2.641-.22v-3.198c-.44-.055-.826-.11-1.266-.11-.88-.11-1.76 0-2.64.22-.66.22-1.045.827-.99 1.489 0 .22 0 .496.11.716.33.827 1.375 1.103 2.145 1.103m-118.162 2.151c-1.21 0-2.476-.22-3.576-.717a3.5 3.5 0 0 1-1.1-.882c-.385-.606-.605-1.268-.605-1.984v-.607c0-.827.33-1.654.88-2.26.44-.386.935-.717 1.485-.882 1.376-.386 2.806-.496 4.181-.386.495 0 1.045.055 1.54.11.166-.826-.22-1.653-.88-2.094-.715-.496-2.145-.552-2.97-.441a4.97 4.97 0 0 0-2.366.992h-.055c-.33-.22-.605-.551-.715-.937a1.6 1.6 0 0 1 .11-1.323c.66-.992 2.696-1.158 3.741-1.158a9.4 9.4 0 0 1 4.071.772c.605.276 1.1.717 1.485 1.268.55.772.825 1.764.825 2.7.055 2.482 0 4.907 0 7.388-.605.11-1.21.22-1.87.275a53 53 0 0 1-4.181.166m.33-2.205h1.1c.44-.056.88-.11 1.375-.166v-3.197c-.44-.055-.825-.11-1.265-.11-.88-.055-2.695-.11-3.3.661-.275.386-.385.882-.33 1.378q0 .248.165.497c.055.11.165.275.275.33.55.441 1.265.662 1.98.607m64.308 1.874v-6.78c.055-.938-.33-1.82-.99-2.37-.77-.552-2.036-.497-2.916-.332a3.3 3.3 0 0 0-1.045.331v9.15h-3.246V7.042a14.6 14.6 0 0 1 5.941-1.102 6.42 6.42 0 0 1 4.181 1.544 4.44 4.44 0 0 1 1.265 2.646c.055.22.055.496.055.716v7.387z"/><path fill="#d62a23" d="M21.43 5.994c.056.11.056.166.11.276l.606.606v.055c.605.607 1.1 1.213 1.76 1.82v.055l.605.606v.055l.605.606v.056c.605.606 1.1 1.267 1.76 1.819v.055l.386.386c0-.055 0-.11.055-.166.055-.055.055 0 .055 0-.77 2.205-1.54 4.355-2.256 6.56l-.33.827c-.385.772-.935 1.488-1.54 2.095a6.73 6.73 0 0 1-3.08 1.653c-.33.055-.606.11-.936.166-2.86.11-5.776.11-8.691.165l-1.1.055s-.056 0-.056.055c-.054-.055-.11-.055-.165-.055-1.43.055-2.86.055-4.29.055-.33 0-.605.056-.935.11a2.8 2.8 0 0 0-1.266.828c-.605.771-.77 1.764-.44 2.646.11.33.33.606.55.826.055.056.165.11.275.166v.055a5 5 0 0 1-.55-.496A6.86 6.86 0 0 1 .527 21.98c.22-1.323.77-2.59 1.65-3.583a7 7 0 0 1 3.74-2.26c.276-.055.551-.11.881-.11 3.74-.11 7.481-.166 11.277-.22.055-.166.11-.276.165-.442.99-3.087 2.09-6.229 3.19-9.37"/><path fill="#48337e" d="M316.56 33.226h-2.97v-2.757h3.025v2.756z"/><path fill="#ad1f1e" d="M21.431 5.995c.055-.11.055-.221.11-.331 0-.055 0-.055.055-.11l.055.055c.055-.22.165-.441.33-.607.165-.22.33-.386.55-.551a2.694 2.694 0 0 1 3.741.551c.165.276.33.552.44.882.495 1.378.935 2.756 1.43 4.135v.055c-.22.716-.495 1.378-.715 2.095h-.055s0 .11-.055.165l-.385-.386v-.055c-.605-.607-1.155-1.268-1.76-1.82v-.054l-.605-.607v-.055l-.605-.606v-.055c-.605-.607-1.156-1.268-1.76-1.82l-.606-.606c-.055-.11-.11-.165-.165-.275"/><path fill="#48337e" d="M193.228 59.19a23.7 23.7 0 0 1-8.252-1.654 22.4 22.4 0 0 1-6.876-4.575 20.15 20.15 0 0 1-5.171-8.875c-.77-2.812-.99-5.733-.77-8.6.22-2.811 1.045-5.623 2.31-8.158a19.5 19.5 0 0 1 5.226-6.395c2.861-2.26 6.217-3.803 9.792-4.41a26.9 26.9 0 0 1 8.912 0c2.86.496 5.611 1.599 8.031 3.142 2.916 1.875 5.336 4.465 6.932 7.497a21.4 21.4 0 0 1 2.365 8.214 23.3 23.3 0 0 1-.825 8.71 19.9 19.9 0 0 1-4.016 7.607 20.8 20.8 0 0 1-6.986 5.347 22.1 22.1 0 0 1-8.582 2.095c-.66.055-1.375.11-2.09.055m.385-8.765c.77 0 1.54-.055 2.255-.165 1.486-.221 2.861-.827 4.071-1.71a11.2 11.2 0 0 0 3.521-4.464c.605-1.544.99-3.143 1.1-4.796.22-2.26 0-4.576-.605-6.78a10.6 10.6 0 0 0-2.751-4.741c-1.265-1.268-2.915-2.205-4.676-2.591a10.7 10.7 0 0 0-4.4-.11 8.9 8.9 0 0 0-3.081 1.047 11 11 0 0 0-3.466 3.087 12.5 12.5 0 0 0-2.09 5.623c-.275 1.819-.275 3.638-.055 5.457.22 1.984.88 3.914 1.925 5.623.826 1.212 1.871 2.26 3.081 3.032 1.595.937 3.356 1.488 5.171 1.488"/><path fill="#ad1f1e" d="M3.993 29.202a8 8 0 0 0-.825-.606l-.11-.11v-.11c-.11-.056-.165-.111-.275-.166-.22-.22-.44-.496-.55-.827-.33-.882-.165-1.93.44-2.646.33-.386.77-.717 1.265-.827.33-.11.605-.11.935-.11 1.43 0 2.86-.055 4.29-.055.056 0 .11 0 .166.055.825.606 1.65 1.268 2.42 1.874v.11a.42.42 0 0 0-.275.11h-.055s0 .056-.055.056c-.165.055-.275.11-.44.22h-.055l-.055.055h-.11c-.385.22-.715.331-1.1.551h-.11l-.055.056c-.165.055-.275.165-.44.22h-.055s0 .055-.055.055c-1.265.552-2.586 1.213-3.85 1.82h-.11l-.056.055c-.165.055-.275.11-.44.22h-.055l-.055.055c-.165.055-.275.11-.385.165h-.055c.165-.22.165-.22.11-.22"/><path fill="#d62a23" d="M37.384 53.457s.055-.056.055 0c.275.11.55.165.825.22a4.6 4.6 0 0 0 1.21-.165c1.046-.386 1.706-1.434 1.706-2.536 0-.22-.055-.496-.11-.717-.44-1.433-.88-2.866-1.32-4.355v-.11a544 544 0 0 0-2.696-8.875l-.165-.661c-.22-1.158-.165-2.315.22-3.418a7 7 0 0 1 2.42-3.418c2.476-1.874 4.952-3.748 7.372-5.622h-.66.66c.055 0 .055-.056.055-.056 1.155-.826 2.31-1.764 3.466-2.645 1.21-.827 1.54-2.536.715-3.749-.22-.276-.44-.551-.715-.717s-.605-.33-.935-.386l-.056-.055c.386.055.716.11 1.046.166.88.22 1.705.551 2.42 1.102 1.1.827 1.98 1.93 2.42 3.253.826 2.26.44 4.74-1.045 6.615a7.5 7.5 0 0 1-1.32 1.323 879 879 0 0 1-8.581 6.504c1.1 3.528 2.2 7.056 3.19 10.584.11.441.22.882.22 1.378.055.992-.11 1.93-.44 2.867-.55 1.433-1.595 2.646-2.915 3.473-.33.22-.715.386-1.1.55q-.578.248-1.156.332a7 7 0 0 1-1.045.11c-.33 0-.66 0-.99-.055a6.7 6.7 0 0 1-1.815-.441 14 14 0 0 0-.936-.496"/><path fill="#48337e" d="M381.088 52.079h-3.301v-2.757c-.935.662-2.09.882-3.245.662-1.045-.166-2.036-.551-2.861-1.213-1.375-1.047-1.98-2.756-1.595-4.465a5.13 5.13 0 0 1 3.025-3.197 6 6 0 0 1 3.411-.331c.385.11.715.22 1.045.33l-.825 2.481a3.83 3.83 0 0 0-2.09-.11c-.55.22-1.045.607-1.265 1.213a1.54 1.54 0 0 0 0 1.213c.22.55.605.937 1.1 1.157.77.331 1.705.22 2.365-.275.275-.166.55-.386.77-.662V39.4H367.39v12.679h-3.355v-2.812a5.52 5.52 0 0 1-3.631.607 6.07 6.07 0 0 1-3.135-1.434 4.84 4.84 0 0 1-1.321-1.984c-.55-1.764 0-3.638 1.376-4.851 1.1-.937 2.475-1.433 3.905-1.378.66 0 1.376.055 2.036.275.165.055.33.11.495.22l-.77 2.371c-.605-.275-1.266-.386-1.926-.275-.11 0-.275.055-.385.055l3.411 3.032V39.4h-9.242v-2.426h8.912l-6.381-3.031 1.65-2.591 6.051 4.19s.055.054.055 0l-2.971-5.127 2.641-.993h.11s0 .055.055.055c1.1 2.426 2.2 4.907 3.246 7.332l.055.11H390v2.37h-.055c-2.916.11-5.942 0-8.857 0v1.985c.55-.44 1.265-.717 1.98-.717 1.156-.055 2.311.166 3.301.717a5.46 5.46 0 0 1 2.09 2.095c.605 1.157.66 2.48.22 3.748a7.2 7.2 0 0 1-2.915 3.584c-.275.165-.55.385-.88.496l-1.816-2.37a4.45 4.45 0 0 0 2.091-1.93c.385-.662.495-1.544.165-2.26-.22-.496-.66-.882-1.1-1.103-.716-.275-1.541-.22-2.201.22q-.577.331-.99.828v7.497zm-20.079-4.741c.55.11 1.155 0 1.596-.276a139 139 0 0 0-3.026-2.756l-.055-.055-.055.055a2 2 0 0 0-.22.496c-.11.33-.055.662.055.992.22.772.88 1.379 1.705 1.544"/><path fill="#ad1f1e" d="M46.24 23.634h-.99v-.055h-.88c.88-1.488 1.87-3.142 2.696-4.686.055-.11.165-.22.22-.275.055-.11.055-.166.11-.22.11-.166.22-.442.33-.607.055-.055.165-.22.22-.276.055-.055.055-.165.11-.22.055-.166.275-.496.33-.607s.165-.33.275-.496l.055-.055s0-.055.055-.055c.11 0 .165 0 .275.055h.385l.055.055c.33.055.66.166.935.386 1.21.827 1.596 2.48.77 3.694-.165.275-.44.55-.715.716l-3.465 2.646s-.055.055-.11.055h-.055c-.165-.055-.385-.055-.605-.055"/><path fill="#48337e" d="M279.154 52.079h-3.245v-12.68h-3.356v12.68h-.055c-1.1.055-2.2 0-3.301 0v-7.387h-3.685c-.275 0-.495.11-.605.33-.055.11-.11.276-.11.386v1.6c0 .55-.331.991-.881 1.157-.44.055-.935-.056-1.265-.331a8 8 0 0 1-1.045-.882c-.715-.717-1.32-1.599-1.815-2.48-.33-.497-.385-1.103-.22-1.654.165-.331.495-.552.88-.607h8.691v-2.756h-18.373v2.536c.385-.441.88-.717 1.43-.827 1.155-.276 2.366-.166 3.466.22a5 5 0 0 1 2.035 1.489c1.1 1.433.825 3.252.165 4.796-.275.661-.55 1.323-.88 1.929s-.715 1.213-1.1 1.819l-2.641-1.985a7.5 7.5 0 0 0 1.596-2.7c.22-.607.275-1.268.22-1.93a1.467 1.467 0 0 0-1.651-1.157c-.55.055-1.1.275-1.54.55-.44.276-.77.662-1.1 1.048v6.835h-3.356v-4.465c-.605.552-1.375.827-2.2.827a4.85 4.85 0 0 1-3.246-.882c-.77-.55-1.32-1.268-1.595-2.15-.165-.496-.22-1.047-.22-1.543V39.4h-2.585v12.679h-3.301v-12.68h-1.76v-2.425h1.65a5.4 5.4 0 0 1-.275-2.094c.165-1.654 1.375-2.867 2.805-3.639 1.596-.826 3.411-1.157 5.171-.882 1.321.22 2.531.827 3.576 1.654 1.595 1.268 2.861 2.922 3.796 4.74h-2.971a9.4 9.4 0 0 0-1.815-2.314c-.44-.386-.935-.772-1.43-1.048-.936-.496-2.036-.716-3.081-.496-.88.165-1.65.551-2.255 1.213-.606.772-.386 1.984-.055 2.811h38.837l-6.381-5.788s.055 0 .055-.055c.825-.551 1.595-1.158 2.42-1.709l6.931 7.552h1.706v2.426h-1.981zm-34.326-6.23c.385.056.715 0 1.045-.165.715-.386 1.265-.992 1.65-1.709V39.4h-3.905v4.52c0 .22.055.441.055.662.22.55.605.992 1.155 1.267M18.846 53.456h-.055q-.66.248-1.32.166c-1.43-.166-2.475-1.489-2.365-2.922 0-.22.055-.386.165-.606.44-1.379.825-2.812 1.265-4.245h.055l7.591-5.292a6.74 6.74 0 0 1 5.776-1.047c.826.22 1.596.606 2.256 1.102 2.475 1.71 5.006 3.473 7.481 5.182h.055c.44 1.488.88 2.922 1.32 4.355.055.22.11.496.11.716 0 1.103-.66 2.095-1.705 2.536a4.3 4.3 0 0 1-1.21.165c-.275 0-.55-.11-.825-.22h-.055s-.22-.11-.275-.165c-1.76-1.213-3.466-2.426-5.226-3.639v5.954c-.055 1.93-1.65 3.528-3.576 3.638-.77.055-1.54-.165-2.2-.551a3.75 3.75 0 0 1-1.816-3.032c-.055-1.985 0-4.024 0-6.009-1.76 1.213-3.465 2.426-5.226 3.639zm319.114-.936s-.055 0-.055-.056c-2.421-3.252-4.896-6.45-7.317-9.701l2.476-1.764a4.77 4.77 0 0 0 1.65 2.094c.275.22.605.22.88.11.275-.22.495-.606.495-.937.055-.937 0-1.984 0-2.921h-7.976v4.685h-5.281c-.66-.055-1.265.22-1.705.662-.606.661-.771 1.543-.44 2.37.33.882.935 1.654 1.76 2.095 1.155.496 2.475.551 3.631.055a4.24 4.24 0 0 0 1.87-1.213l2.42 1.764c-.495.607-1.1 1.048-1.815 1.378-.77.386-1.65.662-2.53.772a10.1 10.1 0 0 1-4.621-.275c-1.651-.607-3.026-1.82-3.796-3.363a4.87 4.87 0 0 1-.275-3.418 5.03 5.03 0 0 1 4.621-3.417h2.805v-2.095H314.69v12.678h-3.355v-5.677h-4.016v1.488c.055.44-.275.882-.715 1.047-.55 0-1.1-.22-1.485-.606-.605-.441-1.211-.992-1.761-1.544-.495-.44-1.32-1.323-1.375-1.984 0-.33.22-.606.495-.717.11-.055.165-.055.275-.055h1.265v-4.63h-4.07v12.678h-3.301v-4.63c-.55.386-1.155.717-1.815.827-1.485.275-3.026 0-4.291-.827-1.1-.662-1.815-1.764-1.925-3.032V39.29h-1.156v-2.37h9.627l-6.271-5.789s.055 0 .055-.055c.825-.551 1.595-1.158 2.421-1.709l6.931 7.607h11.662l-6.326-5.843c.055 0 .055-.055.055-.055.825-.551 1.595-1.158 2.42-1.709l6.931 7.552h33.887v2.426h-1.926v12.678h-3.355v-6.339h-2.586l-1.155-2.59h3.741V39.4h-4.126c0 1.157.055 2.315 0 3.473 0 1.102-.605 2.095-1.54 2.7-.33.166-.715.221-1.101.166-.165 0-.275-.055-.44-.055h-.055l4.181 5.127zm-44.503-6.726q.33.083.66 0c.99-.165 1.925-.661 2.53-1.433v-5.016h-4.676v4.74c0 .386.165.772.44 1.048.22.33.66.551 1.046.661m17.933-1.984.055-4.465h-4.016v4.465z"/></svg>