<svg xmlns="http://www.w3.org/2000/svg" width="55.292" height="58.22" fill="none" viewBox="0 0 55.292 58.22"><path fill="#d62a23" d="M27.635 9.04c-.44-1.378-.935-2.756-1.43-4.134-.385-1.433-1.925-2.26-3.3-1.819-.276.11-.606.22-.826.386-.22.165-.385.33-.55.551-.11.22-.22.441-.275.606l-.055-.055c.055-.22.165-.44.275-.661.605-1.268 1.596-2.37 2.86-3.032.33-.165.66-.33 1.046-.441.385-.11.77-.22 1.21-.33A6.6 6.6 0 0 1 27.635 0c1.1 0 2.256.22 3.246.717a7 7 0 0 1 2.475 2.094 7.1 7.1 0 0 1 .936 1.82c1.1 3.197 2.2 6.339 3.3 9.536.055.22.165.441.22.717 3.3.055 6.601.11 9.902.22h.605s.055 0 .055.055l-.055.055c-.11.166-.165.331-.275.497s-.275.44-.33.606a.4.4 0 0 1-.11.22c-.055.056-.165.22-.22.276-.11.165-.275.441-.33.606a.4.4 0 0 1-.11.22c0 .056-.165.221-.22.277-.77 1.543-1.76 3.197-2.696 4.685.275 0 .55-.055.88 0v.055c-2.75-.055-5.5-.055-8.251-.165a6.36 6.36 0 0 1-3.41-1.323c-1.156-.882-2.036-2.04-2.476-3.418-.99-2.866-1.98-5.733-2.97-8.544-.11-.11-.166-.11-.166-.166M3.542 28.278h.165a.5.5 0 0 1 .385-.165l.055-.055h.055c.11-.055.275-.165.44-.22l.055-.056h.11a268 268 0 0 1 3.85-1.819l.056-.055h.055c.11-.055.275-.165.44-.22l.055-.055h.11c.385-.221.715-.331 1.1-.552h.11l.055-.055h.055c.11-.055.275-.165.44-.22l.055-.055h.11c.11-.056.165-.11.275-.11v-.111l4.896 3.748c.66.497 1.21 1.103 1.706 1.82a7.2 7.2 0 0 1 1.1 3.528c0 .826-.11 1.598-.33 2.37l-2.64 8.765c-.44 1.433-.88 2.866-1.266 4.244-.33.937-.11 1.93.495 2.646.44.496 1.045.827 1.706.882q.66.083 1.32-.165h.055c-.22.165-.495.276-.77.386-1.54.661-3.246.772-4.841.275a6.9 6.9 0 0 1-3.08-2.04 6.36 6.36 0 0 1-1.596-3.141 5 5 0 0 1-.11-.882 6.6 6.6 0 0 1 .165-2.095 4 4 0 0 1 .22-.772 694 694 0 0 0 3.025-10.032l-.165-.11z"/><path fill="#d62a23" d="M20.979 5.071c.055.11.055.166.11.276l.605.606v.055c.605.607 1.1 1.213 1.76 1.82v.055l.606.606v.055l.605.607v.055c.605.606 1.1 1.268 1.76 1.819v.055l.385.386c0-.055 0-.11.055-.166.055-.055.055 0 .055 0-.77 2.205-1.54 4.355-2.255 6.56l-.33.827c-.385.772-.935 1.488-1.54 2.095a6.73 6.73 0 0 1-3.081 1.654c-.33.055-.605.11-.935.165-2.86.11-5.776.11-8.692.165l-1.1.055s-.055 0-.055.056c-.055-.056-.11-.056-.165-.056-1.43.056-2.86.056-4.291.056-.33 0-.605.055-.935.11a2.8 2.8 0 0 0-1.265.827c-.605.771-.77 1.764-.44 2.646.11.33.33.606.55.827.055.055.165.11.275.165v.055a5 5 0 0 1-.55-.496 6.86 6.86 0 0 1-2.036-5.954c.22-1.323.77-2.59 1.65-3.583a7 7 0 0 1 3.741-2.26c.275-.055.55-.11.88-.11 3.741-.11 7.482-.165 11.277-.22.055-.166.11-.276.165-.442.99-3.087 2.09-6.229 3.191-9.37"/><path fill="#ad1f1e" d="M20.98 5.072c.055-.11.055-.22.11-.331 0-.055 0-.055.055-.11l.055.055c.055-.22.165-.441.33-.607.165-.22.33-.385.55-.55a2.694 2.694 0 0 1 3.74.55c.165.276.33.552.44.882.496 1.379.936 2.757 1.43 4.135v.055c-.22.717-.494 1.378-.714 2.095h-.055s0 .11-.055.165l-.385-.386v-.055c-.606-.606-1.156-1.268-1.76-1.82v-.054l-.606-.607v-.055l-.605-.606v-.055c-.605-.607-1.155-1.268-1.76-1.82l-.605-.606c-.055-.11-.11-.165-.165-.275M3.541 28.28a8 8 0 0 0-.825-.607l-.11-.11v-.11c-.11-.056-.165-.111-.275-.166-.22-.22-.44-.496-.55-.827-.33-.882-.165-1.93.44-2.646.33-.386.77-.717 1.265-.827.33-.11.605-.11.935-.11 1.43 0 2.86-.055 4.291-.055.055 0 .11 0 .165.055.825.606 1.65 1.268 2.42 1.874v.11a.42.42 0 0 0-.274.11h-.055s0 .056-.055.056c-.165.055-.275.11-.44.22h-.056l-.055.055h-.11c-.385.22-.715.331-1.1.552h-.11l-.055.055c-.165.055-.275.165-.44.22h-.055s0 .055-.055.055c-1.265.552-2.585 1.213-3.85 1.82h-.11l-.056.055c-.165.055-.275.11-.44.22h-.055l-.055.055c-.165.055-.275.11-.385.166h-.055c.165-.22.165-.22.11-.22"/><path fill="#d62a23" d="M36.933 52.534s.055-.055.055 0c.275.11.55.165.825.22.385 0 .825-.055 1.21-.165 1.045-.386 1.705-1.433 1.705-2.536 0-.22-.055-.496-.11-.716-.44-1.434-.88-2.867-1.32-4.355v-.11a544 544 0 0 0-2.695-8.876l-.165-.661c-.22-1.158-.165-2.315.22-3.418a7 7 0 0 1 2.42-3.418 875 875 0 0 0 7.371-5.622h-.66.66c.055 0 .055-.055.055-.055 1.156-.827 2.31-1.764 3.466-2.646 1.21-.827 1.54-2.536.715-3.749-.22-.275-.44-.551-.715-.716-.275-.166-.605-.331-.935-.386l-.055-.055c.385.055.715.11 1.045.165.88.22 1.705.551 2.42 1.102 1.1.827 1.98 1.93 2.42 3.253.826 2.26.441 4.74-1.044 6.615a7.5 7.5 0 0 1-1.32 1.323 879 879 0 0 1-8.582 6.504c1.1 3.528 2.2 7.056 3.19 10.584.11.441.22.882.22 1.378.056.993-.11 1.93-.44 2.867-.55 1.433-1.595 2.646-2.915 3.473-.33.22-.715.386-1.1.551q-.578.248-1.155.33a7 7 0 0 1-1.046.11c-.33 0-.66.001-.99-.054a6.7 6.7 0 0 1-1.815-.441c-.275-.166-.605-.33-.935-.496"/><path fill="#ad1f1e" d="M45.789 22.711h-.99v-.055h-.88c.88-1.488 1.87-3.142 2.695-4.685.055-.11.165-.221.22-.276.055-.11.055-.165.11-.22.11-.166.22-.442.33-.607.055-.055.165-.22.22-.276.055-.055.055-.165.11-.22.055-.165.275-.496.33-.606s.165-.331.275-.497l.055-.055s0-.055.055-.055c.11 0 .165 0 .275.055h.385l.055.055c.33.056.66.166.936.386 1.21.827 1.595 2.48.77 3.694-.165.275-.44.55-.715.716l-3.466 2.646s-.055.055-.11.055h-.055c-.165-.055-.385-.055-.605-.055"/><path fill="#48337e" d="M18.395 52.533h-.055q-.66.248-1.32.166c-1.43-.166-2.476-1.489-2.366-2.922 0-.22.055-.386.165-.606.44-1.378.825-2.812 1.265-4.245h.055l7.592-5.292a6.74 6.74 0 0 1 5.776-1.047c.825.22 1.595.606 2.255 1.102 2.476 1.71 5.006 3.473 7.481 5.182h.055c.44 1.488.88 2.922 1.32 4.355.056.22.11.496.11.717 0 1.102-.66 2.094-1.705 2.535a4.3 4.3 0 0 1-1.21.166c-.275 0-.55-.11-.825-.22h-.055s-.22-.111-.275-.166c-1.76-1.213-3.466-2.426-5.226-3.638v5.953c-.055 1.93-1.65 3.528-3.576 3.638-.77.055-1.54-.165-2.2-.551a3.75 3.75 0 0 1-1.815-3.032c-.055-1.984 0-4.024 0-6.008-1.76 1.212-3.466 2.425-5.226 3.638z"/></svg>