<svg xmlns="http://www.w3.org/2000/svg" width="224.09" height="69.36"><path d="M3.897 987.302h218.162v61.105H3.897z" style="fill:#e7e514;fill-opacity:1;fill-rule:evenodd;stroke:none" transform="translate(0 -983.002)"/><path d="m0 0-2.9 6.727c0 .004-.01.01-.01.014v.017l-.02.045q-.255.572-.6.785a.7.7 0 0 1-.12.065q-.09.046-.12.068-.18.049-.24.106a.2.2 0 0 0-.06.158c0 .074.04.133.1.18q.105.07.27.072c.04 0 .1-.006.19-.02l.07-.006.02-.005a8 8 0 0 1 1.45-.045c.19.007.41.019.65.033l.33.023q.225.02.33.02c.11 0 .19-.02.23-.053q.06-.053.06-.176c0-.07-.01-.127-.05-.164-.02-.037-.09-.078-.2-.123L-.66 7.7l-.02-.008c-.26-.119-.4-.285-.4-.49 0-.067.02-.159.05-.276q.06-.173.15-.404L.88 2.338c.01-.043.04-.082.06-.111a.17.17 0 0 1 .1-.039c.03 0 .07.012.1.039.03.023.06.061.08.105l1.6 3.807c.06.143.1.285.14.426.03.139.05.26.05.361q0 .297-.15.477c-.11.119-.27.207-.49.267-.03.014-.08.026-.13.039q-.03.008-.03.012H2.2q-.39.094-.39.309c0 .074.03.123.08.164.05.037.12.054.22.054l.08-.007c.04-.002.08-.004.11-.004l.07-.014q.585-.06 1.08-.062c.14 0 .29.002.43.011.14.012.29.028.46.051.02 0 .05.004.08.008l.06.006c.1-.004.16-.022.19-.051s.05-.08.05-.156c0-.119-.09-.237-.27-.342l-.01-.006q0-.006-.03-.025a2 2 0 0 1-.16-.104c-.15-.133-.34-.445-.56-.935-.02-.053-.04-.09-.05-.118-.01-.015-.01-.031-.02-.054-.01-.016-.02-.045-.04-.088L1.06.704 1.03.629A.5.5 0 0 1 .97.504C.8.116.67-.13.59-.232S.42-.384.33-.384c-.07 0-.12.025-.17.076S.06-.154 0 0m9.61 8.282v-.66a1.6 1.6 0 0 1-.61.113c-.34 0-.57-.07-.7-.215q-.18-.217-.18-.949V5.387c0-.297.07-.498.22-.615.14-.119.4-.176.75-.176.19 0 .36.016.52.045v-.644c-.22.039-.45.06-.71.06-.37 0-.59-.033-.67-.098-.07-.064-.11-.244-.11-.539V1.387c0-.424.07-.699.23-.82.15-.123.45-.186.88-.186.13 0 .26.008.38.024v-.584q-.255-.01-.51-.012-.435.002-1.11.023c-.11.006-.19.014-.23.014-.03 0-.07 0-.11.004-.21.014-.34.02-.41.02-.22 0-.44-.006-.64-.024a10 10 0 0 1-.64-.06c-.03-.004-.06-.01-.11-.012Q5.7-.241 5.64-.24q-.105.002-.18.078a.24.24 0 0 0-.07.174q0 .102.06.17c.04.047.13.104.26.166l.02.012c.19.094.31.183.38.275.08.102.13.237.16.395q.06.24.06.869v4.408c0 .363-.03.633-.08.809A.9.9 0 0 1 6 7.53c-.12.092-.29.16-.52.209l-.02.006-.18.037c-.04.008-.07.039-.11.082-.02.047-.04.092-.04.144a.25.25 0 0 0 .24.24l.08-.001a11 11 0 0 1 .85-.067 14 14 0 0 1 1.29-.008c.17.012.37.03.59.051.06 0 .16.008.28.018.43.029.75.043.97.043zm-21.76-6.383v4.408c0 .363-.03.633-.08.809a.83.83 0 0 1-.25.414.8.8 0 0 1-.2.121 2 2 0 0 1-.34.094.2.2 0 0 1-.06.011 1 1 0 0 1-.11.026c-.04.008-.07.039-.11.082a.27.27 0 0 0-.05.144q0 .118.09.186a.4.4 0 0 0 .24.066h.09c.02-.004.05-.006.08-.012q.015-.006.03-.007c.47-.045.92-.069 1.36-.069.46 0 .93.026 1.42.076.05.006.08.008.1.012.03.004.05.006.08.006.02.004.04.006.07.006.09 0 .17-.022.22-.068.06-.043.08-.1.08-.172q0-.157-.27-.276l-.03-.011a1 1 0 0 1-.19-.063.5.5 0 0 1-.12-.082.65.65 0 0 1-.19-.309c-.04-.119-.06-.347-.06-.697V4.545q0-.09.03-.152c.03-.041.05-.061.08-.061.01 0 .04.012.08.038q.06.03.12.093l2.15 1.975c.24.219.42.404.52.551q.15.22.15.406c0 .18-.12.295-.37.344l-.01.006h-.06l-.02.005c-.19.049-.28.137-.28.258q0 .124.06.172c.04.035.11.053.22.057.05 0 .09 0 .13-.002q.06-.003.12-.012c.02-.002.06-.006.1-.006.39-.021.72-.033 1.01-.033.33 0 .68.012 1.04.033l.03.006c.02.006.05.01.07.012s.04.002.07.002c.12 0 .22-.016.26-.047s.07-.086.07-.17c0-.082-.02-.141-.05-.176-.02-.035-.1-.068-.23-.105l-.06-.024c-.1-.041-.18-.076-.23-.103-.4-.18-.91-.545-1.52-1.092l-.04-.031-.03-.039-1.13-1.006a1 1 0 0 1-.16-.151c-.02-.043-.04-.078-.04-.113q0-.035.03-.094c.02-.041.05-.099.1-.181l2.65-3.864c.12-.166.23-.302.33-.398.11-.096.22-.17.34-.227a.5.5 0 0 1 .15-.05l.01-.006c.09-.018.14-.045.16-.076a.4.4 0 0 0 .03-.19c0-.107-.02-.181-.07-.219-.05-.037-.15-.054-.29-.054l-.16.002-.1.008q-.165.012-.3.019a9 9 0 0 1-1.05-.029h-.02c-.03-.004-.05-.006-.07-.01q-.03-.003-.06-.002c-.12 0-.24.061-.37.18-.13.123-.29.336-.49.646l-2.02 3.072a.6.6 0 0 1-.11.131.17.17 0 0 1-.09.037.2.2 0 0 1-.08-.013.2.2 0 0 1-.06-.045l-.37-.344a.7.7 0 0 1-.14-.174.6.6 0 0 1-.03-.224V1.567q0-.478.09-.686c.07-.136.18-.263.33-.371.09-.056.23-.113.41-.156l.03-.006c.16-.043.27-.084.32-.127a.24.24 0 0 0 .08-.183.28.28 0 0 0-.08-.198c-.05-.052-.1-.08-.17-.08q-.12 0-.21.008a1.4 1.4 0 0 0-.17.018c-.25.035-.49.06-.71.078q-.345.027-.69.025a8.5 8.5 0 0 1-1.29-.094l-.24-.025c-.07-.008-.13-.01-.19-.01-.07 0-.12.028-.17.078a.25.25 0 0 0-.08.174c0 .111.11.219.31.328l.01.008q.15.056.24.125c.06.049.12.1.16.162a1 1 0 0 1 .17.385c.03.154.05.449.05.879M9.61-.179v.584c.42.052.75.197 1 .437q.48.464.48 1.334c0 .617-.18 1.088-.55 1.405q-.36.303-.93.416v.644q.36.075.57.268c.23.207.35.535.35.978q0 .847-.42 1.348c-.14.176-.31.303-.5.387v.66c.84-.022 1.51-.196 1.98-.528.52-.351.77-.847.77-1.482q0-.717-.42-1.166c-.29-.299-.72-.512-1.3-.643.81-.041 1.4-.222 1.78-.547.39-.328.58-.812.58-1.453q0-1.354-.96-2.006-.825-.563-2.43-.636" style="fill:#000;fill-opacity:1;fill-rule:evenodd;stroke:none" transform="matrix(1.25 0 0 -1.25 43.31 39.253)"/><path d="M0 0c6.95 5.406 17.03 4.149 22.44-2.801 5.4-6.951 4.15-17.029-2.81-22.435-.2-.158-.41-.309-.61-.453 6.42 5.504 7.45 15.197 2.2 21.941C15.97 2.998 6.32 4.381-.59-.49c.19.166.39.33.59.49" style="fill:#00854a;fill-opacity:1;fill-rule:evenodd;stroke:none" transform="matrix(1.25 0 0 -1.25 33.485 17.569)"/><path d="M0 0c7.51 5.842 17.95 5.387 24.82-.58-6.29 4.863-15.38 5.043-21.98-.1-7.82-6.078-9.28-17.344-3.26-25.082s17.3-9.092 25.11-3.015a18 18 0 0 1 6.18 8.966 19.65 19.65 0 0 0-7.02-10.841c-8.53-6.629-20.83-5.151-27.4 3.291S-8.52-6.629 0 0" style="fill:#00854a;fill-opacity:1;fill-rule:evenodd;stroke:none" transform="matrix(1.25 0 0 -1.25 27.772 15.16)"/><path d="M0 0h9.83c1.88-9.89 10.6-17.412 21.03-17.412 8.09 0 15.16 4.535 18.79 11.193h125.01v-14.503H0z" style="fill:#00854a;fill-opacity:1;fill-rule:evenodd;stroke:none" transform="matrix(1.25 0 0 -1.25 3.747 39.502)"/><path d="M0 0v1.928h.74q.375 0 .54.129c.12.086.17.227.17.42q0 .126-.03.281c-.02.104-.06.221-.11.352L-.86 9.059h2.62L2.89 5.12 4 9.059h2.43L4.32 2.596c-.23-.725-.42-1.221-.55-1.49a2.2 2.2 0 0 0-.41-.613c-.2-.194-.44-.334-.71-.416s-.72-.122-1.34-.122c-.17 0-.38.004-.6.012C.48-.023.25-.013 0 0" style="fill:#000;fill-opacity:1;fill-rule:evenodd;stroke:none" transform="matrix(1.25 0 0 -1.25 130.322 42.947)"/><path d="M0 0v1.928h.74q.375 0 .54.129c.11.086.17.227.17.42q0 .126-.03.281c-.03.104-.06.221-.11.352L-.86 9.059h2.61L2.89 5.12 4 9.059h2.43L4.32 2.596c-.23-.725-.42-1.221-.55-1.49Q3.575.7 3.35.493a1.64 1.64 0 0 0-.7-.416c-.27-.081-.72-.122-1.34-.122q-.27 0-.6.012C.48-.023.25-.013 0 0" style="fill:#000;fill-opacity:1;fill-rule:evenodd;stroke:none" transform="matrix(1.25 0 0 -1.25 147.947 42.947)"/><path d="M0 0v8.805h2.81V5.887l2.53 2.918h3.28L5.48 5.561 9.03 0H5.66L3.51 3.527l-.7-.722V0z" style="fill:#000;fill-opacity:1;fill-rule:evenodd;stroke:none" transform="matrix(1.25 0 0 -1.25 72.51 39.748)"/><path d="M0 0v-1.566c-.24-.008-.42-.061-.55-.156-.15-.106-.23-.27-.25-.489h-2.52c.01.733.3 1.282.89 1.657Q-1.59-.024 0 0m0-4.128-.02-.004c-.65-.172-.97-.403-.97-.692a.52.52 0 0 1 .19-.428q.195-.154.54-.154c.09 0 .18.004.26.012v-1.348l-.03-.008a3.7 3.7 0 0 0-1.29-.211c-.73 0-1.3.18-1.7.54q-.6.54-.6 1.529c0 .64.2 1.115.59 1.422.4.306 1.14.529 2.24.67.14.019.33.041.56.066.08.008.16.018.23.027zm.97.3a9 9 0 0 0-.97-.3v1.421c.66.102 1 .303 1 .608a.44.44 0 0 1-.23.406c-.15.086-.38.129-.71.129L0-1.566V0a6.8 6.8 0 0 0 1.63-.146c.45-.098.81-.232 1.06-.402.3-.207.52-.44.64-.704.13-.259.19-.63.19-1.119v-3.621c0-.121.02-.226.07-.32a.6.6 0 0 1 .21-.231v-.187H1.2l-.15.623A3.5 3.5 0 0 0 0-6.742v1.348c.3.035.53.127.69.285.19.199.29.518.29.953v.203c0 .045-.01.088-.01.125" style="fill:#000;fill-opacity:1;fill-rule:evenodd;stroke:none" transform="matrix(1.25 0 0 -1.25 88.084 31.336)"/><path d="M0 0v6.5h2.38V5.316c.17.471.42.815.74 1.032.32.22.75.326 1.28.326h.24V4.096c-.1.009-.19.017-.28.023s-.17.008-.25.008c-.52 0-.91-.115-1.15-.354-.25-.232-.37-.603-.37-1.105V0z" style="fill:#000;fill-opacity:1;fill-rule:evenodd;stroke:none" transform="matrix(1.25 0 0 -1.25 93.66 39.748)"/><path d="M0 0v-6.5h-2.37v.959c-.3-.383-.64-.668-1.01-.854a2.75 2.75 0 0 0-1.26-.277c-.4 0-.75.065-1.06.197-.31.131-.58.328-.79.588-.19.229-.33.51-.41.842q-.12.5-.12 1.678V0h2.59v-3.356c0-.492.06-.833.19-1.025q.195-.283.69-.283.48 0 .72.328c.16.223.24.551.24.994V0z" style="fill:#000;fill-opacity:1;fill-rule:evenodd;stroke:none" transform="matrix(1.25 0 0 -1.25 108.785 31.623)"/><path d="M0 0v6.5h2.39V5.316c.17.471.41.815.73 1.032.33.22.75.326 1.29.326h.23V4.096c-.1.009-.19.017-.28.023-.08.006-.17.008-.25.008-.52 0-.9-.115-1.15-.354q-.36-.35-.36-1.105V0z" style="fill:#000;fill-opacity:1;fill-rule:evenodd;stroke:none" transform="matrix(1.25 0 0 -1.25 109.972 39.748)"/><path d="M0 0h2.89l1.48-5.684L5.97 0h2.78L5.78-8.805H2.97z" style="fill:#000;fill-opacity:1;fill-rule:evenodd;stroke:none" transform="matrix(1.25 0 0 -1.25 118.972 28.742)"/><path d="M0 0h2.5q0-.411.21-.613c.15-.135.36-.204.64-.204q.405 0 .63.137.21.135.21.403 0 .435-.96.642c-.05.014-.1.024-.13.033-1.21.254-2.01.535-2.38.834s-.55.739-.55 1.315c0 .699.26 1.228.81 1.594.54.367 1.34.546 2.38.546q1.455 0 2.25-.513c.54-.344.84-.852.92-1.528H4.21a.65.65 0 0 1-.26.465.9.9 0 0 1-.56.172c-.23 0-.4-.037-.52-.115a.39.39 0 0 1-.19-.34c0-.254.3-.447.89-.57.15-.032.27-.055.35-.075 1.18-.271 1.95-.558 2.3-.861.35-.308.54-.754.54-1.344 0-.746-.3-1.308-.88-1.687-.57-.377-1.43-.567-2.57-.567q-1.575 0-2.4.567C.35-1.33.05-.76 0 0" style="fill:#000;fill-opacity:1;fill-rule:evenodd;stroke:none" transform="matrix(1.25 0 0 -1.25 138.51 37.192)"/><path d="M0 0v-1.566c-.24-.008-.42-.061-.55-.156-.15-.106-.23-.27-.25-.489h-2.52c.01.733.31 1.282.89 1.657Q-1.59-.024 0 0m0-4.128-.02-.004c-.65-.172-.97-.403-.97-.692a.52.52 0 0 1 .19-.428q.195-.154.54-.154c.1 0 .18.004.26.012v-1.348l-.03-.008a3.7 3.7 0 0 0-1.29-.211c-.73 0-1.3.18-1.7.54q-.6.54-.6 1.529c0 .64.2 1.115.59 1.422.4.306 1.14.529 2.24.67.14.019.33.041.56.066.08.008.16.018.23.027zm.97.3a9 9 0 0 0-.97-.3v1.421c.66.102 1 .303 1 .608a.44.44 0 0 1-.23.406c-.15.086-.38.129-.71.129L0-1.566V0a6.8 6.8 0 0 0 1.63-.146c.46-.098.81-.232 1.06-.402.3-.207.52-.44.64-.704.13-.259.19-.63.19-1.119v-3.621c0-.121.02-.226.07-.32a.6.6 0 0 1 .21-.231v-.187H1.21l-.17.623A3.3 3.3 0 0 0 0-6.742v1.348c.3.035.53.127.69.285.19.199.3.518.3.953 0 .092 0 .16-.01.203 0 .045-.01.088-.01.125" style="fill:#000;fill-opacity:1;fill-rule:evenodd;stroke:none" transform="matrix(1.25 0 0 -1.25 160.66 31.336)"/><path d="M0 0h1.25v-2.057l-.1-.002h-3.89v8.805H.87c.13 0 .26 0 .38-.002V4.738c-.14.006-.29.012-.47.012H0V3.232h1.25V1.625H0zm1.25 0h.06c.43 0 .74.062.92.189.19.129.28.338.28.627 0 .291-.1.5-.28.623-.19.125-.5.186-.95.186h-.03v1.607c.35.008.59.066.74.174q.24.17.24.586c0 .291-.09.488-.26.595q-.18.118-.72.151v2.006c.58-.004 1.02-.024 1.31-.057.36-.039.66-.103.92-.197.44-.166.79-.426 1.02-.783q.36-.532.36-1.293 0-.597-.27-1.041c-.17-.299-.44-.541-.8-.731.47-.17.82-.42 1.04-.756.22-.332.33-.769.33-1.301 0-.523-.1-.974-.32-1.361-.22-.383-.54-.68-.95-.889q-.42-.214-.96-.304-.51-.084-1.68-.088z" style="fill:#000;fill-opacity:1;fill-rule:evenodd;stroke:none" transform="matrix(1.25 0 0 -1.25 173.31 37.175)"/><path d="M0 0v-1.566c-.24-.008-.42-.061-.55-.156a.66.66 0 0 1-.25-.489h-2.52c.01.733.3 1.282.89 1.657Q-1.59-.024 0 0m0-4.128-.02-.004c-.65-.172-.97-.403-.97-.692a.52.52 0 0 1 .19-.428c.13-.103.31-.154.55-.154.08 0 .17.004.25.012v-1.348l-.03-.008a3.7 3.7 0 0 0-1.29-.211c-.73 0-1.3.18-1.7.54q-.6.54-.6 1.529c0 .64.2 1.115.59 1.422.4.306 1.15.529 2.24.67.14.019.32.041.56.066.08.008.15.018.23.027zm.97.3a9 9 0 0 0-.97-.3v1.421c.67.102 1 .303 1 .608a.44.44 0 0 1-.23.406c-.15.086-.39.129-.71.129L0-1.566V0a6.8 6.8 0 0 0 1.63-.146c.45-.098.81-.232 1.06-.402.3-.207.52-.44.64-.704.13-.259.19-.63.19-1.119v-3.621c0-.121.02-.226.07-.32a.6.6 0 0 1 .21-.231v-.187H1.2l-.16.623A3.3 3.3 0 0 0 0-6.742v1.348c.3.035.53.127.69.285.2.199.29.518.29.953v.203c0 .045-.01.088-.01.125" style="fill:#000;fill-opacity:1;fill-rule:evenodd;stroke:none" transform="matrix(1.25 0 0 -1.25 185.047 31.336)"/><path d="M0 0v6.5h2.34v-.949q.465.568 1.02.847.555.276 1.26.276c.39 0 .75-.065 1.06-.197.31-.131.57-.327.79-.586q.3-.352.42-.858.12-.504.12-1.654V0H4.43v3.369c0 .492-.07.834-.2 1.022-.14.183-.36.275-.69.275q-.48 0-.72-.322-.24-.324-.24-.989V0z" style="fill:#000;fill-opacity:1;fill-rule:evenodd;stroke:none" transform="matrix(1.25 0 0 -1.25 190.61 39.748)"/><path d="M0 0v8.805h2.58V4.508L4.29 6.5h2.89L4.77 4.103 7.51 0H4.44L3.02 2.328l-.44-.457V0z" style="fill:#000;fill-opacity:1;fill-rule:evenodd;stroke:none" transform="matrix(1.25 0 0 -1.25 200.634 39.748)"/><path d="M0 0a.28.28 0 0 0-.1-.152.5.5 0 0 0-.23-.041h-.19a.6.6 0 0 0-.24.047c-.05.029-.08.07-.08.127 0 .013.01.039.04.088v.017l.03.108q.72 2.11 1.2 3.834.48 1.721.48 2.037c0 .177-.17.283-.52.322l-.16.018.06.259q.45.029.87.11c.29.052.56.123.83.209l.11-.051c-.3-1.082-.54-1.922-.72-2.529Q1.125 3.5.9 2.862c.38.408.72.707 1.04.894q.48.28.96.279c.26 0 .47-.074.62-.22q.24-.221.24-.576c0-.331-.21-.62-.64-.87q-.63-.374-1.56-.394c.1-.063.19-.151.28-.262.08-.115.18-.312.31-.596.01-.027.03-.066.05-.115.19-.429.38-.644.58-.644q.15-.001.33.127c.12.084.24.209.38.377l.18-.135c-.21-.328-.43-.572-.66-.742s-.45-.254-.68-.254c-.21 0-.38.074-.52.222-.14.147-.3.457-.47.922q-.015.06-.06.176c-.2.555-.42.848-.65.879zm.66 2.176c.03 0 .08 0 .14-.004s.11-.004.14-.004c.64 0 1.13.082 1.49.246.35.166.53.393.53.682q0 .192-.12.303a.5.5 0 0 1-.34.111c-.28 0-.59-.115-.91-.35q-.495-.348-.93-.984m-7.97.527-.21.116c.19.386.39.683.61.892.23.211.44.315.66.315.13 0 .23-.045.32-.131q.12-.134.12-.348c0-.105-.02-.24-.05-.404a7 7 0 0 0-.12-.535q.54.72 1.02 1.08c.32.234.63.355.93.355.22 0 .39-.056.52-.168s.19-.267.19-.465c0-.097-.02-.214-.05-.341a8 8 0 0 0-.22-.614l-.06-.148C-4 1.405-4.17.895-4.17.774c0-.061.01-.112.05-.151a.16.16 0 0 1 .13-.062c.07 0 .16.041.26.121q.15.122.48.488l.2-.187c-.34-.422-.65-.735-.92-.94-.27-.201-.52-.303-.74-.303-.15 0-.28.043-.36.131-.09.09-.13.209-.13.366 0 .084.01.185.04.3.03.119.07.264.13.438l.59 1.601c.01.026.02.067.04.12q.12.338.12.49c0 .097-.03.172-.08.224a.3.3 0 0 1-.22.082q-.345 0-.78-.554-.435-.555-.78-1.479L-6.65.145c-.06-.147-.11-.239-.16-.276-.05-.035-.13-.052-.25-.052h-.08l-.05.007a.8.8 0 0 0-.3.055c-.06.037-.1.084-.1.147 0 .011.01.029.01.047 0 .015.01.035.02.052l.04.094c.31.752.54 1.334.68 1.746.15.414.22.693.22.846 0 .105-.02.187-.07.242-.04.053-.11.08-.2.08-.05 0-.12-.035-.18-.102a2 2 0 0 1-.24-.328m-2.73-1.648q-.435-.629-.81-.947-.36-.322-.63-.321c-.13 0-.24.045-.32.131a.54.54 0 0 0-.11.356q0 .164.12.57c.08.273.19.6.34.982h-.03c-.38-.66-.76-1.168-1.12-1.519-.37-.352-.71-.529-1.01-.529-.2 0-.35.064-.46.197-.1.129-.16.316-.16.558 0 .389.12.799.36 1.241.25.439.58.845 1 1.211.32.275.63.482.95.617.32.137.63.203.96.203q.075 0 .24-.016c.01 0 .02-.004.02-.006l.25.34h.58q-.555-1.326-.87-2.185c-.21-.571-.31-.932-.31-1.076 0-.073.01-.129.04-.168.03-.041.06-.063.11-.063.08 0 .17.037.25.104.09.07.23.226.43.468zm-3.3-.047c0-.156.03-.273.08-.346.05-.074.14-.111.25-.111.14 0 .31.098.5.289s.42.481.68.861q.3.44.48.838c.13.262.19.444.19.541 0 .073-.03.131-.08.17a.45.45 0 0 1-.25.059c-.17 0-.34-.051-.52-.145a2 2 0 0 1-.52-.408 3.4 3.4 0 0 1-.58-.885c-.15-.334-.23-.625-.23-.863m-7.3.652 1.15 3.989c.02.093.05.177.06.252.01.07.02.132.02.181 0 .176-.21.282-.62.313l.04.24q.45.06.87.146c.28.057.54.125.8.202l.1-.061-1.51-4.799q.705.96 1.32 1.438c.41.314.8.474 1.16.474.24 0 .43-.087.58-.265.15-.18.22-.412.22-.697q0-.47-.27-.997a3.9 3.9 0 0 0-.75-1.029 4.9 4.9 0 0 0-1.29-.973c-.44-.23-.87-.343-1.27-.343-.27 0-.49.07-.64.205a.74.74 0 0 0-.23.568c0 .092.02.225.05.395q.06.25.21.761m2.79 1.739q-.225 0-.48-.168a4 4 0 0 1-.63-.567 5 5 0 0 1-.76-1.019c-.19-.342-.28-.625-.28-.848 0-.182.05-.322.14-.416q.135-.144.39-.144c.255 0 .34.052.51.152.18.103.34.248.5.437.3.356.55.731.74 1.123.19.395.29.713.29.956 0 .164-.04.287-.11.369-.07.084-.17.125-.31.125m-13.17.636c.44 0 .79-.146 1.07-.441.27-.295.4-.684.4-1.17 0-.289-.05-.584-.16-.887-.1-.298-.26-.584-.45-.849a2.5 2.5 0 0 0-.79-.707c-.31-.168-.62-.25-.94-.25-.46 0-.82.148-1.1.447-.28.301-.41.697-.41 1.193 0 .293.05.59.16.885.11.293.27.576.47.842.24.31.51.539.81.701.29.156.61.236.94.236m-.06-.324c-.16 0-.3-.055-.43-.172-.13-.119-.26-.304-.39-.564a5.7 5.7 0 0 1-.43-1.108q-.15-.574-.15-1.05 0-.363.15-.565c.1-.133.24-.197.43-.197.18 0 .34.066.49.201.14.137.29.354.42.65.16.333.29.676.37 1.03.09.355.13.683.13.984 0 .252-.05.447-.16.586a.5.5 0 0 1-.43.205M-36.03.869q-.435-.606-.81-.871a1.44 1.44 0 0 0-.83-.267c-.21 0-.37.054-.49.166q-.18.165-.18.461c0 .064.01.131.02.205q.03.108.06.238l.76 2.588h-.69v.34h.78l.27.939c.04.119.08.197.14.233q.09.054.33.052h.08c.13 0 .22-.013.28-.045q.09-.048.09-.146c0-.016-.01-.039-.01-.072-.01-.012-.01-.02-.01-.022l-.28-.939h.91v-.34h-1l-.65-2.301c-.01-.078-.03-.144-.04-.201s-.02-.102-.02-.135c0-.111.03-.195.08-.258.06-.06.13-.091.23-.091q.12.001.3.13.165.13.51.493zM-50.91 2.49l-.25.083c.15.48.33.841.55 1.089.22.25.47.373.74.373.38 0 .67-.279.85-.839.19-.559.28-1.428.28-2.608V.221c.36.478.64.93.84 1.348.19.421.29.787.29 1.095 0 .133-.03.303-.1.504q-.09.305-.09.414c0 .137.03.244.12.328.08.084.19.125.32.125q.225.002.36-.156c.1-.099.14-.244.14-.422 0-.422-.18-.982-.53-1.687-.36-.699-.85-1.463-1.48-2.287-.56-.709-1-1.219-1.35-1.526-.35-.304-.64-.457-.89-.457a.47.47 0 0 0-.33.121.41.41 0 0 0-.14.309q0 .185.12.293.105.111.3.111c.08 0 .19-.023.32-.07.13-.045.22-.068.26-.068q.135 0 .33.169.195.173.39.45c.12.158.2.334.25.523.05.192.08.455.08.797 0 1.061-.07 1.855-.19 2.375s-.3.781-.55.781c-.13 0-.24-.058-.34-.179-.09-.12-.2-.327-.3-.622m-2.49-1.435q-.435-.629-.81-.947c-.24-.215-.46-.321-.64-.321a.4.4 0 0 0-.31.131q-.12.125-.12.356c0 .109.05.3.12.57.09.273.2.6.35.982h-.04c-.37-.66-.75-1.168-1.12-1.519-.36-.352-.7-.529-1.01-.529-.19 0-.35.064-.45.197-.11.129-.16.316-.16.558 0 .389.12.799.36 1.241.24.439.58.845 1 1.211.31.275.63.482.95.617.31.137.63.203.95.203q.09 0 .24-.016.015-.001.03-.006l.24.34h.58c-.37-.883-.66-1.613-.86-2.185-.21-.571-.31-.932-.31-1.076 0-.073.01-.129.04-.168a.11.11 0 0 1 .1-.063c.09 0 .18.037.26.104q.135.105.42.468zm-3.3-.047c0-.156.02-.273.08-.346.05-.074.13-.111.25-.111.13 0 .3.098.5.289.19.191.42.481.68.861q.285.44.48.838c.13.262.19.444.19.541 0 .073-.03.131-.08.17a.5.5 0 0 1-.25.059c-.17 0-.34-.051-.52-.145a1.9 1.9 0 0 1-.52-.408 3.1 3.1 0 0 1-.58-.885c-.15-.334-.23-.625-.23-.863m-7.85 2.301h-.95q-.33 0-.51-.098a.33.33 0 0 1-.17-.299c0-.056.06-.138.17-.254.1-.113.16-.205.16-.287a.42.42 0 0 0-.12-.3.378.378 0 0 0-.57.017.6.6 0 0 0-.11.369c0 .129.06.326.19.596s.29.512.47.732c.07.086.15.151.23.19.09.043.19.06.3.06.05 0 .16-.005.34-.011a9 9 0 0 1 .84-.006q.18.005.39.017l.09-.093c-.41-.571-.72-1.059-.93-1.475q-.3-.618-.3-1.033c0-.262.07-.471.2-.623a.7.7 0 0 1 .55-.231c.1 0 .22.028.35.078q.195.084.42.241c-.01.07-.02.144-.02.22v.223c0 .293.02.586.09.873.07.289.17.572.3.858.14.306.29.546.46.716s.33.256.49.256c.14 0 .26-.053.34-.158.09-.104.13-.25.13-.43 0-.334-.1-.701-.3-1.113-.2-.41-.49-.82-.86-1.23a.72.72 0 0 1 .23-.411.65.65 0 0 1 .42-.142c.22 0 .44.08.68.24q.345.246.63.676c.14.199.24.4.31.599.07.2.1.383.1.551 0 .096-.01.184-.02.252a1 1 0 0 1-.09.168c-.03.029-.06.065-.11.115-.15.145-.22.28-.22.401a.463.463 0 0 0 .47.482q.255.001.39-.197.15-.198.15-.557c0-.297-.07-.633-.2-1.002-.12-.369-.3-.74-.53-1.105-.29-.457-.6-.813-.92-1.07q-.48-.382-.93-.383c-.23 0-.43.064-.58.197-.16.135-.27.328-.34.584a2.8 2.8 0 0 0-.65-.576 1.26 1.26 0 0 0-.65-.188c-.3 0-.55.098-.74.295s-.28.455-.28.774q0 .443.3 1.062c.2.416.5.891.91 1.43m1.56-1.899q.39.44.6.873t.21.752q0 .137-.06.211-.06.07-.18.071c-.16 0-.31-.137-.43-.409q-.18-.407-.18-1.005c0-.065 0-.137.01-.213 0-.078.02-.172.03-.28M-75.06.869q-.435-.606-.81-.871a1.43 1.43 0 0 0-.82-.267c-.22 0-.38.054-.5.166a.63.63 0 0 0-.17.461c0 .064 0 .131.01.205.02.072.04.152.07.238l.75 2.588h-.69v.34h.79l.26.939c.04.119.08.197.14.233q.09.054.33.052h.08c.13 0 .22-.013.28-.045q.09-.048.09-.146c0-.016-.01-.039-.01-.072-.01-.012-.01-.02-.01-.022l-.28-.939h.91v-.34h-1l-.64-2.301c-.02-.078-.04-.144-.05-.201s-.02-.102-.02-.135c0-.111.03-.195.08-.258.06-.06.14-.091.23-.091q.12.001.3.13.165.13.51.493zm-6.34 1.51c.29.58.55 1 .79 1.258.23.262.47.389.71.389a.52.52 0 0 0 .35-.11.4.4 0 0 0 .12-.31.64.64 0 0 0-.13-.405c-.08-.115-.18-.175-.29-.175q-.105 0-.27.082a.7.7 0 0 1-.25.078c-.16 0-.33-.113-.49-.344s-.37-.686-.64-1.365l-.53-1.326c0-.01-.01-.024-.02-.039a.44.44 0 0 0-.44-.295h-.05l-.06.007a.7.7 0 0 0-.29.055c-.07.033-.1.08-.1.139 0 .015 0 .031.01.053 0 .017.01.037.02.054l.03.096c.31.713.53 1.289.68 1.725s.22.738.22.904c0 .09-.02.16-.07.211-.04.049-.11.072-.19.072-.06 0-.12-.037-.19-.111a1.3 1.3 0 0 1-.23-.319l-.2.116c.19.39.39.687.62.894.21.209.44.313.66.313q.21.002.33-.129a.56.56 0 0 0 .11-.358q0-.242-.06-.527a5 5 0 0 0-.19-.623zm-4.03-1.324q-.435-.629-.81-.947-.36-.322-.63-.321c-.14 0-.24.045-.32.131q-.12.125-.12.356c0 .109.04.3.13.57.08.273.19.6.34.982h-.03c-.38-.66-.76-1.168-1.13-1.519-.36-.352-.7-.529-1.01-.529q-.285-.001-.45.197c-.11.129-.16.316-.16.558 0 .389.12.799.36 1.241.24.439.58.845 1 1.211.32.275.63.482.95.617.31.137.63.203.95.203.06 0 .14-.006.25-.016.01 0 .01-.004.02-.006l.24.34h.58c-.37-.883-.66-1.613-.86-2.185-.21-.571-.31-.932-.31-1.076 0-.073.01-.129.04-.168.02-.041.06-.063.11-.063.08 0 .17.037.25.104.09.07.24.226.43.468zm-3.3-.047c0-.156.03-.273.08-.346.05-.074.14-.111.25-.111.14 0 .3.098.49.289.2.191.43.481.69.861q.3.44.48.838c.13.262.19.444.19.541q0 .11-.09.17-.075.059-.24.059c-.17 0-.34-.051-.53-.145a2 2 0 0 1-.51-.408 3.1 3.1 0 0 1-.58-.885c-.16-.334-.23-.625-.23-.863M-98.4-.183l-.07.007a.6.6 0 0 0-.26.059c-.07.037-.1.084-.1.145 0 .013 0 .027.01.045 0 .017.01.035.02.052l.03.096c.31.734.54 1.318.68 1.744.16.424.23.723.23.885 0 .09-.03.16-.07.211-.05.049-.11.072-.2.072-.06 0-.13-.037-.2-.111a1.6 1.6 0 0 1-.23-.319l-.19.116c.19.39.39.687.61.894.22.209.45.313.67.313a.43.43 0 0 0 .33-.131q.12-.134.12-.356c0-.113-.01-.242-.04-.394a7 7 0 0 0-.12-.496c.3.461.61.808.91 1.039.3.232.59.347.88.347a.68.68 0 0 0 .5-.187c.13-.125.2-.287.2-.484q0-.096-.03-.245c-.02-.097-.06-.224-.1-.38.35.437.7.767 1.02.986.33.219.64.328.94.328.21 0 .37-.059.5-.174q.18-.17.18-.469c0-.084-.01-.175-.04-.281-.03-.105-.06-.228-.12-.373l-.51-1.361v-.012c-.13-.348-.19-.555-.19-.619q0-.1.06-.164a.2.2 0 0 1 .14-.065q.135 0 .3.137c.11.092.25.236.41.442l.19-.139c-.3-.395-.59-.697-.86-.904q-.42-.313-.75-.313c-.15 0-.28.049-.37.148a.56.56 0 0 0-.14.395c0 .121.08.391.25.818.08.213.15.387.19.516.18.479.3.832.37 1.061.08.23.11.38.11.457q0 .164-.09.257c-.06.061-.14.09-.25.09-.29 0-.62-.244-.96-.732-.34-.49-.66-1.17-.97-2.041l-.2-.592a.8.8 0 0 0-.14-.258q-.06-.06-.24-.06h-.2a.8.8 0 0 0-.27.043c-.05.025-.08.062-.08.115 0 .035.01.08.02.133s.03.113.05.175l.79 2.207q.06.157.09.303.03.154.03.28a.4.4 0 0 1-.1.291c-.06.076-.16.111-.27.111q-.345 0-.75-.565c-.26-.373-.53-.912-.79-1.617L-97.9.145c-.06-.147-.11-.239-.16-.276-.04-.035-.13-.052-.25-.052zm-7.28.375q.075.213.15.478c.05.174.13.44.23.797l.31-.053c-.02-.101-.03-.191-.04-.269s-.01-.143-.01-.196c0-.281.09-.496.28-.648s.46-.23.8-.23c.35 0 .64.103.86.308q.33.312.33.787 0 .537-.84 1.514c-.08.088-.13.154-.17.197-.36.416-.59.742-.7.975q-.15.347-.15.734 0 .798.57 1.32c.38.352.86.526 1.45.526.28 0 .54-.041.8-.125.25-.08.51-.205.76-.379-.06-.17-.12-.348-.17-.529-.05-.18-.08-.369-.12-.565l-.31.072c.01.073.01.124.02.155v.095c0 .288-.08.514-.25.678q-.255.247-.69.248c-.33 0-.6-.105-.82-.308a1.03 1.03 0 0 1-.32-.774c0-.205.05-.406.16-.609.1-.199.32-.486.65-.854.03-.033.08-.084.13-.152.67-.738 1-1.359 1-1.867 0-.537-.19-.969-.59-1.305-.4-.334-.92-.5-1.57-.5-.3 0-.59.039-.88.119a3.8 3.8 0 0 0-.87.36" style="fill:#fff;fill-opacity:1;fill-rule:evenodd;stroke:none" transform="matrix(1.25 0 0 -1.25 204.484 59.763)"/></svg>