<svg xmlns="http://www.w3.org/2000/svg" width="56" height="56"><path d="M42.815 988.85a27.583 27.583 45.492 0 1 27.346 27.818v.473a27.345 27.345 135 0 1-27.346 27.346 27.583 27.583 45.492 0 1-27.345-27.819v-.473a27.345 27.345 135 0 1 27.345-27.345" style="fill:#e7e514;fill-opacity:1;fill-rule:evenodd;stroke:none;stroke-width:.477759" transform="translate(-14.828 -988.743)"/><path d="m0 0-2.9 6.727c0 .004-.01.01-.01.014v.017l-.02.045q-.255.572-.6.785a.7.7 0 0 1-.12.065q-.09.046-.12.068-.18.049-.24.106a.2.2 0 0 0-.06.158c0 .074.04.133.1.18q.105.07.27.072c.04 0 .1-.006.19-.02l.07-.006.02-.005a8 8 0 0 1 1.45-.045c.19.007.41.019.65.033l.33.023q.225.02.33.02c.11 0 .19-.02.23-.053q.06-.053.06-.176c0-.07-.01-.127-.05-.164-.02-.037-.09-.078-.2-.123L-.66 7.7l-.02-.008c-.26-.119-.4-.285-.4-.49 0-.067.02-.159.05-.276q.06-.173.15-.404L.88 2.338c.01-.043.04-.082.06-.111a.17.17 0 0 1 .1-.039c.03 0 .07.012.1.039.03.023.06.061.08.105l1.6 3.807c.06.143.1.285.14.426.03.139.05.26.05.361q0 .297-.15.477c-.11.119-.27.207-.49.267-.03.014-.08.026-.13.039q-.03.008-.03.012H2.2q-.39.094-.39.309c0 .074.03.123.08.164.05.037.12.054.22.054l.08-.007c.04-.002.08-.004.11-.004l.07-.014q.585-.06 1.08-.062c.14 0 .29.002.43.011.14.012.29.028.46.051.02 0 .05.004.08.008l.06.006c.1-.004.16-.022.19-.051s.05-.08.05-.156c0-.119-.09-.237-.27-.342l-.01-.006q0-.006-.03-.025a2 2 0 0 1-.16-.104c-.15-.133-.34-.445-.56-.935-.02-.053-.04-.09-.05-.118-.01-.015-.01-.031-.02-.054-.01-.016-.02-.045-.04-.088L1.06.704 1.03.629A.5.5 0 0 1 .97.504C.8.116.67-.13.59-.232S.42-.384.33-.384c-.07 0-.12.025-.17.076S.06-.154 0 0m9.61 8.282v-.66a1.6 1.6 0 0 1-.61.113c-.34 0-.57-.07-.7-.215q-.18-.217-.18-.949V5.387c0-.297.07-.498.22-.615.14-.119.4-.176.75-.176.19 0 .36.016.52.045v-.644c-.22.039-.45.06-.71.06-.37 0-.59-.033-.67-.098-.07-.064-.11-.244-.11-.539V1.387c0-.424.07-.699.23-.82.15-.123.45-.186.88-.186.13 0 .26.008.38.024v-.584q-.255-.01-.51-.012-.435.002-1.11.023c-.11.006-.19.014-.23.014-.03 0-.07 0-.11.004-.21.014-.34.02-.41.02-.22 0-.44-.006-.64-.024a10 10 0 0 1-.64-.06c-.03-.004-.06-.01-.11-.012Q5.7-.241 5.64-.24q-.105.002-.18.078a.24.24 0 0 0-.07.174q0 .102.06.17c.04.047.13.104.26.166l.02.012c.19.094.31.183.38.275.08.102.13.237.16.395q.06.24.06.869v4.408c0 .363-.03.633-.08.809A.9.9 0 0 1 6 7.53c-.12.092-.29.16-.52.209l-.02.006-.18.037c-.04.008-.07.039-.11.082-.02.047-.04.092-.04.144a.25.25 0 0 0 .24.24l.08-.001a11 11 0 0 1 .85-.067 14 14 0 0 1 1.29-.008c.17.012.37.03.59.051.06 0 .16.008.28.018.43.029.75.043.97.043zm-21.76-6.383v4.408c0 .363-.03.633-.08.809a.83.83 0 0 1-.25.414.8.8 0 0 1-.2.121 2 2 0 0 1-.34.094.2.2 0 0 1-.06.011 1 1 0 0 1-.11.026c-.04.008-.07.039-.11.082a.27.27 0 0 0-.05.144q0 .118.09.186a.4.4 0 0 0 .24.066h.09c.02-.004.05-.006.08-.012q.015-.006.03-.007c.47-.045.92-.069 1.36-.069.46 0 .93.026 1.42.076.05.006.08.008.1.012.03.004.05.006.08.006.02.004.04.006.07.006.09 0 .17-.022.22-.068.06-.043.08-.1.08-.172q0-.157-.27-.276l-.03-.011a1 1 0 0 1-.19-.063.5.5 0 0 1-.12-.082.65.65 0 0 1-.19-.309c-.04-.119-.06-.347-.06-.697V4.545q0-.09.03-.152c.03-.041.05-.061.08-.061.01 0 .04.012.08.038q.06.03.12.093l2.15 1.975c.24.219.42.404.52.551q.15.22.15.406c0 .18-.12.295-.37.344l-.01.006h-.06l-.02.005c-.19.049-.28.137-.28.258q0 .124.06.172c.04.035.11.053.22.057.05 0 .09 0 .13-.002q.06-.003.12-.012c.02-.002.06-.006.1-.006.39-.021.72-.033 1.01-.033.33 0 .68.012 1.04.033l.03.006c.02.006.05.01.07.012s.04.002.07.002c.12 0 .22-.016.26-.047s.07-.086.07-.17c0-.082-.02-.141-.05-.176-.02-.035-.1-.068-.23-.105l-.06-.024c-.1-.041-.18-.076-.23-.103-.4-.18-.91-.545-1.52-1.092l-.04-.031-.03-.039-1.13-1.006a1 1 0 0 1-.16-.151c-.02-.043-.04-.078-.04-.113q0-.035.03-.094c.02-.041.05-.099.1-.181l2.65-3.864c.12-.166.23-.302.33-.398.11-.096.22-.17.34-.227a.5.5 0 0 1 .15-.05l.01-.006c.09-.018.14-.045.16-.076a.4.4 0 0 0 .03-.19c0-.107-.02-.181-.07-.219-.05-.037-.15-.054-.29-.054l-.16.002-.1.008q-.165.012-.3.019a9 9 0 0 1-1.05-.029h-.02c-.03-.004-.05-.006-.07-.01q-.03-.003-.06-.002c-.12 0-.24.061-.37.18-.13.123-.29.336-.49.646l-2.02 3.072a.6.6 0 0 1-.11.131.17.17 0 0 1-.09.037.2.2 0 0 1-.08-.013.2.2 0 0 1-.06-.045l-.37-.344a.7.7 0 0 1-.14-.174.6.6 0 0 1-.03-.224V1.567q0-.478.09-.686c.07-.136.18-.263.33-.371.09-.056.23-.113.41-.156l.03-.006c.16-.043.27-.084.32-.127a.24.24 0 0 0 .08-.183.28.28 0 0 0-.08-.198c-.05-.052-.1-.08-.17-.08q-.12 0-.21.008a1.4 1.4 0 0 0-.17.018c-.25.035-.49.06-.71.078q-.345.027-.69.025a8.5 8.5 0 0 1-1.29-.094l-.24-.025c-.07-.008-.13-.01-.19-.01-.07 0-.12.028-.17.078a.25.25 0 0 0-.08.174c0 .111.11.219.31.328l.01.008q.15.056.24.125c.06.049.12.1.16.162a1 1 0 0 1 .17.385c.03.154.05.449.05.879M9.61-.179v.584c.42.052.75.197 1 .437q.48.464.48 1.334c0 .617-.18 1.088-.55 1.405q-.36.303-.93.416v.644q.36.075.57.268c.23.207.35.535.35.978q0 .847-.42 1.348c-.14.176-.31.303-.5.387v.66c.84-.022 1.51-.196 1.98-.528.52-.351.77-.847.77-1.482q0-.717-.42-1.166c-.29-.299-.72-.512-1.3-.643.81-.041 1.4-.222 1.78-.547.39-.328.58-.812.58-1.453q0-1.354-.96-2.006-.825-.563-2.43-.636" style="fill:#000;fill-opacity:1;fill-rule:evenodd;stroke:none" transform="matrix(1.25 0 0 -1.25 28.98 32.86)"/><path d="M0 0c6.95 5.406 17.03 4.149 22.44-2.801 5.4-6.951 4.15-17.029-2.81-22.435-.2-.158-.41-.309-.61-.453 6.42 5.504 7.45 15.197 2.2 21.941C15.97 2.998 6.32 4.381-.59-.49c.19.166.39.33.59.49" style="fill:#00854a;fill-opacity:1;fill-rule:evenodd;stroke:none" transform="matrix(1.25 0 0 -1.25 19.155 11.175)"/><path d="M0 0c7.51 5.842 17.95 5.387 24.82-.58-6.29 4.863-15.38 5.043-21.98-.1-7.82-6.078-9.28-17.344-3.26-25.082s17.3-9.092 25.11-3.015a18 18 0 0 1 6.18 8.966 19.65 19.65 0 0 0-7.02-10.841c-8.53-6.629-20.83-5.151-27.4 3.291S-8.52-6.629 0 0" style="fill:#00854a;fill-opacity:1;fill-rule:evenodd;stroke:none" transform="matrix(1.25 0 0 -1.25 13.442 8.768)"/></svg>