<svg xmlns="http://www.w3.org/2000/svg" xml:space="preserve" width="323.57" height="73"><path d="M.791-58.004h257.855V-.527H.791z" style="fill:green;fill-opacity:1" transform="translate(0 73)scale(1.25)"/><g style="fill:#fee800;fill-opacity:1"><path d="m0 0 .657 7.879q.027.345.026.571.001.358-.172.528-.176.17-.618.19L0 9.421h3.904l-.08-.253h-.192q-.384.001-.622-.241-.239-.24-.29-.899l-.376-4.674 2.912 3.798.073.876q.026.272.027.435-.001.333-.187.508-.19.177-.626.197l.074.253h3.93l-.078-.253q-.52.001-.77-.241-.248-.24-.306-.899l-.37-4.674 2.805 3.682q.72.944.89 1.284a.86.86 0 0 1 .122.394q0 .155-.161.283-.16.125-.615.171l.071.253h2.578l-.065-.253a1.35 1.35 0 0 1-.576-.229q-.32-.24-.834-.911L5.107 0h-.42l.491 6.215L.428 0zm15.862 9.629-1.853-6.117q.962 1.351 1.396 1.827.648.684 1.116.927.465.24.892.241a.85.85 0 0 0 .624-.262q.26-.261.26-.696 0-.368-.172-.917l-.904-2.893q-.122-.38-.122-.51 0-.06.051-.112a.16.16 0 0 1 .114-.051q.085 0 .171.067.229.17.483.545.065.094.207.285l.279-.15Q17.791.85 17.243.489 16.696.13 16.202.13q-.442 0-.691.218a.69.69 0 0 0-.247.542q0 .298.17.849l.882 2.893q.087.299.085.436a.18.18 0 0 1-.06.131.2.2 0 0 1-.139.058q-.256 0-.705-.408-.927-.834-1.85-2.622L13.013.211h-1.767l2.336 7.675q.142.488.143.698a.31.31 0 0 1-.143.267q-.186.128-.569.106l.048.274 2.373.398zm5.598-6.871a5 5 0 0 1-.066-.728c0-.338.105-.612.312-.813q.308-.306.828-.306.5 0 1.002.229.5.234 1.165.809l.211-.183Q24.094.821 23.317.422a3.7 3.7 0 0 0-1.716-.401q-1.189 0-1.646.542a1.9 1.9 0 0 0-.454 1.257q0 1.115.681 2.227a5.1 5.1 0 0 0 1.849 1.788q1.173.671 2.356.672.598 0 .904-.271a.88.88 0 0 0 .307-.687q0-.497-.299-.964a3.3 3.3 0 0 0-1.041-1.029 5 5 0 0 0-1.402-.594q-.522-.137-1.396-.204m.063.353q.627.087.973.241.343.152.676.489.332.337.573.849.243.513.244.961-.002.189-.112.3a.4.4 0 0 1-.283.106q-.339.001-.768-.454-.784-.829-1.303-2.492m7.584 3.396-1.074-3.818q1.323 2.792 1.993 3.438.393.379.827.38.298 0 .484-.209.185-.205.184-.586 0-.659-.335-1.106-.213-.288-.477-.288a.46.46 0 0 0-.427.253q-.142.252-.2.295a.2.2 0 0 1-.122.044.34.34 0 0 1-.147-.039q-.157-.083-.411-.399-.252-.314-.623-1.055c-.245-.494-.44-.911-.576-1.254q-.207-.512-.576-1.952h-1.723l1.174 4.502q.128.504.128.667a.54.54 0 0 1-.067.285.4.4 0 0 1-.185.149q-.118.048-.489.049l.063.194 2.152.45zm4.503-3.749a5 5 0 0 1-.066-.728c0-.338.104-.612.311-.813q.309-.306.829-.306.499 0 1.002.229.5.234 1.164.809l.212-.183Q36.243.821 35.467.422a3.7 3.7 0 0 0-1.716-.401q-1.19 0-1.646.542a1.9 1.9 0 0 0-.455 1.257q0 1.115.681 2.227a5.1 5.1 0 0 0 1.85 1.788q1.172.671 2.355.672.599 0 .905-.271a.88.88 0 0 0 .306-.687q0-.497-.299-.964a3.3 3.3 0 0 0-1.04-1.029 5 5 0 0 0-1.403-.594q-.521-.137-1.395-.204m.063.353q.626.087.972.241.344.152.676.489t.574.849q.241.513.243.961a.4.4 0 0 1-.112.3.4.4 0 0 1-.282.106q-.34.001-.768-.454-.785-.829-1.303-2.492m13.294 3.396-.311-2.098h-.265q-.055.813-.522 1.282t-1.002.468a.8.8 0 0 1-.54-.183.56.56 0 0 1-.214-.44q-.001-.218.093-.408.092-.191.413-.517 1.125-1.155 1.366-1.588a1.87 1.87 0 0 0 .243-.93q0-.539-.284-1.015a2.04 2.04 0 0 0-.853-.77 2.56 2.56 0 0 0-1.177-.287q-.415 0-1.018.155-.401.11-.599.109a.6.6 0 0 1-.279-.051.7.7 0 0 1-.221-.213h-.263l.35 2.262h.226q.252-.822.467-1.173a1.6 1.6 0 0 1 .581-.556 1.4 1.4 0 0 1 .698-.206.92.92 0 0 1 .649.234q.255.234.255.558 0 .32-.167.619-.168.3-.771.93-.834.863-1.099 1.333a1.6 1.6 0 0 0-.185.774q0 .731.559 1.222c.372.327.898.489 1.57.489q.444 0 1.082-.151.323-.073.513-.074.28 0 .45.225zm2.531-3.749a5 5 0 0 1-.066-.728c0-.338.105-.612.312-.813q.308-.306.828-.306.5 0 1.002.229.5.234 1.164.809l.212-.183Q52.133.821 51.355.422a3.7 3.7 0 0 0-1.716-.401q-1.189 0-1.646.542a1.9 1.9 0 0 0-.455 1.257q0 1.115.681 2.227a5.1 5.1 0 0 0 1.85 1.788c.783.447 1.565.672 2.355.672q.599 0 .905-.271a.88.88 0 0 0 .306-.687 1.76 1.76 0 0 0-.299-.964 3.3 3.3 0 0 0-1.04-1.029 5 5 0 0 0-1.403-.594q-.52-.137-1.395-.204m.063.353q.627.087.973.241.343.152.675.489.333.337.574.849.242.513.243.961a.4.4 0 0 1-.111.3.4.4 0 0 1-.283.106q-.34.001-.768-.454-.784-.829-1.303-2.492m7.584 3.396-1.074-3.818q1.323 2.792 1.993 3.438.393.379.827.38.298 0 .484-.209.184-.205.184-.586 0-.659-.335-1.106-.213-.288-.477-.288a.47.47 0 0 0-.428.253q-.14.252-.199.295a.2.2 0 0 1-.121.044.35.35 0 0 1-.149-.039q-.156-.083-.41-.399-.251-.314-.623-1.055-.37-.74-.576-1.254-.209-.512-.576-1.952h-1.723l1.174 4.502q.128.504.129.667a.53.53 0 0 1-.069.285.4.4 0 0 1-.184.149c-.081.032-.241.049-.489.049l.063.194 2.152.45zm4.23-6.486h-.255q.022.556.022.841-.001.775-.127 2.24-.124 1.46-.279 1.952-.124.359-.321.521a.53.53 0 0 1-.35.109q-.12-.001-.292-.026v.244l2.373.605q.712-1.854.69-4.748 1.047.95 1.442 1.542.395.591.396.985 0 .313-.246.635c-.165.216-.267.366-.306.459a.7.7 0 0 0-.061.297q0 .354.241.591.245.24.612.239.395 0 .606-.239.299-.331.299-.788 0-.467-.173-.92-.175-.45-.6-1.065a7.2 7.2 0 0 0-.943-1.117q-.952-.924-2.728-2.357m7.743 9.608q.441 0 .743-.289a.95.95 0 0 0 .302-.707.94.94 0 0 0-.307-.708 1.03 1.03 0 0 0-.738-.292q-.43 0-.735.292a.95.95 0 0 0-.306.708q0 .413.302.707.303.289.739.289m.439-3.122-1.458-4.829q-.121-.414-.122-.545 0-.073.063-.139a.2.2 0 0 1 .137-.062q.12-.002.243.102.318.25.768.908l.243-.136Q68.355.021 67.143.021q-.463 0-.736.248a.8.8 0 0 0-.275.628q.001.25.122.638l.989 3.247q.143.467.143.705 0 .149-.136.267a.55.55 0 0 1-.369.113q-.109 0-.258-.004l.093.271 2.416.373zm5.813-4.66.213-.183Q74.891.874 74.222.51a3.77 3.77 0 0 0-1.845-.489q-.638 0-1.135.262a1.63 1.63 0 0 0-.729.732 2.14 2.14 0 0 0-.236.969q0 1.113.634 2.189t1.673 1.706q1.042.627 2.044.628.807 0 1.211-.341.407-.337.406-.841a1.08 1.08 0 0 0-.306-.775q-.306-.32-.684-.319a.77.77 0 0 0-.544.204.63.63 0 0 0-.216.482q-.002.368.384.639.262.19.262.332a.23.23 0 0 1-.107.197.6.6 0 0 1-.369.109q-.597 0-1.126-.461a3.96 3.96 0 0 1-1.067-1.549q-.372-.939-.372-1.78.001-.665.377-1.062.378-.397.899-.399.456.002.985.225.531.226 1.009.679m3.276.911a5 5 0 0 1-.065-.728c0-.338.104-.612.311-.813q.309-.306.829-.306.499 0 1.002.229.5.234 1.163.809l.213-.183Q81.28.821 80.504.422a3.7 3.7 0 0 0-1.716-.401q-1.19 0-1.646.542a1.9 1.9 0 0 0-.455 1.257q0 1.115.681 2.227a5.1 5.1 0 0 0 1.85 1.788q1.171.671 2.355.672.598 0 .904-.271a.88.88 0 0 0 .307-.687q0-.497-.299-.964a3.3 3.3 0 0 0-1.04-1.029 5 5 0 0 0-1.403-.594q-.521-.137-1.396-.204m.064.353q.626.087.972.241.343.152.675.489.333.338.574.849.242.513.243.961a.4.4 0 0 1-.111.3.4.4 0 0 1-.282.106q-.341.001-.769-.454-.784-.829-1.302-2.492m11.145 6.518q.442 0 .744-.289a.95.95 0 0 0 .302-.707.95.95 0 0 0-.307-.708 1.03 1.03 0 0 0-.739-.292q-.428 0-.734.292a.95.95 0 0 0-.306.708q0 .413.301.707.304.289.739.289m.44-3.122-1.458-4.829q-.122-.414-.122-.545 0-.073.063-.139a.2.2 0 0 1 .137-.062q.12-.002.242.102.32.25.768.908l.244-.136Q89.093.021 87.881.021q-.463 0-.736.248a.81.81 0 0 0-.275.628q.001.25.122.638l.989 3.247q.143.467.143.705 0 .149-.136.267a.55.55 0 0 1-.369.113q-.109 0-.258-.004l.092.271 2.417.373zm5.762 0-.312-2.098h-.265q-.055.813-.522 1.282-.466.469-1.002.468a.8.8 0 0 1-.54-.183.56.56 0 0 1-.213-.44.9.9 0 0 1 .092-.408q.092-.191.413-.517 1.124-1.155 1.367-1.588a1.94 1.94 0 0 0-.042-1.945 2.04 2.04 0 0 0-.853-.77 2.56 2.56 0 0 0-1.177-.287q-.415 0-1.018.155-.402.11-.598.109a.6.6 0 0 1-.28-.051.7.7 0 0 1-.221-.213h-.263l.351 2.262h.225q.253-.822.468-1.173a1.6 1.6 0 0 1 .58-.556q.364-.207.698-.206a.92.92 0 0 1 .649.234q.255.234.255.558 0 .32-.168.619-.166.3-.77.93-.834.863-1.099 1.333a1.6 1.6 0 0 0-.185.774q.001.731.559 1.222.559.49 1.571.489.442 0 1.081-.151a2.5 2.5 0 0 1 .514-.074q.28 0 .449.225zm10.975-.095-1.381-4.516-.143-.551a1 1 0 0 1-.022-.149q.001-.083.061-.144.063-.06.124-.06.15 0 .413.218.109.088.513.623l.25-.122q-.507-.88-1.079-1.287a2.1 2.1 0 0 0-1.235-.403q-.408 0-.62.199a.67.67 0 0 0-.213.508q0 .263.228.983l.17.552Q103.271.91 102.511.348a1.55 1.55 0 0 0-.941-.327q-.656.001-.948.512a2.3 2.3 0 0 0-.292 1.159q0 .957.613 2.195.612 1.24 1.609 1.994.82.626 1.539.626.398 0 .641-.22.242-.223.355-.807l.258.837zm-2.278-1.291q0 .55-.179.795a.41.41 0 0 1-.348.169q-.222 0-.457-.204-.478-.42-1.029-1.708-.55-1.286-.551-2.224 0-.36.124-.519.125-.16.275-.16.32 0 .648.353.47.503.847 1.23.67 1.277.67 2.268m12.597 1.386.528-4.768q1.075 1.011 1.403 1.599t.328.98q0 .15-.073.3a2.2 2.2 0 0 1-.285.414q-.213.265-.24.334a.9.9 0 0 0-.051.311q-.001.347.25.589.248.24.627.241.376 0 .598-.246.314-.351.314-.813 0-.754-.756-1.978-.755-1.22-3.447-3.449h-.285l-.442 4.17-3.075-4.17h-.307q.107 1.889.108 3.53-.001 1.076-.122 1.549a.76.76 0 0 1-.252.422.63.63 0 0 1-.397.143q-.112 0-.292-.027v.25l2.45.619q.201-.531.27-.999.122-.72.122-1.676 0-.341-.029-1.034l2.756 3.709zm10.441-.095-1.381-4.516-.143-.551a1 1 0 0 1-.022-.149q.001-.083.061-.144.062-.06.124-.06.15 0 .413.218.109.088.513.623l.25-.122q-.507-.88-1.079-1.287a2.1 2.1 0 0 0-1.235-.403q-.408 0-.62.199a.67.67 0 0 0-.213.508q0 .263.228.983l.17.552Q124.032.91 123.271.348a1.56 1.56 0 0 0-.941-.327q-.656.001-.948.512a2.3 2.3 0 0 0-.292 1.159q0 .957.613 2.195.612 1.24 1.609 1.994.82.626 1.539.626.398 0 .641-.22.242-.223.355-.807l.258.837zm-2.277-1.291q0 .55-.18.795a.41.41 0 0 1-.348.169q-.221 0-.457-.204-.478-.42-1.029-1.708-.55-1.286-.551-2.224 0-.36.124-.519t.275-.16q.32 0 .649.353.468.503.846 1.23.67 1.277.671 2.268m2.953.774 2.195.612a2.2 2.2 0 0 0 .37-.591q.192-.482.27-1.331.15-1.672.206-3.565.764.956 1.745 2.531.3.477.3.897 0 .267-.346.503-.346.238-.43.371a.6.6 0 0 0-.085.343q-.001.338.26.589.258.254.629.253a.94.94 0 0 0 .681-.285.92.92 0 0 0 .287-.673q.002-.455-.268-1.057-.265-.6-1.249-2.06-1.26-1.868-2.469-3.234-.778-.87-1.255-1.252a4.4 4.4 0 0 0-.99-.607 1.6 1.6 0 0 0-.605-.13.98.98 0 0 0-.695.271.86.86 0 0 0-.287.647q0 .373.258.63a.84.84 0 0 0 .61.258q.433 0 .797-.434.242-.291.399-.292.165 0 .321.088.215.109.598.503.044.848.044 1.282 0 .586-.059 1.644l-.121 2.589q-.063.713-.319 1.025a.66.66 0 0 1-.52.231q-.123 0-.272-.02zm14.636.612q.562 0 1.058-.248.493-.248.746-.689a1.9 1.9 0 0 0 .253-.978q0-1.101-.644-2.202A4.86 4.86 0 0 0 142.82.656q-1.057-.635-2.125-.635-.968 0-1.497.549a1.86 1.86 0 0 0-.533 1.345q.001.944.397 1.771a5.08 5.08 0 0 0 2.404 2.436 3.7 3.7 0 0 0 1.638.385m-.291-.359a.95.95 0 0 1-.628-.211q-.499-.429-1.125-2.001-.627-1.572-.627-2.835-.001-.312.199-.517a.65.65 0 0 1 .469-.204q.28 0 .494.165.313.243.768 1.096a9.4 9.4 0 0 1 .749 1.88q.291 1.029.291 1.885 0 .353-.18.547a.54.54 0 0 1-.41.195m6.607-.626-.831-3.137q-.587-2.221-1.141-3.22-.556-.999-1.3-1.476-.744-.48-1.707-.48-.606 0-.89.22-.284.222-.284.519 0 .28.236.482.233.205.62.205.32 0 .491-.156a.51.51 0 0 0 .17-.394q-.001-.217-.107-.322-.107-.105-.107-.139l.036-.049a.17.17 0 0 1 .1-.033q.213 0 .362.128.379.32.564.774.128.313.492 1.651l1.453 5.427h-.992l.236.795q.534-.007.776.127.244.138.512.612.785 1.38 1.654 1.978a3.34 3.34 0 0 0 1.937.595q.683 0 .994-.25a.8.8 0 0 0 .309-.651q0-.354-.207-.561a.7.7 0 0 0-.513-.206.66.66 0 0 0-.469.169.53.53 0 0 0-.184.408q0 .169.116.359.117.191.117.257a.15.15 0 0 1-.053.123.2.2 0 0 1-.139.049q-.42-.001-.861-.496-.728-.796-1.169-2.513h1.033l-.25-.795z" style="fill:#fee800;fill-opacity:1;fill-rule:nonzero;stroke:none" transform="matrix(.97866 0 0 -1.02096 103.502 66.293)"/></g><g style="fill:#fee800;fill-opacity:1"><path d="m0 0 .657 7.879q.027.345.026.571.001.358-.172.528-.176.17-.618.19L0 9.421h3.904l-.08-.253h-.192q-.384.001-.622-.241-.239-.24-.29-.899l-.376-4.674 2.912 3.798.073.876q.026.272.027.435-.001.333-.187.508-.19.177-.626.197l.074.253h3.93l-.078-.253q-.52.001-.77-.241-.248-.24-.306-.899l-.37-4.674 2.805 3.682q.72.944.89 1.284a.86.86 0 0 1 .122.394q0 .155-.161.283-.16.125-.615.171l.071.253h2.578l-.065-.253a1.35 1.35 0 0 1-.576-.229q-.32-.24-.834-.911L5.107 0h-.42l.491 6.215L.428 0z" style="fill:#fee800;fill-opacity:1;stroke:none" transform="matrix(.97866 0 0 -1.02096 103.502 66.293)"/></g><g style="fill:#fee800;fill-opacity:1"><path d="m0 0-1.853-6.117Q-.89-4.765-.457-4.291q.648.685 1.116.927.466.242.892.242.363-.001.625-.262.258-.261.259-.696 0-.369-.172-.918l-.904-2.893q-.122-.379-.122-.51 0-.06.051-.111a.15.15 0 0 1 .114-.051q.085 0 .171.067.229.17.483.545.065.093.207.285l.279-.151q-.614-.962-1.161-1.323Q.834-9.5.34-9.5q-.442 0-.69.219a.68.68 0 0 0-.248.542q0 .299.17.848l.882 2.893q.087.3.085.436a.18.18 0 0 1-.06.132.2.2 0 0 1-.139.058q-.256 0-.705-.408-.927-.834-1.85-2.622l-.634-2.016h-1.767l2.336 7.675q.142.488.143.698a.31.31 0 0 1-.143.266q-.186.129-.569.107l.048.273L-.428 0z" style="fill:#fee800;fill-opacity:1;stroke:none" transform="matrix(.97866 0 0 -1.02096 119.025 56.463)"/></g><g style="fill:#fee800;fill-opacity:1"><path d="M0 0a5 5 0 0 1-.066-.728c0-.338.105-.612.312-.813q.308-.307.828-.306.5 0 1.002.229.5.232 1.165.809l.211-.183q-.818-.945-1.595-1.345a3.7 3.7 0 0 0-1.716-.401q-1.189 0-1.646.543a1.9 1.9 0 0 0-.454 1.256q0 1.116.681 2.228A5.1 5.1 0 0 0 .571 3.076q1.173.672 2.356.673.598 0 .904-.272a.87.87 0 0 0 .307-.686q0-.498-.299-.964A3.3 3.3 0 0 0 2.798.797 5 5 0 0 0 1.396.204Q.874.065 0 0" style="fill:#fee800;fill-opacity:1;stroke:none" transform="matrix(.97866 0 0 -1.02096 124.504 63.478)"/></g><g style="fill:#fff;fill-opacity:1"><path d="M0 0q.627.088.973.241.343.152.675.489.334.337.574.849.242.514.243.962a.4.4 0 0 1-.112.299.4.4 0 0 1-.282.107q-.34 0-.768-.455Q.518 1.664 0 0" style="fill:green;fill-opacity:1;stroke:none" transform="matrix(.97866 0 0 -1.02096 124.565 63.118)"/></g><g style="fill:#fee800;fill-opacity:1"><path d="m0 0-1.074-3.818Q.249-1.026.919-.38q.391.379.827.38.299 0 .483-.209.186-.205.185-.586 0-.659-.336-1.106-.212-.288-.476-.288a.47.47 0 0 0-.428.253q-.14.252-.199.295a.2.2 0 0 1-.122.044.34.34 0 0 1-.148-.039q-.155-.083-.41-.399-.251-.314-.623-1.055-.37-.74-.576-1.254-.209-.512-.576-1.952h-1.723l1.173 4.502q.129.504.129.667a.54.54 0 0 1-.067.285.4.4 0 0 1-.185.149c-.081.032-.241.049-.489.049l.063.194L-.428 0z" style="fill:#fee800;fill-opacity:1;stroke:none" transform="matrix(.97866 0 0 -1.02096 131.988 59.651)"/></g><g style="fill:#fee800;fill-opacity:1"><path d="M0 0a5 5 0 0 1-.066-.728c0-.338.105-.612.312-.813q.308-.307.828-.306.5 0 1.002.229.5.232 1.164.809l.212-.183q-.818-.945-1.595-1.345a3.7 3.7 0 0 0-1.716-.401q-1.19 0-1.646.543a1.9 1.9 0 0 0-.454 1.256q-.001 1.116.68 2.228a5.1 5.1 0 0 0 1.85 1.787q1.173.672 2.356.673.598 0 .904-.272a.88.88 0 0 0 .307-.686q0-.498-.299-.964A3.3 3.3 0 0 0 2.798.797 5 5 0 0 0 1.395.204Q.875.065 0 0" style="fill:#fee800;fill-opacity:1;stroke:none" transform="matrix(.97866 0 0 -1.02096 136.393 63.479)"/></g><g style="fill:#fff;fill-opacity:1"><path d="M0 0q.627.088.972.241.344.152.676.489t.574.849q.242.514.243.962a.4.4 0 0 1-.112.299.4.4 0 0 1-.282.107q-.34 0-.768-.455Q.518 1.664 0 0" style="fill:green;fill-opacity:1;stroke:none" transform="matrix(.97866 0 0 -1.02096 136.455 63.12)"/></g><g style="fill:#fee800;fill-opacity:1"><path d="m0 0-.311-2.098h-.265q-.055.813-.522 1.282T-2.1-.348a.8.8 0 0 1-.54-.183.56.56 0 0 1-.214-.44q-.002-.218.093-.408.092-.191.413-.517 1.125-1.155 1.366-1.588a1.87 1.87 0 0 0 .243-.93q0-.539-.284-1.015a2.04 2.04 0 0 0-.853-.77 2.56 2.56 0 0 0-1.177-.287q-.415 0-1.018.155-.401.11-.599.109a.6.6 0 0 1-.279-.051.7.7 0 0 1-.221-.213h-.262l.349 2.262h.227q.251-.822.466-1.173a1.64 1.64 0 0 1 .581-.556 1.4 1.4 0 0 1 .698-.206.92.92 0 0 1 .649.234q.255.234.255.558 0 .32-.167.619-.167.3-.771.93-.834.863-1.099 1.333a1.6 1.6 0 0 0-.184.774q0 .731.558 1.222.56.49 1.571.489.442 0 1.081-.151.323-.073.513-.074.28 0 .45.225z" style="fill:#fee800;fill-opacity:1;stroke:none" transform="matrix(.97866 0 0 -1.02096 149.465 59.652)"/></g><g style="fill:#fee800;fill-opacity:1"><path d="M0 0a5 5 0 0 1-.065-.728c0-.338.104-.612.311-.813q.308-.307.828-.306.5 0 1.002.229.5.232 1.165.809l.211-.183q-.817-.945-1.594-1.345a3.7 3.7 0 0 0-1.717-.401q-1.189 0-1.646.543a1.9 1.9 0 0 0-.454 1.256q0 1.116.681 2.228A5.1 5.1 0 0 0 .571 3.076q1.173.672 2.356.673.597 0 .905-.272a.88.88 0 0 0 .306-.686q0-.498-.299-.964A3.3 3.3 0 0 0 2.798.797 5 5 0 0 0 1.395.204Q.875.065 0 0" style="fill:#fee800;fill-opacity:1;stroke:none" transform="matrix(.97866 0 0 -1.02096 151.942 63.48)"/></g><g style="fill:#fff;fill-opacity:1"><path d="M0 0q.626.088.972.241.344.152.676.489t.573.849q.243.514.244.962a.4.4 0 0 1-.112.299.4.4 0 0 1-.282.107q-.34 0-.769-.455Q.518 1.664 0 0" style="fill:green;fill-opacity:1;stroke:none" transform="matrix(.97866 0 0 -1.02096 152.005 63.12)"/></g><g style="fill:#fee800;fill-opacity:1"><path d="m0 0-1.074-3.818Q.248-1.026.919-.38q.391.379.826.38.299 0 .484-.209.186-.205.185-.586 0-.659-.336-1.106-.212-.288-.476-.288a.47.47 0 0 0-.428.253q-.141.252-.199.295a.2.2 0 0 1-.122.044.34.34 0 0 1-.148-.039q-.157-.083-.411-.399-.25-.314-.622-1.055-.37-.74-.576-1.254-.208-.512-.576-1.952h-1.724l1.175 4.502q.128.504.128.667a.53.53 0 0 1-.068.285.4.4 0 0 1-.185.149q-.119.049-.488.049l.063.194L-.428 0z" style="fill:#fee800;fill-opacity:1;stroke:none" transform="matrix(.97866 0 0 -1.02096 159.427 59.653)"/></g><g style="fill:#fee800;fill-opacity:1"><path d="M0 0h-.255q.022.556.022.841-.001.776-.127 2.24-.124 1.461-.279 1.952c-.083.238-.19.415-.321.521a.53.53 0 0 1-.35.109 2 2 0 0 1-.292-.025v.243l2.373.605q.712-1.854.69-4.748 1.047.95 1.442 1.542t.396.985q0 .313-.246.636-.247.321-.306.458a.7.7 0 0 0-.06.298q0 .354.24.591a.84.84 0 0 0 .613.238q.393 0 .605-.238.299-.332.299-.789 0-.467-.173-.92-.174-.45-.6-1.064a7 7 0 0 0-.943-1.117Q1.776 1.433 0 0" style="fill:#fee800;fill-opacity:1;stroke:none" transform="matrix(.97866 0 0 -1.02096 163.567 66.275)"/></g><g style="fill:#fee800;fill-opacity:1"><path d="M0 0q.441 0 .744-.29a.94.94 0 0 0 .301-.707.94.94 0 0 0-.306-.707A1.04 1.04 0 0 0 0-1.996q-.429 0-.735.292a.95.95 0 0 0-.306.707q0 .415.302.707Q-.435 0 0 0" style="fill:#fee800;fill-opacity:1;stroke:none" transform="matrix(.97866 0 0 -1.02096 171.145 56.465)"/></g><g style="fill:#fee800;fill-opacity:1"><path d="m0 0-1.458-4.829q-.122-.413-.122-.545 0-.072.063-.139a.2.2 0 0 1 .137-.062q.12-.002.243.102.318.25.767.908l.244-.136q-1.077-1.785-2.288-1.785-.463 0-.736.248a.8.8 0 0 0-.275.628q0 .25.121.638l.99 3.247q.143.467.143.705 0 .148-.136.267a.55.55 0 0 1-.369.113q-.109 0-.258-.004l.092.271L-.425 0z" style="fill:#fee800;fill-opacity:1;stroke:none" transform="matrix(.97866 0 0 -1.02096 171.575 59.652)"/></g><g style="fill:#fee800;fill-opacity:1"><path d="m0 0 .214-.183q-.692-.789-1.361-1.155a3.8 3.8 0 0 0-1.845-.489q-.64.001-1.136.262a1.64 1.64 0 0 0-.729.733 2.1 2.1 0 0 0-.235.969q0 1.114.634 2.188a4.8 4.8 0 0 0 1.672 1.706q1.043.627 2.045.629.805 0 1.21-.341.408-.338.406-.841 0-.456-.306-.775-.305-.32-.683-.32a.77.77 0 0 0-.544.204.63.63 0 0 0-.217.482q-.002.369.384.64.262.189.262.332a.22.22 0 0 1-.107.197.6.6 0 0 1-.369.109q-.598 0-1.126-.462a3.95 3.95 0 0 1-1.066-1.548q-.373-.94-.373-1.781.001-.664.377-1.061.379-.397.9-.399.456.002.985.225Q-.477-.455 0 0" style="fill:#fee800;fill-opacity:1;stroke:none" transform="matrix(.97866 0 0 -1.02096 177.263 64.41)"/></g><g style="fill:#fee800;fill-opacity:1"><path d="M0 0a5 5 0 0 1-.066-.728c0-.338.105-.612.311-.813q.31-.307.829-.306.499 0 1.002.229.5.232 1.164.809l.212-.183q-.818-.945-1.595-1.345a3.7 3.7 0 0 0-1.716-.401q-1.19 0-1.646.543A1.9 1.9 0 0 0-1.96-.939q0 1.116.681 2.228a5.1 5.1 0 0 0 1.85 1.787q1.173.672 2.356.673.598 0 .904-.272a.88.88 0 0 0 .306-.686q0-.498-.299-.964a3.3 3.3 0 0 0-1.04-1.03A5 5 0 0 0 1.395.204Q.875.065 0 0" style="fill:#fee800;fill-opacity:1;stroke:none" transform="matrix(.97866 0 0 -1.02096 180.47 63.48)"/></g><g style="fill:#fff;fill-opacity:1"><path d="M0 0q.627.088.972.241.344.152.676.489t.574.849q.242.514.243.962a.4.4 0 0 1-.112.299.4.4 0 0 1-.282.107q-.34 0-.768-.455Q.518 1.664 0 0" style="fill:green;fill-opacity:1;stroke:none" transform="matrix(.97866 0 0 -1.02096 180.532 63.12)"/></g><g style="fill:#fee800;fill-opacity:1"><path d="M0 0q.442 0 .744-.29a.94.94 0 0 0 .301-.707.94.94 0 0 0-.306-.707A1.03 1.03 0 0 0 0-1.996q-.428 0-.734.292a.94.94 0 0 0-.306.707q-.001.415.301.707Q-.435 0 0 0" style="fill:#fee800;fill-opacity:1;stroke:none" transform="matrix(.97866 0 0 -1.02096 191.44 56.465)"/></g><g style="fill:#fee800;fill-opacity:1"><path d="m0 0-1.458-4.829q-.122-.413-.122-.545 0-.072.063-.139a.2.2 0 0 1 .136-.062.37.37 0 0 1 .243.102q.32.25.768.908l.243-.136q-1.075-1.785-2.287-1.785-.463 0-.737.248a.81.81 0 0 0-.274.628q.001.25.121.638l.99 3.247q.143.467.143.705 0 .148-.136.267a.56.56 0 0 1-.369.113q-.109 0-.258-.004l.092.271L-.425 0z" style="fill:#fee800;fill-opacity:1;stroke:none" transform="matrix(.97866 0 0 -1.02096 191.87 59.652)"/></g><g style="fill:#fee800;fill-opacity:1"><path d="m0 0-.311-2.098h-.265q-.056.813-.523 1.282-.466.469-1.001.468a.8.8 0 0 1-.54-.183.56.56 0 0 1-.214-.44q-.002-.218.093-.408.091-.191.413-.517 1.123-1.155 1.366-1.588a1.87 1.87 0 0 0 .243-.93q0-.539-.285-1.015a2.04 2.04 0 0 0-.853-.77 2.56 2.56 0 0 0-1.176-.287q-.414 0-1.019.155a2.5 2.5 0 0 1-.598.109.6.6 0 0 1-.279-.051.7.7 0 0 1-.221-.213h-.263l.35 2.262h.226q.252-.822.467-1.173.217-.347.581-.556.363-.207.697-.206a.92.92 0 0 1 .65.234q.255.234.255.558 0 .32-.168.619-.167.3-.771.93-.834.863-1.099 1.333a1.6 1.6 0 0 0-.184.774q0 .731.559 1.222.56.49 1.57.489.444 0 1.082-.151.322-.073.513-.074.279 0 .45.225z" style="fill:#fee800;fill-opacity:1;stroke:none" transform="matrix(.97866 0 0 -1.02096 197.509 59.652)"/></g><g style="fill:#fee800;fill-opacity:1"><path d="m0 0-1.381-4.516-.143-.551a1 1 0 0 1-.022-.149q.001-.083.061-.144.063-.06.124-.06.15 0 .413.218.109.088.513.623l.25-.122q-.507-.88-1.079-1.287a2.1 2.1 0 0 0-1.235-.403q-.408 0-.62.199a.67.67 0 0 0-.213.508q0 .264.228.983l.17.552q-.827-1.353-1.587-1.915a1.55 1.55 0 0 0-.941-.327q-.656.001-.948.512a2.3 2.3 0 0 0-.292 1.159q0 .957.613 2.195.613 1.24 1.609 1.994.82.626 1.539.626.398 0 .641-.22.242-.223.355-.807l.258.837z" style="fill:#fee800;fill-opacity:1;stroke:none" transform="matrix(.97866 0 0 -1.02096 208.25 59.749)"/></g><g style="fill:#fff;fill-opacity:1"><path d="M0 0q0 .55-.18.795a.41.41 0 0 1-.347.17q-.222 0-.457-.204-.478-.42-1.029-1.709-.55-1.286-.551-2.223 0-.36.124-.519t.274-.16q.32 0 .649.352.47.504.846 1.231Q-.001-.99 0 0" style="fill:green;fill-opacity:1;stroke:none" transform="matrix(.97866 0 0 -1.02096 206.02 61.067)"/></g><g style="fill:#fee800;fill-opacity:1"><path d="m0 0 .528-4.768Q1.603-3.757 1.93-3.169q.328.588.328.98 0 .15-.072.3-.07.15-.285.414c-.141.177-.224.288-.24.334a.8.8 0 0 0-.052.311q0 .347.251.589.248.24.627.241.375 0 .598-.246.313-.351.313-.813 0-.754-.756-1.978-.755-1.22-3.446-3.449h-.285l-.442 4.17-3.075-4.17h-.307q.107 1.889.107 3.53 0 1.076-.121 1.549a.76.76 0 0 1-.253.422.63.63 0 0 1-.396.143q-.114 0-.292-.027v.25l2.45.619q.201-.531.27-.999.121-.72.121-1.676 0-.341-.028-1.034L-.299 0z" style="fill:#fee800;fill-opacity:1;stroke:none" transform="matrix(.97866 0 0 -1.02096 218.348 59.652)"/></g><g style="fill:#fee800;fill-opacity:1"><path d="m0 0-1.381-4.516-.143-.551a1 1 0 0 1-.022-.149q.001-.083.061-.144.061-.06.124-.06.15 0 .413.218.109.088.513.623l.25-.122q-.507-.88-1.079-1.287a2.1 2.1 0 0 0-1.235-.403q-.408 0-.62.199a.67.67 0 0 0-.214.508q-.001.264.229.983l.17.552q-.827-1.353-1.587-1.915a1.56 1.56 0 0 0-.941-.327q-.657.001-.948.512a2.3 2.3 0 0 0-.292 1.159q0 .957.612 2.195.614 1.24 1.61 1.994.82.626 1.539.626.398 0 .641-.22.242-.223.355-.807l.258.837z" style="fill:#fee800;fill-opacity:1;stroke:none" transform="matrix(.97866 0 0 -1.02096 228.566 59.749)"/></g><g style="fill:#fff;fill-opacity:1"><path d="M0 0q0 .55-.18.795a.41.41 0 0 1-.348.17q-.221 0-.457-.204-.477-.42-1.028-1.709-.551-1.286-.552-2.223 0-.36.124-.519.125-.16.275-.16.32 0 .649.352c.311.336.596.746.846 1.231Q-.001-.99 0 0" style="fill:green;fill-opacity:1;stroke:none" transform="matrix(.97866 0 0 -1.02096 226.337 61.067)"/></g><g style="fill:#fee800;fill-opacity:1"><path d="m0 0 2.195.612a2.2 2.2 0 0 0 .37-.591q.192-.483.27-1.331.15-1.671.206-3.565.764.956 1.745 2.531.3.477.3.897 0 .266-.346.503-.346.239-.43.371a.6.6 0 0 0-.085.343q-.001.338.26.589.257.254.63.253.391 0 .68-.285a.92.92 0 0 0 .287-.673q.002-.454-.268-1.057-.265-.6-1.249-2.06Q3.307-5.33 2.096-6.697q-.778-.87-1.255-1.252a4.4 4.4 0 0 0-.989-.607 1.6 1.6 0 0 0-.606-.13.98.98 0 0 0-.694.271.86.86 0 0 0-.288.647q0 .373.258.63a.84.84 0 0 0 .61.258q.435 0 .797-.434.242-.292.399-.292.165 0 .321.088.216.109.598.503.044.848.044 1.282 0 .586-.058 1.644L1.111-1.5Q1.048-.787.793-.475a.66.66 0 0 1-.521.232Q.149-.243 0-.264z" style="fill:#fee800;fill-opacity:1;stroke:none" transform="matrix(.97866 0 0 -1.02096 229.227 60.277)"/></g><g style="fill:#fee800;fill-opacity:1"><path d="M0 0q.56 0 1.058-.248a1.74 1.74 0 0 0 .746-.689q.254-.442.252-.978.001-1.101-.644-2.202A4.85 4.85 0 0 0-.284-5.851q-1.058-.636-2.125-.635-.967 0-1.498.549a1.87 1.87 0 0 0-.532 1.345q.002.944.396 1.771A5.08 5.08 0 0 0-1.638-.385 3.7 3.7 0 0 0 0 0" style="fill:#fee800;fill-opacity:1;stroke:none" transform="matrix(.97866 0 0 -1.02096 243.55 59.652)"/></g><g style="fill:#fff;fill-opacity:1"><path d="M0 0a.94.94 0 0 1-.627-.211q-.499-.428-1.126-2.001-.627-1.571-.627-2.835 0-.312.199-.517a.65.65 0 0 1 .469-.204.8.8 0 0 1 .494.165q.313.244.768 1.096a9.4 9.4 0 0 1 .749 1.88q.292 1.03.292 1.885 0 .353-.18.547A.54.54 0 0 1 0 0" style="fill:green;fill-opacity:1;stroke:none" transform="matrix(.97866 0 0 -1.02096 243.265 60.019)"/></g><g style="fill:#fee800;fill-opacity:1"><path d="m0 0-.831-3.137q-.587-2.221-1.141-3.22-.556-.999-1.3-1.476-.743-.48-1.706-.48-.606 0-.89.22-.285.222-.285.519 0 .28.236.483.233.204.62.204.32 0 .491-.156a.51.51 0 0 0 .17-.394q0-.216-.107-.322-.106-.105-.107-.139l.037-.049a.16.16 0 0 1 .099-.033q.213 0 .362.128.38.32.565.774.127.313.491 1.651L-1.843 0h-.991l.236.795q.532-.007.775.127.244.138.513.612.785 1.38 1.653 1.978a3.34 3.34 0 0 0 1.937.595q.683 0 .994-.25a.8.8 0 0 0 .309-.651q0-.353-.207-.561a.7.7 0 0 0-.512-.206.66.66 0 0 0-.47.169.53.53 0 0 0-.184.408.7.7 0 0 0 .117.359q.116.192.116.257a.15.15 0 0 1-.053.123.2.2 0 0 1-.139.049q-.42-.001-.861-.496Q.662 2.512.221.795h1.034L1.004 0z" style="fill:#fee800;fill-opacity:1;stroke:none" transform="matrix(.97866 0 0 -1.02096 249.73 60.658)"/></g><g style="fill:#fee800;fill-opacity:1"><path d="m0 0-2.356-7.645q-.207-.68-.206-.851-.001-.087.061-.148a.17.17 0 0 1 .131-.06q.127-.001.241.095.343.265.763.895l.277-.121q-.676-1.032-1.332-1.475a1.7 1.7 0 0 0-.953-.299q-.471.001-.749.242a.74.74 0 0 0-.277.579q0 .253.17.809l1.923 6.261q.157.518.158.687 0 .162-.151.259-.2.136-.605.114l.078.259L-.426 0zm2.716 0q.44 0 .743-.29a.95.95 0 0 0 .302-.707.94.94 0 0 0-.307-.707 1.03 1.03 0 0 0-.738-.292q-.43 0-.735.292a.94.94 0 0 0-.306.707q0 .415.302.707.303.29.739.29m.44-3.122L1.697-7.951q-.121-.413-.122-.545 0-.073.063-.139a.2.2 0 0 1 .137-.063q.12-.001.243.103.318.25.768.908l.243-.136Q1.952-9.608.741-9.609q-.463 0-.736.249a.8.8 0 0 0-.275.628q.001.251.121.637l.99 3.248q.143.467.143.704 0 .15-.136.267a.55.55 0 0 1-.369.114q-.109 0-.258-.005l.092.272 2.417.373zm4.151-.985-.831-3.137q-.587-2.222-1.141-3.22-.556-.999-1.3-1.477-.743-.479-1.706-.479-.605 0-.89.22-.284.221-.284.519-.001.28.236.482.232.205.619.204.321 0 .492-.155a.51.51 0 0 0 .17-.394q-.001-.217-.107-.322-.107-.104-.107-.14l.036-.048a.16.16 0 0 1 .1-.033q.211 0 .362.128.379.319.564.774.127.313.491 1.651l1.454 5.427h-.992l.236.795q.533-.008.775.127c.163.093.334.294.513.612q.785 1.38 1.653 1.977A3.34 3.34 0 0 0 9.587 0q.683 0 .995-.25a.8.8 0 0 0 .308-.652q0-.352-.206-.561a.7.7 0 0 0-.513-.206.66.66 0 0 0-.469.169.53.53 0 0 0-.185.408q0 .17.117.36.116.19.116.257 0 .075-.053.123a.2.2 0 0 1-.139.048q-.419-.001-.86-.496-.728-.795-1.17-2.512h1.034l-.251-.795zm3.321-2.764a5 5 0 0 1-.066-.728c0-.338.104-.612.311-.813q.31-.306.829-.306.499 0 1.002.229.5.232 1.164.809l.212-.183q-.818-.946-1.595-1.344a3.7 3.7 0 0 0-1.716-.402q-1.19 0-1.646.543a1.9 1.9 0 0 0-.455 1.256q0 1.116.681 2.228a5.1 5.1 0 0 0 1.85 1.787q1.173.672 2.355.673.599 0 .905-.272a.88.88 0 0 0 .306-.686q0-.498-.299-.964a3.3 3.3 0 0 0-1.04-1.029 5 5 0 0 0-1.403-.594q-.521-.139-1.395-.204m.063.352q.627.089.972.242.344.152.676.489.332.338.573.848.243.514.244.962a.4.4 0 0 1-.112.3.4.4 0 0 1-.282.106q-.34 0-.768-.454-.785-.829-1.303-2.493" style="fill:#fee800;fill-opacity:1;fill-rule:nonzero;stroke:none" transform="matrix(.97866 0 0 -1.02096 258.924 56.463)"/></g><g style="fill:#fee800;fill-opacity:1"><path d="m0 0-2.356-7.645q-.207-.68-.206-.851-.001-.087.061-.148a.17.17 0 0 1 .131-.06q.127-.001.241.095.343.265.763.895l.277-.121q-.676-1.032-1.332-1.475a1.7 1.7 0 0 0-.953-.299q-.471.001-.749.242a.74.74 0 0 0-.277.579q0 .253.17.809l1.923 6.261q.157.518.158.687 0 .162-.151.259-.2.136-.605.114l.078.259L-.426 0z" style="fill:#fee800;fill-opacity:1;stroke:none" transform="matrix(.97866 0 0 -1.02096 258.924 56.463)"/></g><g style="fill:#fee800;fill-opacity:1"><path d="M0 0q.441 0 .743-.29a.94.94 0 0 0 .302-.707.94.94 0 0 0-.306-.707A1.04 1.04 0 0 0 0-1.996q-.43 0-.734.292a.94.94 0 0 0-.306.707q-.001.415.301.707Q-.436 0 0 0" style="fill:#fee800;fill-opacity:1;stroke:none" transform="matrix(.97866 0 0 -1.02096 261.582 56.463)"/></g><g style="fill:#fee800;fill-opacity:1"><path d="m0 0-1.458-4.829q-.122-.413-.122-.545.001-.072.062-.139.065-.062.137-.062.12-.002.243.102.318.25.768.908l.244-.136q-1.077-1.785-2.288-1.785-.464 0-.737.248a.81.81 0 0 0-.274.628q0 .25.121.638l.989 3.247q.143.467.144.705 0 .148-.136.267a.56.56 0 0 1-.37.113q-.109 0-.258-.004l.093.271L-.426 0z" style="fill:#fee800;fill-opacity:1;stroke:none" transform="matrix(.97866 0 0 -1.02096 262.013 59.65)"/></g><g style="fill:#fee800;fill-opacity:1"><path d="m0 0-.831-3.137q-.587-2.221-1.141-3.22-.556-.999-1.3-1.476-.743-.48-1.706-.48-.606 0-.89.22-.285.222-.285.519 0 .28.236.483.233.204.62.204.32 0 .492-.156a.51.51 0 0 0 .17-.394q0-.216-.108-.322-.106-.105-.106-.139l.036-.049a.16.16 0 0 1 .1-.033q.211 0 .362.128.379.32.564.774.127.313.491 1.651L-1.843 0h-.991l.236.795q.532-.007.775.127.244.138.513.612.784 1.38 1.653 1.978a3.34 3.34 0 0 0 1.937.595q.683 0 .995-.25a.8.8 0 0 0 .308-.651q0-.353-.206-.561a.7.7 0 0 0-.513-.206.66.66 0 0 0-.469.169.53.53 0 0 0-.185.408.7.7 0 0 0 .117.359q.116.192.116.257a.15.15 0 0 1-.053.123.2.2 0 0 1-.139.049q-.42-.001-.86-.496Q.663 2.512.221.795h1.034L1.004 0z" style="fill:#fee800;fill-opacity:1;stroke:none" transform="matrix(.97866 0 0 -1.02096 266.076 60.656)"/></g><g style="fill:#fee800;fill-opacity:1"><path d="M0 0a5 5 0 0 1-.066-.728c0-.338.104-.612.311-.813q.31-.307.829-.306.499 0 1.002.229.5.232 1.164.809l.212-.183q-.818-.945-1.595-1.345a3.7 3.7 0 0 0-1.716-.401q-1.19 0-1.646.543A1.9 1.9 0 0 0-1.96-.939q0 1.116.681 2.228a5.1 5.1 0 0 0 1.85 1.787q1.173.672 2.355.673.599 0 .905-.272a.88.88 0 0 0 .306-.686q0-.498-.299-.964a3.3 3.3 0 0 0-1.04-1.03A5 5 0 0 0 1.395.204Q.874.065 0 0" style="fill:#fee800;fill-opacity:1;stroke:none" transform="matrix(.97866 0 0 -1.02096 269.326 63.477)"/></g><g style="fill:#fff;fill-opacity:1"><path d="M0 0q.627.088.972.241.344.152.676.489t.574.849q.242.514.243.962a.4.4 0 0 1-.112.299.4.4 0 0 1-.282.107q-.34 0-.768-.455Q.518 1.664 0 0" style="fill:green;fill-opacity:1;stroke:none" transform="matrix(.97866 0 0 -1.02096 269.388 63.117)"/></g><path d="M0 0v9.976c0 .586-.098.978-.391 1.173-.196.196-.783.391-1.663.391v.489h7.531q3.08 0 4.694-.88c.978-.684 1.565-1.662 1.565-2.836 0-1.369-.587-2.445-1.76-3.032-1.076-.684-2.935-.978-5.379-.978h-.783V0c0-.587.196-.978.391-1.174.294-.195.881-.391 1.761-.391v-.489h-8.02v.489c.88 0 1.467.196 1.663.391C-.098-.978 0-.587 0 0m3.814 4.988h.391c1.272 0 2.152.195 2.739.684.489.587.782 1.37.782 2.641 0 1.076-.195 1.858-.685 2.347-.391.489-1.075.685-1.955.685-.489 0-.783-.098-.978-.196q-.294-.293-.294-.88zM16.822 7.53V.782q0-1.026.293-1.467c.098-.195.489-.391.978-.391.391 0 .88.196 1.272.391.293.196.489.392.684.587v5.575q0 .88-.293 1.173c-.196.294-.587.392-1.174.392v.488h4.792V0c0-.489 0-.782.196-.88.196-.196.587-.294 1.076-.294v-.489a45 45 0 0 1-2.25-.293c-.684-.098-1.467-.196-2.347-.391v1.369c-.293-.293-.587-.489-.978-.783q-1.174-.586-2.347-.586c-1.076 0-1.858.195-2.347.684-.587.587-.88 1.272-.88 2.25v4.89c0 .587-.098 1.076-.196 1.271q-.294.294-.88.294v.488zM26.895 0v5.477c0 .587-.098 1.076-.293 1.271-.098.196-.489.294-.978.294v.488h4.499V5.966c.195.391.586.782.978 1.076a4.06 4.06 0 0 0 2.445.782c.88 0 1.662-.294 2.249-.88q.88-.734.88-2.054V0c0-.587.098-1.076.196-1.271.196-.196.489-.294.978-.294v-.489h-5.672v.489c.489 0 .88.098.978.294.195.195.293.684.293 1.271v4.303c0 .783-.098 1.369-.293 1.663-.196.293-.587.391-1.076.391-.391 0-.783-.098-1.174-.391-.293-.196-.587-.489-.782-.685V0c0-.587.097-1.076.293-1.271.098-.196.489-.294.978-.294v-.489h-5.77v.489c.489 0 .88.098.978.294.195.195.293.684.293 1.271m14.182 5.77c0 .489-.098.88-.294.978-.098.196-.587.294-1.174.294v.488h4.793v-9.291c0-1.564-.392-2.738-1.076-3.52-.685-.685-1.76-1.076-3.326-1.076-.88 0-1.662.196-2.249.587s-.88.978-.88 1.565c0 .293.196.586.489.88.293.195.587.391.978.391.587 0 1.076-.294 1.271-.685.196-.391.098-.782-.195-1.271-.196-.293-.294-.489-.196-.587.098-.195.391-.195.782-.195.392 0 .685.097.881.391.098.195.196.684.196 1.173zm1.564 6.553c.489 0 .978-.098 1.272-.391q.586-.588.586-1.174 0-.734-.586-1.173c-.294-.294-.783-.489-1.272-.489s-.978.195-1.271.489a1.4 1.4 0 0 0-.587 1.173q0 .586.587 1.174c.293.293.782.391 1.271.391m6.651-14.67c-.783 0-1.37.195-1.859.586-.488.49-.782.979-.782 1.663 0 .685.391 1.272.978 1.858.685.489 1.76.978 3.13 1.369l2.249.588v1.564c0 .685-.195 1.174-.489 1.467-.293.294-.782.391-1.565.391-.489 0-.978-.097-1.173-.391-.294-.293-.294-.489 0-.782.489-.489.587-.978.391-1.467-.294-.489-.783-.685-1.467-.685q-.733 0-1.174.294c-.293.293-.391.586-.391 1.075 0 .783.391 1.37 1.271 1.859.783.488 1.859.782 3.13.782 1.467 0 2.641-.294 3.521-.782.782-.489 1.174-1.272 1.174-2.25V-.391c0-.294.097-.391.097-.489.098-.098.196-.196.392-.196.097 0 .195 0 .293.098l.196.196.391-.392a2.7 2.7 0 0 0-1.174-.88c-.489-.196-.978-.391-1.369-.391-.685 0-1.272.195-1.565.587a1.9 1.9 0 0 0-.489.88c-.391-.391-.88-.685-1.271-.88-.783-.392-1.663-.489-2.445-.489M53.008 0v3.032l-.293-.098c-.88-.196-1.565-.587-1.956-.978-.489-.391-.685-.88-.685-1.467 0-.391.098-.782.294-1.076q.293-.293.88-.293c.587 0 .684 0 .978.195.195.196.489.392.782.685m6.553 9.976c0 .586-.098 1.075-.196 1.271-.196.196-.489.293-1.076.293v.489h4.597V6.65c.88.783 1.76 1.174 2.836 1.174 1.272 0 2.347-.489 3.228-1.369.782-.88 1.271-2.054 1.271-3.423 0-1.663-.489-2.934-1.467-3.912s-2.347-1.467-3.912-1.467c-1.076 0-1.956.293-2.934.978l-.196.195-1.858-1.173h-.293zm4.89-11.737c.782 0 1.369.392 1.76 1.076.294.685.489 1.859.489 3.423 0 1.37-.195 2.445-.489 3.032q-.587.88-1.76.88c-.587 0-1.174-.391-1.565-1.173V0c0-.293.098-.587.196-.88a1 1 0 0 1 .489-.587q.44-.294.88-.294M81.762 9.096c0 .977.489 1.76 1.271 2.347.88.586 1.956.978 3.325.978 1.174 0 2.152-.294 2.934-.783.685-.489 1.076-1.076 1.076-1.858s-.489-1.467-1.565-2.152q-.88-.586-2.054-.88l2.152-2.836 1.467-1.761c.391.489.685.881.978 1.272.196.294.294.489.489.782.293.587.391 1.076.196 1.467-.196.294-.685.489-1.467.489v.587h4.89v-.587c-.587 0-1.076-.097-1.369-.293-.294-.293-.587-.685-.979-1.271-.293-.489-.586-.978-.978-1.37a9.8 9.8 0 0 0-1.271-1.564l.587-.685A4.6 4.6 0 0 1 92.52 0c.391-.196.684-.293 1.076-.293.293 0 .489.097.782.195.293.196.489.391.685.587l.391-.196c-.489-.978-1.076-1.662-1.663-2.054-.587-.489-1.369-.684-2.249-.684-.489 0-.978.195-1.565.391-.489.293-.978.587-1.369.978l-.294.489c-.782-.489-1.467-.88-2.151-1.174-1.076-.489-2.152-.684-3.326-.684-1.271 0-2.347.391-3.227 1.076-.783.684-1.272 1.565-1.272 2.64q0 1.614 1.468 2.934c.684.587 1.76 1.174 3.227 1.859-.293.391-.489.782-.685 1.173-.391.783-.586 1.37-.586 1.859M85.478-.88c.489 0 .978.195 1.565.489l.684.391-1.564 1.858c-.685.88-1.467 1.859-2.348 3.032l-.391.489c-.391-.196-.782-.391-.978-.587-.489-.391-.782-.88-.782-1.467 0-.978.391-1.956 1.173-2.836C83.62-.391 84.5-.88 85.478-.88M84.5 10.367c0-.294.196-.782.489-1.369a8.4 8.4 0 0 1 1.271-1.663c.294.098.587.195.783.391.587.294.978.783.978 1.272 0 .782-.294 1.369-.685 1.858a1.73 1.73 0 0 1-1.467.782c-.489 0-.782-.098-.978-.293-.293-.294-.391-.587-.391-.978m28.754-2.543c-.391 1.174-.979 2.152-1.761 2.836-.782.685-1.76 1.076-2.738 1.076-.782 0-1.467-.196-1.956-.587s-.685-.88-.685-1.467c0-.586.196-1.075.782-1.467.489-.489 1.37-.88 2.641-1.369 1.858-.685 3.13-1.467 3.912-2.152q1.174-1.173 1.174-2.64c0-1.369-.587-2.543-1.663-3.325-.978-.783-2.445-1.272-4.205-1.272-.978 0-2.152.293-3.423.685-.391.097-.685.097-.783.097a1 1 0 0 1-.489-.586v-.196h-.782V2.64h.685q.44-1.907 1.76-3.227c.88-.782 1.956-1.174 3.13-1.174.88 0 1.564.196 2.151.587.489.489.782 1.076.782 1.761 0 .587-.195 1.076-.782 1.564-.489.392-1.467.881-2.836 1.37q-2.494 1.026-3.521 2.054-1.173 1.173-1.173 2.64c0 1.272.489 2.347 1.467 3.032q1.32 1.174 3.814 1.174c.782 0 1.76-.196 2.836-.587.489-.196.782-.196 1.076-.196.196.098.391.294.489.587l.098.196h.684V7.824zM117.263 0v5.477c0 .587-.098 1.076-.293 1.271-.098.196-.489.294-.978.294v.488h4.499V0c0-.587.098-1.076.293-1.271.098-.196.489-.294.978-.294v-.489h-5.77v.489c.489 0 .88.098.978.294.195.195.293.684.293 1.271m1.565 12.323c.587 0 .978-.098 1.369-.391.294-.392.489-.783.489-1.174 0-.489-.195-.88-.489-1.173-.391-.294-.782-.489-1.369-.489-.489 0-.88.195-1.271.489-.392.293-.489.684-.489 1.173 0 .391.097.782.489 1.174.391.293.782.391 1.271.391M123.914 0v5.477c0 .587-.098 1.076-.293 1.271-.098.196-.489.294-.978.294v.488h4.498V5.966c.294.391.587.782.978 1.076a4.06 4.06 0 0 0 2.445.782c.88 0 1.663-.294 2.25-.88q.88-.734.88-2.054V0c0-.587.098-1.076.293-1.271q.147-.294.881-.294v-.489h-5.673v.489c.489 0 .88.098.978.294.196.195.294.684.294 1.271v4.303c0 .783-.098 1.369-.294 1.663-.195.293-.587.391-1.076.391a1.88 1.88 0 0 1-1.173-.391c-.294-.196-.587-.489-.783-.685V0c0-.587.098-1.076.294-1.271.098-.196.489-.294.978-.294v-.489h-5.77v.489c.489 0 .88.098.978.294.195.195.293.684.293 1.271m16.137-2.347c-1.271 0-2.249.391-3.032 1.369-.782.88-1.173 2.152-1.173 3.618 0 1.468.488 2.739 1.369 3.717q1.32 1.467 3.227 1.467c.783 0 1.467-.294 2.152-.782.293-.098.489-.294.587-.489v3.423q0 .88-.294 1.173c-.195.294-.684.391-1.369.391v.489h4.988V0q0-.733.293-.88c.098-.196.489-.294 1.076-.294v-.489a77 77 0 0 1-2.347-.293 39 39 0 0 1-2.347-.391v1.271a1.2 1.2 0 0 0-.489-.489c-.783-.587-1.663-.782-2.641-.782m1.369 8.997c-.684 0-1.271-.293-1.565-.978-.391-.586-.489-1.662-.489-3.032 0-1.369.098-2.347.392-2.933.391-.685.88-.978 1.467-.978s1.076.293 1.467.684c.195.196.391.489.489.685v5.379a1.84 1.84 0 0 1-.587.684c-.391.294-.782.489-1.174.489M156.775 0v9.976c0 .586-.195.978-.391 1.173-.293.196-.881.391-1.663.391v.489h7.335c1.956 0 3.521-.195 4.499-.782 1.076-.587 1.565-1.369 1.565-2.445s-.587-1.956-1.761-2.543c-.586-.293-1.271-.587-2.151-.684 1.076-.196 1.956-.489 2.738-.881 1.272-.586 1.956-1.565 1.956-2.738q0-1.761-1.76-2.934c-1.173-.783-2.739-1.076-4.597-1.076h-7.824v.489c.782 0 1.37.196 1.663.391.196.196.391.587.391 1.174m3.814 10.367V5.672h.392c1.173 0 2.053.294 2.542.685.489.489.685 1.271.685 2.347 0 .881-.196 1.663-.587 2.054-.391.489-.978.685-1.858.685-.391 0-.782-.098-.978-.294-.098-.098-.196-.391-.196-.782m0-5.281V-.196q0-.586.294-.88c.195-.195.587-.293 1.076-.293h.097c.978 0 1.663.195 2.054.782.489.587.685 1.369.685 2.543q0 1.614-.881 2.347c-.684.489-1.662.783-2.933.783zm12.617-7.433c-.783 0-1.37.195-1.858.586-.489.49-.685.979-.685 1.663 0 .685.293 1.272.978 1.858.587.489 1.662.978 3.031 1.369l2.25.588v1.564c0 .685-.098 1.174-.489 1.467-.293.294-.782.391-1.467.391-.587 0-.978-.097-1.271-.391-.294-.293-.294-.489 0-.782.489-.489.684-.978.391-1.467-.196-.489-.783-.685-1.467-.685q-.733 0-1.174.294c-.195.293-.391.586-.391 1.075 0 .783.489 1.37 1.271 1.859.783.488 1.859.782 3.13.782 1.565 0 2.738-.294 3.521-.782s1.174-1.272 1.174-2.25V-.391c0-.294.097-.391.195-.489 0-.098.196-.196.294-.196s.195 0 .293.098c.098 0 .196.098.293.196l.294-.392a2.7 2.7 0 0 0-1.174-.88c-.489-.196-.978-.391-1.369-.391-.685 0-1.272.195-1.565.587-.196.195-.391.489-.391.88-.489-.391-.88-.685-1.369-.88-.783-.392-1.565-.489-2.445-.489M176.922 0v3.032l-.293-.098c-.88-.196-1.565-.587-1.957-.978-.488-.391-.684-.88-.684-1.467 0-.391.098-.782.293-1.076q.44-.293.881-.293c.391 0 .684 0 .978.195.195.196.489.392.782.685m6.65 0v5.477c0 .587-.097 1.076-.195 1.271-.196.196-.489.294-1.076.294v.488h4.499V5.966c.293.391.587.782.978 1.076.782.488 1.565.782 2.445.782.978 0 1.663-.294 2.249-.88.685-.489.978-1.174.978-2.054V0c0-.587 0-1.076.196-1.271q.147-.294.88-.294v-.489h-5.672v.489c.587 0 .88.098 1.076.294.097.195.195.684.195 1.271v4.303c0 .783-.098 1.369-.293 1.663-.196.293-.489.391-1.076.391-.391 0-.782-.098-1.174-.391-.293-.196-.489-.489-.684-.685V0c0-.587 0-1.076.195-1.271.196-.196.489-.294.978-.294v-.489h-5.77v.489c.587 0 .88.098 1.076.294.098.195.195.684.195 1.271m13.008 0v9.976c0 .586-.098 1.075-.196 1.271-.097.196-.488.293-.88.293v.489h4.401V3.032l1.761 1.565c1.075.978 1.662 1.564 1.76 1.956 0 .293-.489.489-1.467.489v.488h5.086v-.488q-.88 0-1.467-.294c-.391-.195-.978-.684-1.76-1.271l-1.272-1.174L206.067 0a9.3 9.3 0 0 1 1.076-1.271c.293-.196.488-.294.684-.294v-.489h-5.575v.489q.88 0 .881.294c0 .195-.196.684-.685 1.271l-2.054 2.543-.489-.489V0c0-.587.098-1.076.196-1.271.196-.196.489-.294.978-.294v-.489h-5.575v.489c.392 0 .783.098.88.294.098.195.196.684.196 1.271" style="fill:#fee800;fill-opacity:1;fill-rule:evenodd;stroke:none" transform="matrix(1.25 0 0 -1.25 57.964 27.939)"/><path d="M0 0v9.976c0 .586-.098.978-.391 1.173-.196.196-.783.391-1.663.391v.489h7.531q3.08 0 4.694-.88c.978-.684 1.565-1.662 1.565-2.836 0-1.369-.587-2.445-1.76-3.032-1.076-.684-2.935-.978-5.379-.978h-.783V0c0-.587.196-.978.391-1.174.294-.195.881-.391 1.761-.391v-.489h-8.02v.489c.88 0 1.467.196 1.663.391C-.098-.978 0-.587 0 0" style="fill:none;stroke:none" transform="matrix(1.25 0 0 -1.25 57.964 27.939)"/><path d="M0 0h.391c1.271 0 2.152.196 2.738.685.49.586.783 1.369.783 2.64 0 1.076-.196 1.858-.685 2.347-.391.489-1.076.685-1.956.685-.489 0-.782-.098-.978-.196Q0 5.868 0 5.281z" style="fill:none;stroke:none" transform="matrix(1.25 0 0 -1.25 62.731 21.704)"/><path d="M0 0v-6.748q0-1.027.294-1.467c.097-.196.489-.391.978-.391.391 0 .88.195 1.271.391.293.196.489.391.685.587v5.574q0 .88-.294 1.174c-.195.293-.587.391-1.173.391V0h4.792v-7.53c0-.489 0-.783.195-.881.196-.195.587-.293 1.076-.293v-.489a45 45 0 0 1-2.249-.294c-.685-.097-1.467-.195-2.347-.391v1.37c-.294-.294-.587-.49-.978-.783q-1.174-.587-2.348-.587c-1.076 0-1.858.196-2.347.685-.587.587-.88 1.271-.88 2.249v4.89c0 .587-.098 1.076-.196 1.272q-.293.293-.88.293V0z" style="fill:none;stroke:none" transform="matrix(1.25 0 0 -1.25 78.99 18.525)"/><path d="M0 0v5.477c0 .587-.098 1.076-.293 1.271-.098.196-.49.294-.979.294v.488h4.499V5.966c.196.391.587.782.978 1.076a4.06 4.06 0 0 0 2.445.782c.881 0 1.663-.294 2.25-.88q.88-.734.88-2.054V0c0-.587.098-1.076.196-1.271.195-.196.489-.294.978-.294v-.489H5.281v.489c.489 0 .88.098.978.294.196.195.294.684.294 1.271v4.303c0 .783-.098 1.369-.294 1.663-.195.293-.587.391-1.076.391a1.88 1.88 0 0 1-1.173-.391c-.294-.196-.587-.489-.783-.685V0c0-.587.098-1.076.294-1.271.097-.196.489-.294.978-.294v-.489h-5.771v.489c.489 0 .881.098.979.294C-.098-1.076 0-.587 0 0" style="fill:none;stroke:none" transform="matrix(1.25 0 0 -1.25 91.583 27.937)"/><path d="M0 0c0 .489-.098.88-.293.978-.099.195-.587.293-1.174.293v.489h4.792v-9.291c0-1.565-.391-2.738-1.076-3.52-.684-.685-1.76-1.077-3.325-1.077-.88 0-1.663.196-2.249.588s-.881.978-.881 1.564c0 .294.196.587.49.88.293.196.586.392.977.392.587 0 1.076-.294 1.272-.685s.097-.782-.196-1.271c-.196-.294-.293-.489-.196-.587.098-.196.392-.196.783-.196s.684.098.88.392c.098.195.196.684.196 1.173z" style="fill:none;stroke:none" transform="matrix(1.25 0 0 -1.25 109.309 20.725)"/><path d="M0 0c.489 0 .978-.098 1.271-.391q.587-.586.587-1.174 0-.733-.587-1.173C.978-3.032.489-3.227 0-3.227s-.978.195-1.271.489a1.39 1.39 0 0 0-.587 1.173q0 .588.587 1.174C-.978-.098-.489 0 0 0" style="fill:none;stroke:none" transform="matrix(1.25 0 0 -1.25 111.265 12.534)"/><path d="M0 0c-.782 0-1.369.196-1.858.587-.489.489-.783.978-.783 1.663 0 .684.392 1.271.978 1.858.685.489 1.761.978 3.13 1.369l2.249.587v1.565c0 .684-.195 1.173-.489 1.466-.293.294-.782.392-1.564.392-.489 0-.979-.098-1.174-.392-.293-.293-.293-.488 0-.782.489-.489.587-.978.391-1.467-.293-.489-.782-.684-1.467-.684q-.733 0-1.173.293c-.294.293-.392.587-.392 1.076 0 .782.392 1.369 1.272 1.858.782.489 1.858.782 3.13.782 1.466 0 2.64-.293 3.52-.782.783-.489 1.174-1.271 1.174-2.249V1.956c0-.293.098-.391.098-.489.098-.098.195-.195.391-.195.098 0 .196 0 .293.097l.196.196.391-.391A2.66 2.66 0 0 0 7.14.293c-.489-.195-.978-.391-1.37-.391-.684 0-1.271.196-1.565.587a1.9 1.9 0 0 0-.489.88c-.391-.391-.88-.684-1.271-.88C1.663.098.782 0 0 0" style="fill:none;stroke:none" transform="matrix(1.25 0 0 -1.25 119.578 30.871)"/><path d="M0 0v3.032l-.293-.098c-.88-.196-1.565-.587-1.956-.978-.49-.391-.685-.88-.685-1.467 0-.391.098-.782.294-1.076q.293-.293.88-.293c.587 0 .684 0 .978.195.195.196.489.392.782.685" style="fill:none;stroke:none" transform="matrix(1.25 0 0 -1.25 124.223 27.937)"/><path d="M0 0c0 .587-.098 1.076-.196 1.271-.195.196-.489.294-1.075.294v.489h4.596v-5.379c.88.782 1.761 1.173 2.837 1.173 1.271 0 2.347-.489 3.227-1.369.783-.88 1.272-2.054 1.272-3.423 0-1.663-.489-2.934-1.468-3.912-.978-.978-2.347-1.467-3.911-1.467-1.077 0-1.957.293-2.935.978l-.195.196-1.859-1.174H0z" style="fill:none;stroke:none" transform="matrix(1.25 0 0 -1.25 132.414 15.467)"/><path d="M0 0c.783 0 1.37.391 1.761 1.076.293.685.489 1.858.489 3.423 0 1.369-.196 2.445-.489 3.032q-.586.88-1.761.88c-.587 0-1.173-.391-1.565-1.174V1.761c0-.294.098-.587.196-.881.098-.293.293-.489.489-.587Q-.44 0 0 0" style="fill:none;stroke:none" transform="matrix(1.25 0 0 -1.25 138.526 30.137)"/><path d="M0 0c0 .978.489 1.76 1.271 2.347.881.587 1.957.978 3.326.978 1.173 0 2.151-.293 2.934-.782.684-.489 1.076-1.076 1.076-1.858 0-.783-.489-1.468-1.565-2.152q-.88-.587-2.054-.88L7.14-5.183l1.467-1.761c.391.489.684.88.977 1.271.196.294.294.49.489.783.294.587.392 1.076.196 1.467-.196.293-.685.489-1.467.489v.587h4.89v-.587c-.587 0-1.076-.098-1.369-.294-.293-.293-.587-.684-.978-1.271-.293-.489-.587-.978-.978-1.369a10 10 0 0 0-1.271-1.565l.586-.685a4.6 4.6 0 0 1 1.076-.978c.391-.195.685-.293 1.076-.293.293 0 .489.098.782.196.294.195.489.391.685.586l.391-.195c-.489-.978-1.076-1.663-1.662-2.054-.587-.489-1.37-.685-2.25-.685-.489 0-.978.196-1.565.391-.489.294-.978.587-1.369.979l-.293.489c-.783-.489-1.467-.881-2.152-1.174-1.076-.489-2.151-.685-3.325-.685-1.272 0-2.347.391-3.227 1.076-.783.685-1.272 1.565-1.272 2.641s.489 2.053 1.467 2.934c.685.587 1.76 1.173 3.227 1.858-.293.391-.489.782-.684 1.174C.196-1.076 0-.489 0 0" style="fill:none;stroke:none" transform="matrix(1.25 0 0 -1.25 160.165 16.567)"/><path d="M0 0c.489 0 .978.196 1.565.489l.684.391L.685 2.738C0 3.618-.782 4.597-1.663 5.77l-.391.489c-.391-.195-.782-.391-.978-.587-.489-.391-.782-.88-.782-1.467 0-.978.391-1.956 1.173-2.836C-1.858.489-.978 0 0 0" style="fill:none;stroke:none" transform="matrix(1.25 0 0 -1.25 164.81 29.037)"/><path d="M0 0c0-.293.195-.782.489-1.369A8.4 8.4 0 0 1 1.76-3.032c.294.098.587.196.783.391.586.294.978.783.978 1.272 0 .782-.294 1.369-.685 1.858a1.73 1.73 0 0 1-1.467.782c-.489 0-.782-.097-.978-.293C.098.685 0 .391 0 0" style="fill:none;stroke:none" transform="matrix(1.25 0 0 -1.25 163.588 14.979)"/><path d="M0 0c-.391 1.174-.978 2.152-1.76 2.836-.783.685-1.761 1.076-2.739 1.076-.782 0-1.467-.196-1.956-.587s-.684-.88-.684-1.467c0-.586.195-1.075.782-1.467.489-.489 1.369-.88 2.641-1.369C-1.858-1.663-.587-2.445.196-3.129Q1.369-4.303 1.369-5.77c0-1.369-.587-2.543-1.662-3.325-.978-.783-2.446-1.272-4.206-1.272-.978 0-2.152.294-3.423.685-.391.097-.685.097-.782.097a1 1 0 0 1-.489-.586v-.196h-.783v5.184h.685q.44-1.908 1.76-3.228c.88-.782 1.956-1.174 3.13-1.174.88 0 1.565.196 2.151.588.49.489.783 1.075.783 1.76 0 .587-.196 1.076-.783 1.565-.489.391-1.466.88-2.836 1.369q-2.493 1.027-3.521 2.054Q-9.78-1.076-9.78.391c0 1.272.489 2.348 1.467 3.032q1.32 1.174 3.814 1.174c.783 0 1.76-.196 2.836-.587.489-.196.783-.196 1.076-.196.196.098.391.294.489.587L0 4.597h.685V0z" style="fill:none;stroke:none" transform="matrix(1.25 0 0 -1.25 199.529 18.157)"/><path d="M0 0v5.477c0 .587-.098 1.076-.293 1.271-.098.196-.489.294-.978.294v.488h4.498V0c0-.587.098-1.076.294-1.271.098-.196.489-.294.978-.294v-.489h-5.77v.489c.489 0 .88.098.978.294C-.098-1.076 0-.587 0 0" style="fill:none;stroke:none" transform="matrix(1.25 0 0 -1.25 204.541 27.937)"/><path d="M0 0c.587 0 .978-.098 1.369-.391.293-.391.489-.782.489-1.174 0-.489-.196-.88-.489-1.173C.978-3.032.587-3.227 0-3.227c-.489 0-.88.195-1.271.489-.392.293-.489.684-.489 1.173 0 .392.097.783.489 1.174C-.88-.098-.489 0 0 0" style="fill:none;stroke:none" transform="matrix(1.25 0 0 -1.25 206.498 12.534)"/><path d="M0 0v5.477c0 .587-.098 1.076-.293 1.271-.098.196-.489.294-.978.294v.488h4.499V5.966c.293.391.586.782.977 1.076a4.06 4.06 0 0 0 2.445.782c.88 0 1.663-.294 2.25-.88q.88-.734.88-2.054V0c0-.587.098-1.076.293-1.271q.147-.294.881-.294v-.489H5.281v.489c.489 0 .88.098.978.294.196.195.294.684.294 1.271v4.303c0 .783-.098 1.369-.294 1.663-.195.293-.587.391-1.076.391a1.88 1.88 0 0 1-1.173-.391c-.294-.196-.587-.489-.782-.685V0c0-.587.097-1.076.293-1.271.098-.196.489-.294.978-.294v-.489h-5.77v.489c.489 0 .88.098.978.294C-.098-1.076 0-.587 0 0" style="fill:none;stroke:none" transform="matrix(1.25 0 0 -1.25 212.855 27.937)"/><path d="M0 0c-1.271 0-2.249.391-3.031 1.369-.783.881-1.174 2.152-1.174 3.619s.488 2.738 1.369 3.716q1.32 1.467 3.227 1.467c.783 0 1.467-.293 2.152-.782.293-.098.489-.294.587-.489v3.423q0 .88-.294 1.174c-.195.293-.684.391-1.369.391v.489h4.988V2.347q0-.733.293-.88c.098-.195.489-.293 1.076-.293V.685A77 77 0 0 1 5.477.391C4.792.293 4.108.196 3.13 0v1.272a1.2 1.2 0 0 0-.489-.49C1.858.196.978 0 0 0" style="fill:none;stroke:none" transform="matrix(1.25 0 0 -1.25 233.026 30.871)"/><path d="M0 0c-.685 0-1.272-.293-1.565-.978-.391-.587-.489-1.662-.489-3.032 0-1.369.098-2.347.391-2.934.391-.684.88-.978 1.468-.978.586 0 1.075.294 1.466.685.196.195.392.489.489.684v5.379a1.8 1.8 0 0 1-.586.685C.782-.196.391 0 0 0" style="fill:none;stroke:none" transform="matrix(1.25 0 0 -1.25 234.738 19.624)"/><path d="M0 0v9.976c0 .586-.196.978-.391 1.173-.294.196-.881.391-1.663.391v.489h7.335c1.956 0 3.521-.195 4.499-.782 1.076-.587 1.565-1.369 1.565-2.445s-.587-1.956-1.761-2.543c-.586-.293-1.271-.587-2.151-.684 1.076-.196 1.956-.489 2.738-.881 1.272-.586 1.956-1.565 1.956-2.738q0-1.761-1.76-2.934C9.193-1.761 7.628-2.054 5.77-2.054h-7.824v.489c.782 0 1.369.196 1.663.391C-.196-.978 0-.587 0 0" style="fill:none;stroke:none" transform="matrix(1.25 0 0 -1.25 253.931 27.936)"/><path d="M0 0v-4.694h.391c1.174 0 2.054.293 2.543.684.489.489.685 1.271.685 2.348 0 .88-.196 1.662-.587 2.053-.391.489-.978.685-1.859.685-.391 0-.782-.098-.977-.294C.098.685 0 .391 0 0" style="fill:none;stroke:none" transform="matrix(1.25 0 0 -1.25 258.699 14.977)"/><path d="M0 0v-5.281q0-.587.293-.88c.196-.196.587-.294 1.076-.294h.098c.978 0 1.663.196 2.054.783.489.586.684 1.369.684 2.542q0 1.614-.88 2.348C2.641-.293 1.663 0 .391 0z" style="fill:none;stroke:none" transform="matrix(1.25 0 0 -1.25 258.699 21.579)"/><path d="M0 0c-.782 0-1.369.196-1.858.587-.489.489-.685.978-.685 1.663 0 .684.294 1.271.978 1.858.587.489 1.663.978 3.032 1.369l2.249.587v1.565c0 .684-.097 1.173-.489 1.466-.293.294-.782.392-1.466.392-.588 0-.979-.098-1.272-.392-.293-.293-.293-.488 0-.782.489-.489.684-.978.391-1.467-.196-.489-.782-.684-1.467-.684q-.733 0-1.173.293c-.196.293-.392.587-.392 1.076 0 .782.489 1.369 1.272 1.858.782.489 1.858.782 3.13.782 1.564 0 2.738-.293 3.52-.782.783-.489 1.174-1.271 1.174-2.249V1.956c0-.293.098-.391.196-.489 0-.098.195-.195.293-.195s.196 0 .293.097c.098 0 .196.098.294.196l.293-.391A2.66 2.66 0 0 0 7.14.293c-.489-.195-.979-.391-1.37-.391-.684 0-1.271.196-1.565.587-.195.196-.391.489-.391.88-.489-.391-.88-.684-1.369-.88C1.663.098.88 0 0 0" style="fill:none;stroke:none" transform="matrix(1.25 0 0 -1.25 274.469 30.87)"/><path d="M0 0v3.032l-.293-.098c-.88-.196-1.565-.587-1.957-.978-.488-.391-.684-.88-.684-1.467 0-.391.098-.782.293-1.076q.44-.293.881-.293c.391 0 .684 0 .978.195.195.196.489.392.782.685" style="fill:none;stroke:none" transform="matrix(1.25 0 0 -1.25 279.114 27.936)"/><path d="M0 0v5.477c0 .587-.098 1.076-.196 1.271-.195.196-.488.294-1.075.294v.488h4.499V5.966c.293.391.586.782.978 1.076.782.488 1.565.782 2.445.782.978 0 1.662-.294 2.249-.88.685-.489.978-1.174.978-2.054V0c0-.587 0-1.076.196-1.271q.146-.294.88-.294v-.489H5.281v.489c.587 0 .881.098 1.076.294.098.195.196.684.196 1.271v4.303c0 .783-.098 1.369-.293 1.663-.196.293-.489.391-1.077.391a1.88 1.88 0 0 1-1.173-.391c-.293-.196-.489-.489-.685-.685V0c0-.587 0-1.076.196-1.271.196-.196.489-.294.978-.294v-.489h-5.77v.489c.587 0 .88.098 1.075.294C-.098-1.076 0-.587 0 0" style="fill:none;stroke:none" transform="matrix(1.25 0 0 -1.25 287.426 27.936)"/><path d="M0 0v9.976c0 .586-.098 1.075-.196 1.271-.097.196-.488.293-.88.293v.489h4.401V3.032l1.761 1.565c1.075.978 1.662 1.564 1.76 1.956 0 .293-.489.489-1.467.489v.488h5.086v-.488q-.88 0-1.467-.294c-.391-.195-.978-.684-1.76-1.271L5.966 4.303 9.487 0a9.3 9.3 0 0 1 1.076-1.271c.293-.196.488-.294.684-.294v-.489H5.672v.489q.88 0 .881.294c0 .195-.196.684-.685 1.271L3.814 2.543l-.489-.489V0c0-.587.098-1.076.196-1.271.196-.196.489-.294.978-.294v-.489h-5.575v.489c.392 0 .783.098.88.294C-.098-1.076 0-.587 0 0" style="fill:none;stroke:none" transform="matrix(1.25 0 0 -1.25 303.686 27.936)"/><path d="M0 0h-.88c-.391.685-.782 1.369-.978 2.151-.196.685-.392 1.37-.392 2.054 0 .881.196 1.663.49 2.348.195.684.587 1.271.978 1.858H0c-.391-.88-.684-1.663-.782-2.25a6.3 6.3 0 0 1-.294-1.956c0-.489.098-.978.196-1.467l.293-1.467C-.391.978-.293.587 0 0m6.65 1.956H5.281l-.586 1.369H2.152l-.489-1.369H.294l2.444 6.357h1.37zM4.303 4.401l-.88 2.347-.88-2.347zm8.509-.196v1.076h2.738V2.836c-.293-.293-.684-.489-1.173-.782a4.1 4.1 0 0 0-1.565-.294c-.587 0-1.174.196-1.663.489-.586.294-.88.685-1.173 1.174-.196.489-.391 1.076-.391 1.663 0 .684.195 1.271.489 1.76.195.587.684.978 1.173 1.271.391.196.88.294 1.565.294.782 0 1.369-.196 1.858-.489.391-.391.685-.783.783-1.369l-1.272-.294c-.098.294-.195.587-.489.783-.195.195-.586.293-.88.293-.587 0-1.076-.196-1.369-.587-.294-.391-.489-.88-.489-1.565 0-.782.195-1.369.489-1.76.293-.294.782-.489 1.369-.489.196 0 .489 0 .782.098.294.097.489.293.685.391v.782zm3.619.098q0 .587.293 1.174.294.586.88.88c.392.196.783.293 1.272.293a2.36 2.36 0 0 0 1.662-.684c.489-.489.685-1.076.685-1.761s-.196-1.271-.685-1.662a2.09 2.09 0 0 0-1.662-.783c-.489 0-.88.098-1.272.294a1.92 1.92 0 0 0-.88.88c-.196.391-.293.782-.293 1.369m1.271-.098c0-.489.098-.782.294-1.076.293-.195.489-.293.88-.293.293 0 .587.098.782.293.196.294.294.587.294 1.076s-.098.783-.294 1.076c-.195.196-.489.391-.782.391-.391 0-.587-.195-.88-.391-.196-.293-.294-.587-.294-1.076m5.77-2.249-1.858 4.597h1.272l.88-2.348.195-.782c.098.195.098.293.196.391 0 .098 0 .196.098.391l.88 2.348h1.271l-1.858-4.597zm5.771 4.597v-.978h-.881V3.716c0-.391.098-.587.098-.684s0-.098.098-.196h.196c.097 0 .293 0 .489.098l.097-.978c-.293-.098-.586-.196-.978-.196-.195 0-.391.098-.586.196-.196 0-.294.098-.391.293-.098.098-.098.196-.196.391v2.935h-.587v.978h.587v.88l1.173.684V6.553zm2.053-4.597h-1.174v1.173h1.174zm3.423 2.347q0 .587.294 1.174.293.586.88.88c.391.196.783.293 1.272.293a2.36 2.36 0 0 0 1.662-.684c.489-.489.685-1.076.685-1.761s-.196-1.271-.685-1.662c-.489-.489-.978-.783-1.662-.783-.489 0-.881.098-1.272.294a1.9 1.9 0 0 0-.88.88c-.196.391-.294.782-.294 1.369m1.272-.098c0-.489.098-.782.293-1.076.294-.195.489-.293.881-.293.293 0 .586.098.782.293.196.294.293.587.293 1.076s-.097.783-.293 1.076c-.196.196-.489.391-.782.391-.392 0-.587-.195-.881-.391-.195-.293-.293-.587-.293-1.076m3.912 2.348h.684v.293c0 .391.098.685.098.88.098.196.294.391.489.489.196.098.489.196.881.196.293 0 .684-.098.978-.196l-.196-.88c-.196.098-.293.098-.489.098s-.293 0-.391-.098-.098-.293-.098-.489v-.293h.88v-.978h-.88V1.956h-1.272v3.619h-.684zm7.237-4.597h-1.272v6.357h1.272zm5.379 0h-1.173v2.347c0 .489 0 .783-.098.88 0 .196-.098.294-.196.392-.195.097-.293.097-.489.097-.195 0-.391 0-.587-.195-.097-.098-.195-.196-.293-.391-.098-.196-.098-.587-.098-1.076V1.956h-1.271v4.597h1.173v-.685c.392.489.881.782 1.565.782.196 0 .489-.097.685-.195.195-.098.391-.196.489-.391.098-.098.196-.294.293-.489zm5.477 0H56.92v.587a4.2 4.2 0 0 0-.684-.587c-.294-.098-.489-.196-.783-.196-.489 0-.978.294-1.369.685q-.587.587-.587 1.76c0 .783.196 1.37.587 1.859.391.391.782.586 1.369.586.489 0 .978-.195 1.37-.684v2.347h1.173zm-3.227 2.347c0-.489.097-.88.195-1.076.196-.293.489-.489.88-.489.196 0 .49.196.685.391.196.196.294.587.294 1.076q0 .734-.294 1.174c-.195.196-.391.293-.782.293-.196 0-.489-.097-.685-.293-.196-.293-.293-.587-.293-1.076m5.672 2.836h-1.174v1.173h1.174zm0-5.183h-1.174v4.596h1.174zm2.152 3.13-1.076.195c.098.489.293.783.587.978.391.294.782.391 1.369.391s.978-.097 1.271-.195c.294-.196.391-.294.587-.489.098-.196.098-.587.098-1.076V3.423c0-.391 0-.685.098-.88 0-.196.098-.392.196-.587h-1.174c-.098 0-.098.195-.196.293v.196c-.196-.196-.391-.391-.684-.489a1.84 1.84 0 0 0-.783-.196c-.489 0-.782.196-1.076.391-.293.294-.391.587-.391.978 0 .294 0 .489.196.783.098.195.293.293.489.391.195.098.587.196.978.294q.88.146 1.173.293v.196a.75.75 0 0 1-.195.489c-.098.097-.294.097-.685.097-.195 0-.293 0-.489-.097-.098-.098-.195-.196-.293-.489m1.662-.979c-.195 0-.391-.097-.782-.195-.293 0-.489-.098-.587-.196-.195-.098-.293-.293-.293-.391a.75.75 0 0 1 .195-.489.75.75 0 0 1 .489-.196c.196 0 .392.098.587.196.196.196.293.293.293.489.098.098.098.293.098.587zm4.89 4.206h1.272V3.814c.098-.293.196-.489.391-.685.294-.195.489-.195.88-.195s.685 0 .88.195c.098.098.294.294.294.587 0 .196.098.489.098 1.076v3.521h1.271V4.89c0-.685-.098-1.272-.098-1.565-.098-.293-.195-.587-.391-.782s-.489-.392-.782-.587a3.8 3.8 0 0 0-1.272-.196c-.586 0-.978.098-1.369.294-.293.097-.489.293-.685.489-.195.195-.293.489-.391.684-.098.391-.098.978-.098 1.663zm10.563-6.357h-1.174v2.347c0 .489 0 .783-.098.88 0 .196-.097.294-.293.392-.098.097-.196.097-.391.097-.196 0-.391 0-.587-.195-.098-.098-.293-.196-.293-.391-.098-.196-.098-.587-.098-1.076V1.956h-1.271v4.597h1.173v-.685c.391.489.88.782 1.467.782.293 0 .587-.097.782-.195s.392-.196.489-.391c.098-.098.196-.294.294-.489zm5.477 0h-1.076v.587c-.196-.196-.489-.392-.685-.587-.293-.098-.489-.196-.782-.196-.587 0-.978.294-1.369.685q-.587.587-.587 1.76c0 .783.196 1.37.587 1.859.391.391.782.586 1.369.586.489 0 .978-.195 1.369-.684v2.347h1.174zm-3.228 2.347c0-.489.098-.88.196-1.076.196-.293.489-.489.782-.489s.587.196.783.391c.195.196.293.587.293 1.076q0 .734-.293 1.174c-.196.196-.489.293-.783.293a.9.9 0 0 1-.684-.293c-.196-.293-.294-.587-.294-1.076m7.14-.88 1.174-.294a1.8 1.8 0 0 0-.685-.978c-.391-.195-.783-.391-1.272-.391q-1.173 0-1.76.88c-.391.392-.489.881-.489 1.565q0 1.175.587 1.761c.391.489.88.684 1.565.684s1.173-.293 1.565-.684q.586-.734.586-2.054h-3.032q0-.587.294-.88c.195-.196.391-.294.684-.294.196 0 .392 0 .489.098q.147.147.294.587m.098 1.174c-.098.391-.098.684-.294.782a.9.9 0 0 1-.684.293c-.196 0-.489-.097-.587-.293-.196-.196-.294-.391-.294-.782zm3.325-2.641h-1.174v4.597h1.076v-.685q.294.44.587.587a.75.75 0 0 0 .489.195c.293 0 .587-.097.782-.293l-.391-.978c-.196.098-.391.196-.587.196-.098 0-.293-.098-.391-.196s-.196-.293-.293-.489c-.098-.293-.098-.783-.098-1.565zm4.401 4.597v-.978h-.782V3.032c0-.098 0-.098.097-.196h.196c.098 0 .293 0 .489.098l.098-.978c-.294-.098-.587-.196-.978-.196-.196 0-.391.098-.587.196-.196 0-.293.098-.391.293-.098.098-.098.196-.196.391v2.935h-.587v.978h.587v.88l1.272.684V6.553zm1.761-1.467-1.077.195c.098.489.294.783.587.978.294.294.783.391 1.37.391.586 0 .978-.097 1.271-.195.196-.196.391-.294.489-.489.196-.196.196-.587.196-1.076V3.423c0-.391 0-.685.097-.88 0-.196.098-.392.196-.587h-1.271s0 .195-.098.293v.196a3 3 0 0 0-.685-.489 1.8 1.8 0 0 0-.782-.196c-.489 0-.783.196-1.076.391-.294.294-.391.587-.391.978 0 .294 0 .489.097.783.196.195.294.293.587.391.196.098.49.196.979.294q.879.146 1.173.293v.196a.75.75 0 0 1-.196.489c-.097.097-.293.097-.684.097-.196 0-.391 0-.489-.097-.098-.098-.196-.196-.293-.489m1.662-.979c-.196 0-.391-.097-.782-.195-.294 0-.489-.098-.685-.196-.098-.098-.195-.293-.195-.391 0-.196.097-.391.195-.489a.75.75 0 0 1 .489-.196c.196 0 .391.098.587.196.195.196.293.293.293.489.098.098.098.293.098.587zm2.347-2.151v6.357h1.174V4.89l1.467 1.663h1.467l-1.565-1.761 1.76-2.836h-1.369l-1.173 2.054-.587-.587V1.956zm6.162 5.183h-1.174v1.173h1.174zm0-5.183h-1.174v4.596h1.174zm5.477 0h-1.174v2.347c0 .489-.098.783-.098.88-.098.196-.196.294-.293.392-.098.097-.196.097-.392.097-.195 0-.391 0-.586-.195-.196-.098-.294-.196-.294-.391-.098-.196-.098-.587-.098-1.076V1.956h-1.271v4.597h1.174v-.685c.391.489.88.782 1.467.782.293 0 .587-.097.782-.195s.391-.196.489-.391a.75.75 0 0 0 .196-.489c.098-.196.098-.489.098-.783zm1.173-.391 1.369-.098c0-.196.098-.293.196-.391s.293-.098.489-.098c.293 0 .587 0 .685.098.195.098.195.195.293.391 0 .098.098.293.098.489v.684c-.391-.489-.881-.684-1.467-.684s-1.076.195-1.467.782c-.294.391-.391.88-.391 1.467 0 .783.195 1.37.586 1.859.392.391.783.586 1.369.586.587 0 1.076-.293 1.37-.782v.685h1.173V2.347c0-.489 0-.88-.097-1.173-.098-.294-.294-.489-.392-.685a4.6 4.6 0 0 0-.684-.293c-.294-.098-.587-.196-.978-.196-.783 0-1.369.196-1.663.489-.391.196-.489.587-.489.978zm1.076 2.738c0-.489.098-.88.293-1.076.196-.195.391-.293.685-.293.293 0 .489.098.782.293.196.294.294.587.294 1.076s-.098.783-.294 1.076c-.195.196-.489.293-.782.293s-.489-.097-.685-.293c-.195-.293-.293-.587-.293-1.076M120.687 0c.195.587.391.978.489 1.271.097.196.195.587.293.88.098.392.098.685.196 1.076v.978c0 .685 0 1.37-.196 1.956-.098.587-.391 1.37-.782 2.25h.782c.489-.685.782-1.272 1.076-1.956.196-.783.293-1.467.293-2.152 0-.587-.097-1.271-.293-1.956-.196-.782-.489-1.565-1.076-2.347z" style="fill:#fee800;fill-opacity:1;fill-rule:evenodd;stroke:none" transform="matrix(1.25 0 0 -1.25 111.144 53.244)"/><path d="M0 0h-.88c-.391.685-.782 1.369-.978 2.151-.196.685-.392 1.37-.392 2.054 0 .881.196 1.663.49 2.348.195.684.587 1.271.978 1.858H0c-.391-.88-.684-1.663-.782-2.25a6.3 6.3 0 0 1-.294-1.956c0-.489.098-.978.196-1.467l.293-1.467C-.391.978-.293.587 0 0" style="fill:none;stroke:none" transform="matrix(1.25 0 0 -1.25 111.144 53.244)"/><path d="M0 0h-1.369l-.587 1.369h-2.543L-4.988 0h-1.369l2.445 6.357h1.369z" style="fill:none;stroke:none" transform="matrix(1.25 0 0 -1.25 119.456 50.799)"/><path d="m0 0-.88 2.347L-1.761 0z" style="fill:none;stroke:none" transform="matrix(.97866 0 0 -1.02096 131.922 47.116)"/><path d="M0 0v1.076h2.738v-2.445c-.293-.294-.684-.489-1.173-.782A4.1 4.1 0 0 0 0-2.445c-.587 0-1.174.196-1.663.489-.587.293-.88.685-1.173 1.174-.196.489-.392 1.076-.392 1.662 0 .685.196 1.272.489 1.761.196.587.685.978 1.174 1.271.391.196.88.293 1.565.293.782 0 1.369-.195 1.858-.489.391-.391.685-.782.783-1.369l-1.272-.293c-.098.293-.195.587-.489.782-.196.196-.587.294-.88.294-.587 0-1.076-.196-1.369-.587-.294-.391-.49-.88-.49-1.565 0-.782.196-1.369.49-1.76.293-.294.782-.489 1.369-.489.195 0 .489 0 .782.097.294.098.489.294.685.392V0z" style="fill:none;stroke:none" transform="matrix(1.25 0 0 -1.25 127.159 47.987)"/><path d="M0 0q0 .587.293 1.174.294.586.881.88a2.7 2.7 0 0 0 1.271.293c.685 0 1.271-.293 1.663-.684.489-.489.684-1.076.684-1.761s-.195-1.271-.684-1.662a2.09 2.09 0 0 0-1.663-.783 2.7 2.7 0 0 0-1.271.294 1.9 1.9 0 0 0-.881.88C.098-.978 0-.587 0 0" style="fill:none;stroke:none" transform="matrix(.97866 0 0 -1.02096 143.79 47.216)"/><path d="M0 0c0-.489.098-.782.293-1.076.294-.195.489-.293.88-.293.294 0 .587.098.783.293.196.294.293.587.293 1.076s-.097.783-.293 1.076c-.196.196-.489.391-.783.391-.391 0-.586-.195-.88-.391C.098.783 0 .489 0 0" style="fill:none;stroke:none" transform="matrix(.97866 0 0 -1.02096 145.035 47.316)"/><path d="m0 0-1.858 4.597h1.271l.88-2.348.196-.782c.098.196.098.293.196.391 0 .098 0 .196.097.391l.881 2.348h1.271L1.076 0z" style="fill:none;stroke:none" transform="matrix(.97866 0 0 -1.02096 150.682 49.612)"/><path d="M0 0v-.978h-.88v-1.858c0-.392.098-.587.098-.685s0-.098.097-.195h.196c.098 0 .293 0 .489.097l.098-.978c-.294-.097-.587-.195-.978-.195-.196 0-.391.098-.587.195-.196 0-.293.098-.391.294-.098.098-.098.195-.196.391v2.934h-.587V0h.587v.88l1.174.685V0zm2.054-4.597H.88v1.173h1.174z" style="fill:none;stroke:none" transform="matrix(1.25 0 0 -1.25 147.696 45.052)"/><path d="M0 0q0 .587.293 1.174.294.586.881.88a2.7 2.7 0 0 0 1.271.293 2.36 2.36 0 0 0 1.663-.684c.489-.489.684-1.076.684-1.761s-.195-1.271-.684-1.662c-.489-.489-.978-.783-1.663-.783a2.7 2.7 0 0 0-1.271.294 1.9 1.9 0 0 0-.881.88C.098-.978 0-.587 0 0" style="fill:none;stroke:none" transform="matrix(.97866 0 0 -1.02096 161.689 47.216)"/><path d="M0 0c0-.489.098-.782.293-1.076.294-.195.49-.293.881-.293.293 0 .587.098.782.293.196.294.294.587.294 1.076s-.098.783-.294 1.076c-.195.196-.489.391-.782.391-.391 0-.587-.195-.881-.391C.098.783 0 .489 0 0" style="fill:none;stroke:none" transform="matrix(.97866 0 0 -1.02096 162.933 47.316)"/><path d="M0 0h.685v.293c0 .392.097.685.097.881.098.195.294.391.489.489.196.097.49.195.881.195.293 0 .684-.098.978-.195L2.934.782C2.739.88 2.641.88 2.445.88c-.195 0-.293 0-.391-.098-.098-.097-.098-.293-.098-.489V0h.88v-.978h-.88v-3.619H.685v3.619H0zm7.238-4.597H5.966V1.76h1.272z" style="fill:none;stroke:none" transform="matrix(1.25 0 0 -1.25 161.021 45.054)"/><path d="M0 0h-1.174v2.347c0 .489 0 .783-.097.881 0 .195-.098.293-.196.391-.195.097-.294.097-.489.097-.196 0-.391 0-.587-.195-.098-.098-.196-.196-.293-.391-.098-.196-.098-.587-.098-1.076V0h-1.271v4.597h1.173v-.685c.391.489.88.782 1.565.782.196 0 .489-.097.685-.195.195-.098.391-.196.489-.391.097-.098.195-.294.293-.489z" style="fill:none;stroke:none" transform="matrix(.97866 0 0 -1.02096 179.109 49.613)"/><path d="M0 0h-1.076v.587A4.2 4.2 0 0 0-1.76 0c-.294-.098-.489-.196-.783-.196-.489 0-.978.294-1.369.685q-.587.587-.587 1.76c0 .783.196 1.37.587 1.859.391.391.782.586 1.369.586.489 0 .978-.195 1.37-.684v2.347H0z" style="fill:none;stroke:none" transform="matrix(1.25 0 0 -1.25 183.639 50.8)"/><path d="M0 0c0-.489.098-.88.196-1.076.195-.293.488-.489.88-.489.196 0 .489.196.685.391.195.196.293.587.293 1.076q0 .734-.293 1.174c-.196.196-.392.293-.783.293-.196 0-.489-.097-.685-.293C.098.783 0 .489 0 0m5.673 2.836H4.499v1.173h1.174z" style="fill:none;stroke:none" transform="matrix(1.25 0 0 -1.25 179.605 47.866)"/><path d="M1.174-5.183H0v4.596h1.174z" style="fill:none;stroke:none" transform="matrix(.97866 0 0 -1.02096 185.714 44.321)"/><path d="m0 0-1.076.196c.098.489.294.782.587.978.391.293.783.391 1.369.391a3.8 3.8 0 0 0 1.272-.196c.293-.195.391-.293.587-.489.098-.195.098-.587.098-1.076v-1.467c0-.391 0-.684.097-.88 0-.196.098-.391.196-.587H1.956c-.098 0-.098.196-.196.294v.195c-.195-.195-.391-.391-.684-.489a1.84 1.84 0 0 0-.782-.195c-.489 0-.783.195-1.076.391-.294.293-.391.587-.391.978 0 .293 0 .489.195.782.098.196.294.294.489.391.196.098.587.196.978.294q.88.147 1.174.293V0a.75.75 0 0 1-.196.489c-.098.098-.293.098-.685.098-.195 0-.293 0-.488-.098C.196.391.098.293 0 0" style="fill:none;stroke:none" transform="matrix(.97866 0 0 -1.02096 188.968 46.417)"/><path d="M0 0c-.196 0-.391-.098-.782-.196-.294 0-.489-.097-.587-.195-.196-.098-.294-.294-.294-.391 0-.196.098-.392.196-.489a.75.75 0 0 1 .489-.196c.196 0 .391.098.587.196.195.195.293.293.293.489C0-.685 0-.489 0-.196z" style="fill:none;stroke:none" transform="matrix(.97866 0 0 -1.02096 190.595 47.416)"/><path d="M0 0h1.272v-4.499c.097-.293.195-.489.391-.684.293-.196.489-.196.88-.196s.685 0 .88.196c.098.097.294.293.294.586 0 .196.097.489.097 1.076V0h1.272v-3.423c0-.685-.098-1.271-.098-1.565-.098-.293-.196-.587-.391-.782-.196-.196-.489-.391-.783-.587a3.8 3.8 0 0 0-1.271-.196c-.587 0-.978.098-1.369.294-.294.098-.489.293-.685.489-.196.195-.293.489-.391.684C0-4.694 0-4.108 0-3.423z" style="fill:none;stroke:none" transform="matrix(1.25 0 0 -1.25 197.576 42.854)"/><path d="M0 0h-1.174v2.347c0 .489 0 .783-.098.881 0 .195-.097.293-.293.391-.098.097-.196.097-.391.097-.196 0-.391 0-.587-.195-.098-.098-.293-.196-.293-.391-.098-.196-.098-.587-.098-1.076V0h-1.271v4.597h1.173v-.685c.391.489.88.782 1.467.782.293 0 .587-.097.782-.195s.392-.196.489-.391c.098-.098.196-.294.294-.489z" style="fill:none;stroke:none" transform="matrix(.97866 0 0 -1.02096 205.718 49.613)"/><path d="M0 0h-1.076v.587C-1.272.391-1.565.196-1.761 0c-.293-.098-.489-.196-.782-.196-.587 0-.978.294-1.369.685q-.587.587-.587 1.76c0 .783.196 1.37.587 1.859.391.391.782.586 1.369.586.489 0 .978-.195 1.369-.684v2.347H0z" style="fill:none;stroke:none" transform="matrix(1.25 0 0 -1.25 217.626 50.8)"/><path d="M0 0c0-.489.098-.88.196-1.076.195-.293.489-.489.782-.489s.587.196.782.391c.196.196.294.587.294 1.076q0 .734-.294 1.174c-.195.196-.489.293-.782.293s-.489-.097-.685-.293C.098.783 0 .489 0 0" style="fill:none;stroke:none" transform="matrix(.97866 0 0 -1.02096 207.92 47.217)"/><path d="m0 0 1.174-.293a1.8 1.8 0 0 0-.685-.978c-.391-.196-.782-.392-1.271-.392q-1.174 0-1.761.881c-.391.391-.489.88-.489 1.564q0 1.175.587 1.761c.391.489.88.685 1.565.685S.294 2.934.685 2.543q.587-.734.587-2.054H-1.76q0-.587.293-.88c.196-.196.391-.294.685-.294.195 0 .391 0 .489.098Q-.147-.44 0 0" style="fill:none;stroke:none" transform="matrix(.97866 0 0 -1.02096 214.906 48.115)"/><path d="M0 0c-.098.391-.098.685-.294.782-.195.196-.391.294-.684.294-.196 0-.489-.098-.587-.294C-1.761.587-1.858.391-1.858 0z" style="fill:none;stroke:none" transform="matrix(.97866 0 0 -1.02096 215.002 46.916)"/><path d="M0 0h-1.174v4.597h1.076v-.685q.294.44.587.587a.75.75 0 0 0 .489.195c.293 0 .587-.097.782-.293l-.391-.978c-.196.098-.391.196-.587.196-.098 0-.293-.098-.391-.196S.195 3.13.098 2.934C0 2.641 0 2.152 0 1.369z" style="fill:none;stroke:none" transform="matrix(.97866 0 0 -1.02096 218.256 49.613)"/><path d="M0 0v-.978h-.782v-2.543c0-.098 0-.098.097-.195h.196c.098 0 .293 0 .489.097l.098-.978c-.294-.097-.587-.195-.978-.195-.196 0-.391.098-.587.195-.196 0-.293.098-.391.294-.098.098-.098.195-.196.391v2.934h-.587V0h.587v.88l1.272.685V0z" style="fill:none;stroke:none" transform="matrix(1.25 0 0 -1.25 232.295 45.054)"/><path d="m0 0-1.076.196c.098.489.293.782.587.978.293.293.782.391 1.369.391s.978-.098 1.271-.196c.196-.195.392-.293.49-.489.195-.195.195-.587.195-1.076v-1.467c0-.391 0-.684.098-.88 0-.196.097-.391.195-.587H1.858s0 .196-.098.294v.195a3 3 0 0 0-.684-.489 1.84 1.84 0 0 0-.783-.195c-.489 0-.782.195-1.076.391-.293.293-.391.587-.391.978 0 .293 0 .489.098.782.196.196.293.294.587.391.195.098.489.196.978.294q.88.147 1.173.293V0a.75.75 0 0 1-.195.489c-.098.098-.294.098-.685.098-.195 0-.391 0-.489-.098S.098.293 0 0" style="fill:none;stroke:none" transform="matrix(.97866 0 0 -1.02096 224.286 46.417)"/><path d="M0 0c-.196 0-.391-.098-.782-.196-.294 0-.489-.097-.685-.195-.098-.098-.195-.294-.195-.391 0-.196.097-.392.195-.489a.75.75 0 0 1 .489-.196c.196 0 .391.098.587.196.195.195.293.293.293.489C0-.685 0-.489 0-.196z" style="fill:none;stroke:none" transform="matrix(.97866 0 0 -1.02096 225.913 47.416)"/><path d="M0 0v6.357h1.174V2.934l1.467 1.663h1.467L2.543 2.836 4.303 0H2.934L1.761 2.054l-.587-.587V0zm6.162 5.183H4.988v1.173h1.174z" style="fill:none;stroke:none" transform="matrix(1.25 0 0 -1.25 239.508 50.8)"/><path d="M1.174-5.183H0v4.596h1.174z" style="fill:none;stroke:none" transform="matrix(.97866 0 0 -1.02096 233.091 44.321)"/><path d="M0 0h-1.174v2.347c0 .489-.097.783-.097.881a1.4 1.4 0 0 1-.294.391c-.098.097-.196.097-.391.097-.196 0-.391 0-.587-.195-.196-.098-.293-.196-.293-.391-.098-.196-.098-.587-.098-1.076V0h-1.272v4.597h1.174v-.685c.391.489.88.782 1.467.782.294 0 .587-.097.783-.195.195-.098.391-.196.489-.391a.75.75 0 0 0 .195-.489C0 3.423 0 3.13 0 2.836z" style="fill:none;stroke:none" transform="matrix(.97866 0 0 -1.02096 239.6 49.613)"/><path d="m0 0 1.369-.098c0-.195.098-.293.196-.391s.293-.098.489-.098c.293 0 .587 0 .685.098.195.098.195.196.293.391 0 .098.098.294.098.489v.685C2.739.587 2.249.391 1.663.391S.587.587.196 1.174c-.294.391-.391.88-.391 1.467 0 .782.195 1.369.586 1.858.391.391.783.587 1.369.587.587 0 1.076-.294 1.37-.783v.685h1.173V.782c0-.489 0-.88-.097-1.173-.098-.294-.294-.489-.392-.685a5 5 0 0 0-.684-.293c-.294-.098-.587-.196-.978-.196-.783 0-1.37.196-1.663.489C.098-.88 0-.489 0-.098z" style="fill:none;stroke:none" transform="matrix(.97866 0 0 -1.02096 240.748 50.012)"/><path d="M0 0c0-.489.098-.88.293-1.076.196-.195.391-.293.685-.293s.489.098.783.293c.195.294.293.587.293 1.076s-.098.783-.293 1.076c-.196.196-.489.293-.783.293s-.489-.097-.685-.293C.098.783 0 .489 0 0" style="fill:none;stroke:none" transform="matrix(.97866 0 0 -1.02096 241.801 47.217)"/><path d="M0 0c.196.587.391.978.489 1.271.098.196.195.587.293.88.098.392.098.685.196 1.076v.978c0 .685 0 1.37-.196 1.956-.098.587-.391 1.37-.782 2.25h.782c.489-.685.783-1.272 1.076-1.956.196-.783.294-1.467.294-2.152 0-.587-.098-1.271-.294-1.956C1.662 1.565 1.369.782.782 0z" style="fill:none;stroke:none" transform="matrix(1.25 0 0 -1.25 262.003 53.245)"/><path d="M6.082 5.803h35.14V53.24H6.083z" style="fill:#fee800;fill-opacity:1;fill-rule:nonzero;stroke:none" transform="matrix(1.25 0 0 -1.25 0 73)"/><path d="M6.082 53.239h35.14V5.803H6.083V53.24z" style="fill:none;stroke:none" transform="matrix(1.25 0 0 -1.25 0 73)"/><path d="m0 0-.345-.357-.351.362.345.357zm2.546 2.458.894.003c-.036.286-.118.449-.246.594-.127.144-.271.238-.424.217-.344-.047-.438-.535-.224-.814M1.118 1.297A.5.5 0 0 1 .97 1.14.46.46 0 0 1 .873.875c0-.134.03-.268.124-.338a.54.54 0 0 1 .314-.099c.064 0 .131 0 .151.016l.162.084zm.704-.636a.34.34 0 0 1 .15.128.34.34 0 0 1 .078.203q0 .234-.14.362a.4.4 0 0 1-.276.106h-.162a.35.35 0 0 1-.148-.04zm.518 1.786c-.095.091-.181.307-.209.432-.033.153.019.427.182.552a.75.75 0 0 0 .441.153q.307 0 .535-.29c.151-.193.255-.436.312-.833h.427l.168-.332h-.503V-.463l-.461.196v2.396h-.58V-.463l-.418.196v.731C2.14.356 2.057.323 1.98.276c-.136-.082-.372-.13-.555-.13A.96.96 0 0 0 .73.408a.97.97 0 0 0-.281.638c0 .149.082.351.208.483.163.171.489.29.756.27.169-.013.375-.051.514-.142.12-.079.199-.117.307-.277v.749H.33l-.157.332zm-5.039-.318c.154-.328.212-.669.057-.977l.169-.093a.6.6 0 0 1 .297-.067A1 1 0 0 1-2.07 1c.037.006.021.026.087.053.11.045.198.089.259.145v.931zm-.269 0c.353-.476.193-.627-.011-.796-.033-.065-.132-.053-.131-.074-.062.096-.148.145-.252.107-.197-.024-.342-.256-.309-.361.027-.085.11-.219.279-.439.14-.182.544-.587 1.012-1.122l.118.25-.421.445-.27.29-.162.19a.1.1 0 0 0 .035.055 1 1 0 0 0 .127.073q.064.045.13.111l.113.123a.9.9 0 0 1 .295-.226A.8.8 0 0 1-2.07.68c.04 0 .027.008.091.025q.099.025.163.053.066.029.092.033V-.267l.457-.196v2.592h.344l-.156.332h-5.298l.162-.332h.354V.747c0-.163.046-.299.167-.368l1.585-.909c.099-.056.14-.117.14-.161a.2.2 0 0 0-.029-.092.5.5 0 0 0-.067-.092l.275-.251q.178.262.178.357a.33.33 0 0 1-.062.162 1 1 0 0 1-.224.178l-1.42.925q-.033.017-.052.083a.5.5 0 0 0-.018.129v1.421h.769V.892c0-.071-.051-.112-.153-.106l-.306.016.284-.278.199-.039a.4.4 0 0 0 .07-.011h.13c.13 0 .244.076.244.228v1.427zm-5.993.329.754.003a1.06 1.06 0 0 1-.271.609.51.51 0 0 1-.423.194c-.193-.009-.351-.125-.305-.467a.65.65 0 0 1 .245-.339m-.385-.335h-.88v-.891q0-.424.286-.424.113 0 .286.067a1.4 1.4 0 0 1 .308.161zM-6.649 0l-.345-.357-.351.362.345.357zM-9.2 2.461c-.109.099-.379.292-.365.613.008.166.11.302.215.404.104.102.27.122.433.122q.307 0 .534-.29c.151-.193.298-.452.355-.849h.426l.151-.332h-.502V-.463l-.445.196v2.396l-.508-.006V-.463l-.44.196v.924l-.101-.052a1 1 0 0 0-.09-.037 1 1 0 0 0-.24-.038c-.13 0-.386.074-.568.222q-.305.25-.305.491v.88h-.403l-.161.338z" style="fill:#b41630;fill-opacity:1;fill-rule:evenodd;stroke:none" transform="matrix(1.5386 0 0 -1.45172 33.942 61.92)"/><path d="m0 0-.345-.357-.351.362.345.357z" style="fill:none;stroke:none" transform="matrix(1.5386 0 0 -1.45172 33.942 61.92)"/><path d="m0 0 .894.003C.858.289.776.452.648.597.521.741.378.834.224.814-.12.767-.213.279 0 0" style="fill:none;stroke:none" transform="matrix(1.5386 0 0 -1.45172 37.86 58.352)"/><path d="M0 0a.5.5 0 0 1-.148-.158.45.45 0 0 1-.097-.264c0-.134.03-.268.124-.338a.54.54 0 0 1 .313-.099c.065 0 .132 0 .151.015l.162.085z" style="fill:none;stroke:none" transform="matrix(1.5386 0 0 -1.45172 35.664 60.038)"/><path d="M0 0a.33.33 0 0 1 .15.128.34.34 0 0 1 .078.203q0 .234-.14.362a.4.4 0 0 1-.275.106h-.162a.34.34 0 0 1-.148-.04z" style="fill:none;stroke:none" transform="matrix(1.5386 0 0 -1.45172 36.746 60.961)"/><path d="M0 0c-.095.091-.181.307-.209.432-.033.153.018.427.182.552.117.09.279.153.441.153q.308 0 .534-.289c.151-.193.256-.436.313-.834h.427l.167-.332h-.502v-2.591l-.462.195v2.396h-.58v-2.591l-.417.195v.731C-.2-2.091-.284-2.124-.36-2.17c-.136-.083-.372-.131-.555-.131a1 1 0 0 0-.357.054 1.1 1.1 0 0 0-.338.208.97.97 0 0 0-.281.638c0 .149.082.351.208.483.163.171.489.29.756.27.168-.013.375-.05.514-.142.12-.079.199-.116.307-.276v.748H-2.01l-.157.332z" style="fill:none;stroke:none" transform="matrix(1.5386 0 0 -1.45172 37.543 58.368)"/><path d="M0 0c.154-.328.213-.669.058-.976l.169-.094a.7.7 0 0 1 .402-.058c.038.005.021.026.088.053a.9.9 0 0 1 .259.145V0z" style="fill:none;stroke:none" transform="matrix(1.5386 0 0 -1.45172 29.79 58.83)"/><path d="M0 0c.352-.476.193-.626-.011-.796-.033-.065-.132-.053-.131-.073-.062.095-.148.145-.252.107-.197-.024-.342-.256-.309-.361.027-.086.109-.22.279-.439.14-.182.544-.588 1.012-1.122l.118.249-.421.446-.271.29-.161.189a.1.1 0 0 0 .034.056q.02.016.127.072.066.045.13.112l.114.122q.135-.15.295-.225a.8.8 0 0 1 .345-.076c.04 0 .026.009.091.025q.097.025.163.053.065.028.092.034v-1.059l.457-.195V0h.344l-.157.332h-5.297L-3.247 0h.353v-1.382c0-.163.047-.298.168-.368l1.585-.909c.098-.056.14-.116.14-.161a.2.2 0 0 0-.029-.091.4.4 0 0 0-.068-.092l.276-.251q.178.262.178.356a.33.33 0 0 1-.062.162 1 1 0 0 1-.224.178l-1.421.926q-.031.016-.051.083a.5.5 0 0 0-.018.128V0h.769v-1.237c0-.07-.051-.111-.153-.106l-.306.017.283-.279.2-.039a.3.3 0 0 0 .07-.011h.13c.13 0 .244.076.244.229V0z" style="fill:none;stroke:none" transform="matrix(1.5386 0 0 -1.45172 29.377 58.83)"/><path d="m0 0 .754.003a1.07 1.07 0 0 1-.27.61.52.52 0 0 1-.424.194C-.133.798-.291.681-.245.34A.65.65 0 0 1 0 0" style="fill:none;stroke:none" transform="matrix(1.5386 0 0 -1.45172 20.156 58.352)"/><path d="M0 0h-.88v-.892q0-.423.286-.423.114 0 .286.067A1.3 1.3 0 0 1 0-1.087z" style="fill:none;stroke:none" transform="matrix(1.5386 0 0 -1.45172 19.564 58.839)"/><path d="m0 0-.345-.357-.351.362.345.357z" style="fill:none;stroke:none" transform="matrix(1.5386 0 0 -1.45172 23.714 61.92)"/><path d="M0 0c-.109.099-.38.293-.365.613.008.167.11.302.214.404.105.102.271.122.433.122q.309 0 .535-.29C.968.656 1.114.398 1.172 0h.426l.151-.332h-.502v-2.591l-.446.195v2.396L.294-.338v-2.585l-.44.195v.925l-.101-.053a1 1 0 0 0-.09-.036 1 1 0 0 0-.24-.039c-.13 0-.387.074-.568.223q-.305.25-.305.49v.88h-.403L-2.015 0z" style="fill:none;stroke:none" transform="matrix(1.5386 0 0 -1.45172 19.789 58.348)"/><path d="m0 0 .038.408a7.28 7.28 0 0 0 4.746 6.008l.353.121v1.561l.091.001c5.433.525 3.956 6.497 9.72 6.931l.523.038q.362.017.725.024v-3.623l-.154.025c-1.407.192-2.563-.603-3.232-1.809l-.12-.235c-.216-.403-.426-.808-.661-1.199a8 8 0 0 0-.258-.395 7 7 0 0 0-.212-.279 7 7 0 0 0-.234-.265l-.171-.168a7 7 0 0 0-.284-.24l-.21-.151-.228-.144-.122-.069-.374-.199.49-.229c5.504-2.774 5.418-10.47-.154-13.117l-.783-.344.831-.042.239-.024c3.867-.531 5.574-5.093 2.958-8.015l-.16-.168-.167-.159c-2.987-2.671-7.642-.827-8.034 3.14l-.019.306V0h3.279v-4.024l.32.13C15.554.356 5.677 7.705 3.498.125v-17.174H-.008V0zm9.954-10.656-.157-.008-.152-.023-.148-.038a2 2 0 0 1-.209-.083 2 2 0 0 1-.193-.111 2 2 0 0 1-.175-.137 3 3 0 0 1-.152-.16 2 2 0 0 1-.129-.181 2 2 0 0 1-.102-.199 2 2 0 0 1-.073-.214l-.031-.151-.016-.154v-.158l.016-.155.031-.15q.031-.108.073-.214.046-.102.102-.199.06-.094.129-.181.072-.083.152-.16.084-.072.175-.137.093-.06.193-.111.102-.048.209-.083l.148-.038.152-.024.157-.007.157.007.152.024q.111.025.219.062.105.041.205.093.096.055.187.12.087.069.167.145.076.08.145.167.065.091.12.187.052.1.093.205.037.108.062.219l.023.152.008.157-.008.157-.023.152a2 2 0 0 1-.062.219 2 2 0 0 1-.093.204 2 2 0 0 1-.12.187 2 2 0 0 1-.145.168 2 2 0 0 1-.167.145 2 2 0 0 1-.187.12 2 2 0 0 1-.205.093 2 2 0 0 1-.219.062l-.152.023z" style="fill:#b41630;fill-opacity:1;fill-rule:evenodd;stroke:none" transform="matrix(1.5386 0 0 -1.45172 17.525 30.555)"/><path d="m0 0 .038.408a7.28 7.28 0 0 0 4.746 6.008l.353.121v1.561l.091.001c5.433.525 3.956 6.497 9.72 6.931l.523.038q.362.017.725.024v-3.623l-.154.025c-1.407.192-2.563-.603-3.232-1.809l-.12-.235c-.216-.403-.426-.808-.661-1.199a8 8 0 0 0-.258-.395 7 7 0 0 0-.212-.279 7 7 0 0 0-.234-.265l-.171-.168a7 7 0 0 0-.284-.24l-.21-.151-.228-.144-.122-.069-.374-.199.49-.229c5.504-2.774 5.418-10.47-.154-13.117l-.783-.344.831-.042.239-.024c3.867-.531 5.574-5.093 2.958-8.015l-.16-.168-.167-.159c-2.987-2.671-7.642-.827-8.034 3.14l-.019.306V0h3.279v-4.024l.32.13C15.554.356 5.677 7.705 3.498.125v-17.174H-.008V0z" style="fill:none;stroke:none" transform="matrix(1.5386 0 0 -1.45172 17.525 30.555)"/><path d="m0 0-.157-.008-.153-.023-.147-.038a3 3 0 0 1-.209-.083 2 2 0 0 1-.193-.111 2 2 0 0 1-.175-.138 2 2 0 0 1-.153-.16 2 2 0 0 1-.128-.181 2 2 0 0 1-.102-.198 2 2 0 0 1-.073-.215l-.031-.15-.016-.155v-.157l.016-.155.031-.15q.031-.11.073-.214.046-.103.102-.199.06-.094.128-.181.073-.084.153-.16a2 2 0 0 1 .175-.137q.093-.06.193-.111.102-.048.209-.083l.147-.038.153-.024L0-3.077l.157.008.152.024q.111.025.219.062.105.041.204.093c.066.037.126.076.188.12q.087.068.167.145.076.08.145.167.065.09.12.187.052.1.093.205.036.108.062.218l.023.153.008.157-.008.157-.023.152a2 2 0 0 1-.062.219 2 2 0 0 1-.093.204 2 2 0 0 1-.12.187 2 2 0 0 1-.145.168 3 3 0 0 1-.167.145 3 3 0 0 1-.188.12 2 2 0 0 1-.204.092 2 2 0 0 1-.219.063l-.152.023z" style="fill:none;stroke:none" transform="matrix(1.5386 0 0 -1.45172 32.84 46.024)"/></svg>