<svg xmlns="http://www.w3.org/2000/svg" xml:space="preserve" width="24.931" height="46.66"><path d="m0 0 .038.408a7.28 7.28 0 0 0 4.746 6.008l.353.121v1.561l.091.001c5.433.525 3.956 6.497 9.72 6.931l.523.038q.362.017.725.024v-3.623l-.154.025c-1.407.192-2.563-.603-3.232-1.809l-.12-.235c-.216-.403-.426-.808-.661-1.199a8 8 0 0 0-.258-.395 7 7 0 0 0-.212-.279 7 7 0 0 0-.234-.265l-.171-.168a7 7 0 0 0-.284-.24l-.21-.151-.228-.144-.122-.069-.374-.199.49-.229c5.504-2.774 5.418-10.47-.154-13.117l-.783-.344.831-.042.239-.024c3.867-.531 5.574-5.093 2.958-8.015l-.16-.168-.167-.159c-2.987-2.671-7.642-.827-8.034 3.14l-.019.306V0h3.279v-4.024l.32.13C15.554.356 5.677 7.705 3.498.125v-17.174H-.008V0Zm9.954-10.656-.157-.008-.152-.023-.148-.038a2 2 0 0 1-.209-.083 2 2 0 0 1-.193-.111 2 2 0 0 1-.175-.137 3 3 0 0 1-.152-.16 2 2 0 0 1-.129-.181 2 2 0 0 1-.102-.199 2 2 0 0 1-.073-.214l-.031-.151-.016-.154v-.158l.016-.155.031-.15q.031-.108.073-.214.046-.102.102-.199.06-.094.129-.181.072-.083.152-.16.084-.072.175-.137.093-.06.193-.111.102-.048.209-.083l.148-.038.152-.024.157-.007.157.007.152.024q.111.025.219.062.105.041.205.093.096.055.187.12.087.069.167.145.076.08.145.167.065.091.12.187.052.1.093.205.037.108.062.219l.023.152.008.157-.008.157-.023.152a2 2 0 0 1-.062.219 2 2 0 0 1-.093.204 2 2 0 0 1-.12.187 2 2 0 0 1-.145.168 2 2 0 0 1-.167.145 2 2 0 0 1-.187.12 2 2 0 0 1-.205.093 2 2 0 0 1-.219.062l-.152.023z" style="fill:#b41630;fill-opacity:1;fill-rule:evenodd;stroke:none" transform="matrix(1.5386 0 0 -1.45172 .012 21.91)"/><path d="m0 0 .038.408a7.28 7.28 0 0 0 4.746 6.008l.353.121v1.561l.091.001c5.433.525 3.956 6.497 9.72 6.931l.523.038q.362.017.725.024v-3.623l-.154.025c-1.407.192-2.563-.603-3.232-1.809l-.12-.235c-.216-.403-.426-.808-.661-1.199a8 8 0 0 0-.258-.395 7 7 0 0 0-.212-.279 7 7 0 0 0-.234-.265l-.171-.168a7 7 0 0 0-.284-.24l-.21-.151-.228-.144-.122-.069-.374-.199.49-.229c5.504-2.774 5.418-10.47-.154-13.117l-.783-.344.831-.042.239-.024c3.867-.531 5.574-5.093 2.958-8.015l-.16-.168-.167-.159c-2.987-2.671-7.642-.827-8.034 3.14l-.019.306V0h3.279v-4.024l.32.13C15.554.356 5.677 7.705 3.498.125v-17.174H-.008V0Z" style="fill:none;stroke:none" transform="matrix(1.5386 0 0 -1.45172 .012 21.91)"/><path d="m0 0-.157-.008-.153-.023-.147-.038a3 3 0 0 1-.209-.083 2 2 0 0 1-.193-.111 2 2 0 0 1-.175-.138 2 2 0 0 1-.153-.16 2 2 0 0 1-.128-.181 2 2 0 0 1-.102-.198 2 2 0 0 1-.073-.215l-.031-.15-.016-.155v-.157l.016-.155.031-.15q.031-.11.073-.214.046-.103.102-.199.06-.094.128-.181.073-.084.153-.16a2 2 0 0 1 .175-.137q.093-.06.193-.111.102-.048.209-.083l.147-.038.153-.024L0-3.077l.157.008.152.024q.111.025.219.062.105.041.204.093c.066.037.126.076.188.12q.087.068.167.145.076.08.145.167.065.09.12.187.052.1.093.205.036.108.062.218l.023.153.008.157-.008.157-.023.152a2 2 0 0 1-.062.219 2 2 0 0 1-.093.204 2 2 0 0 1-.12.187 2 2 0 0 1-.145.168 3 3 0 0 1-.167.145 3 3 0 0 1-.188.12 2 2 0 0 1-.204.092 2 2 0 0 1-.219.063l-.152.023z" style="fill:none;stroke:none" transform="matrix(1.5386 0 0 -1.45172 15.328 37.379)"/></svg>