<svg xmlns="http://www.w3.org/2000/svg" width="289" height="50"><path d="M363.272 391.479h47.722v-7.953h-47.722z" style="fill:#004c8f;fill-opacity:1;fill-rule:nonzero;stroke:none" transform="matrix(6.01697 0 0 -6.01697 -2184.727 2356.597)"/><path d="M371.226 391.479h39.768v-7.953h-39.768z" style="fill:#004c8f;fill-opacity:1;fill-rule:nonzero;stroke:none" transform="matrix(6.01697 0 0 -6.01697 -2184.727 2356.597)"/><path d="M373.755 385.621v3.763h1.238v-1.27h1.16v1.27h1.24v-3.763h-1.24v1.46h-1.16v-1.46zm5.597 2.828h.321q.346 0 .508-.072a.5.5 0 0 0 .202-.165 1 1 0 0 0 .125-.296q.043-.182.043-.384.001-.33-.095-.553a.64.64 0 0 0-.271-.322q-.176-.1-.521-.099l-.312-.002zm.478-2.828q.436-.001.732.077.299.077.485.2.188.125.345.334.158.215.266.547.109.33.108.752 0 .62-.239 1.056a1.4 1.4 0 0 1-.663.615q-.42.183-1.002.182h-1.721v-3.763zm2.503 0v3.763h2.936v-.928h-1.714v-.603h1.371v-.903h-1.371v-1.329zm7.082 2.324h-1.169a.7.7 0 0 1-.203.441.62.62 0 0 1-.433.155.66.66 0 0 1-.534-.253q-.207-.255-.207-.823.001-.395.088-.597a.66.66 0 0 1 .245-.306.7.7 0 0 1 .394-.098c.19 0 .342.048.453.158q.17.154.202.463h1.19a2.1 2.1 0 0 0-.141-.59 1.5 1.5 0 0 0-.338-.476 1.6 1.6 0 0 0-.568-.371 2 2 0 0 0-.762-.128q-.43 0-.794.125-.367.13-.614.361a1.8 1.8 0 0 0-.39.538 2.2 2.2 0 0 0-.197.941q0 .437.142.817.142.376.393.635a1.7 1.7 0 0 0 .555.385q.386.164.857.163.41 0 .768-.121t.588-.356a1.64 1.64 0 0 0 .475-1.063m3.965.592q.261 0 .344-.024a.35.35 0 0 0 .175-.116.3.3 0 0 0 .067-.196.3.3 0 0 0-.111-.235q-.116-.093-.402-.092h-.466v.663zm.311-2.916q.439 0 .62.04.179.043.367.13c.122.064.216.124.278.19a.9.9 0 0 1 .219.327q.078.198.078.438a.9.9 0 0 1-.17.566.84.84 0 0 1-.46.309q.49.31.49.796a.85.85 0 0 1-.429.765q-.33.202-1.028.202h-1.867v-3.763zm-.199 1.576q.366 0 .484-.093a.32.32 0 0 0 .114-.258.32.32 0 0 0-.121-.267c-.077-.067-.238-.095-.477-.095h-.505v.713zm4.48-.311h-.787l.388 1.369zm-1.157-1.265.143.494h1.232l.144-.494h1.231l-1.35 3.763h-1.257l-1.351-3.763zm3.27 0v3.763h1.153l1.301-2.015v2.015h1.186v-3.763h-1.178l-1.273 1.965v-1.965zm4.465 0v3.763h1.199v-1.241l1.119 1.241h1.454l-1.379-1.417 1.522-2.346h-1.482l-.905 1.499-.329-.325v-1.174z" style="fill:#fff;fill-opacity:1;fill-rule:nonzero;stroke:none" transform="matrix(6.01697 0 0 -6.01697 -2184.727 2356.597)"/><path d="M363.272 391.479h7.953v-7.953h-7.953z" style="fill:#ed232a;fill-opacity:1;fill-rule:nonzero;stroke:none" transform="matrix(6.01697 0 0 -6.01697 -2184.727 2356.597)"/><path d="M364.664 390.087h5.17v-5.17h-5.17z" style="fill:#fff;fill-opacity:1;fill-rule:nonzero;stroke:none" transform="matrix(6.01697 0 0 -6.01697 -2184.727 2356.597)"/><path d="M366.851 391.479h.795v-7.953h-.795z" style="fill:#fff;fill-opacity:1;fill-rule:nonzero;stroke:none" transform="matrix(6.01697 0 0 -6.01697 -2184.727 2356.597)"/><path d="M363.272 387.899h7.953v-.795h-7.953z" style="fill:#fff;fill-opacity:1;fill-rule:nonzero;stroke:none" transform="matrix(6.01697 0 0 -6.01697 -2184.727 2356.597)"/><path d="M366.056 388.695h2.386v-2.386h-2.386z" style="fill:#004c8f;fill-opacity:1;fill-rule:nonzero;stroke:none" transform="matrix(6.01697 0 0 -6.01697 -2184.727 2356.597)"/></svg>