<svg xmlns="http://www.w3.org/2000/svg" width="526.634" height="180.25" viewBox="0 0 139.338 47.691"><path d="M101.022 283.471c-.267 0-.407-.11-.407-.336v-46.88c0-.268.14-.402.407-.402h22.794c17.725 0 18.253 19.241 8.802 23.038 3.79 1.623 7.06 5.002 7.138 10.917q.001 6.295-4.04 9.98-3.972 3.683-9.423 3.683zm8.057-39.51v11.133h14.787c8.843-.611 8.727-11.317-.856-11.133zm0 19.26v12.09h15.461c9.155-.306 8.15-12.294 0-12.09zm-93.062 20.25q-.404.001-.404-.336V243.98H.822q-.405 0-.404-.402v-7.322q0-.404.404-.403H39.31q.405 0 .405.403v7.322q0 .402-.405.402H24.59v39.155q0 .337-.403.336zm22.806-.334c-.125.257-.283.342-.474.342h-8.907a.343.343 0 0 1-.343-.342l18.733-46.978c.026-.097.164-.296.35-.296l9.032-.046c.19 0 .345.155.345.342z" style="fill:#c72e8f;fill-opacity:1;fill-rule:evenodd;stroke:none;stroke-width:.892279" transform="translate(-.418 -235.817)"/><path d="M66.76 283.167c.081.184.253.34.442.34h8.942c.188 0 .406-.156.343-.34l-18.836-47.008c-.092-.27-.275-.342-.463-.342h-8.916c-.19 0-.377.105-.423.293zm19.734-.082c.069.184.217.343.409.343h8.972c.19 0 .388-.153.345-.343L77.433 236.16c-.11-.201-.173-.309-.36-.309l-9.02-.033a.346.346 0 0 0-.348.342z" style="fill:#3052a1;fill-opacity:1;fill-rule:evenodd;stroke:none;stroke-width:.892279" transform="translate(-.418 -235.817)"/><path d="M63.53 247.162c.17.392 3.592 9.096 4.421 11.214.094.217.328.284.47-.015.135-.295 8.959-22.281 8.959-22.281-.045-.155-.214-.263-.39-.263h-9.04c-.128.005-.282.168-.345.342l-4.112 10.264s-.151.294.037.74" style="fill:#c72e8f;fill-opacity:1;fill-rule:evenodd;stroke:none;stroke-width:.892279" transform="translate(-.418 -235.817)"/></svg>