<svg xmlns="http://www.w3.org/2000/svg" width="270.129" height="46.137" viewBox="0 0 71.472 12.207"><path d="m66.72.328 4.54 8.367c.546.902-.021 1.827-1.058 1.665-.327-.051-2.433-.34-5.096-.696l.76-1.026 3.605.395c.299.036.438-.051.266-.374 0 0-3.395-6.84-3.429-6.918-.114-.213-.24-.144-.344.047l-3.378 6.134c-.124.237-.076.354.28.389l1.311.143-.755.932-1.711-.27c-.428-.055-.567-.325-.332-.766.177-.333 4.159-7.6 4.159-7.6.079-.138.147-.245.228-.389.237-.417.668-.529.953-.033" style="fill:#00adef;fill-opacity:1;fill-rule:nonzero;stroke:none;stroke-width:.35278"/><path d="m56.871 6.748 5.96-1.051-.508.924-4.114.69c-.21.048-.191.142-.058.23 0 0 3.588 2.48 3.935 2.708.28.189.43.266.664-.036 0 0 2.914-3.574 3.066-3.815.222-.297.321-.416-.035-.353l-2.023.338.519-.935 2.713-.494c.619-.104.865.326.561.782-.26.372-4.56 6.158-4.56 6.158-.278.407-.487.39-.813.104l-5.488-4.55c-.334-.277-.229-.625.181-.7" style="fill:#fabc09;fill-opacity:1;fill-rule:nonzero;stroke:none;stroke-width:.35278"/><path d="M5.25 8.463h-.29q-.165.777-.32 1.287-.156.5-.355.8a1.1 1.1 0 0 1-.465.4q-.258.11-.623.11-.978 0-1.454-.877a3.5 3.5 0 0 1-.322-1.032q-.1-.612-.1-1.575 0-1.921.466-2.809t1.455-.888q.332 0 .555.078.22.078.399.3a2.4 2.4 0 0 1 .332.622q.167.399.354 1.053a.3.3 0 0 1 .034.102 1 1 0 0 1 .044.131h.267V4.081q-.919-.457-1.841-.457a3.4 3.4 0 0 0-1.398.278 2.95 2.95 0 0 0-1.066.776A3.7 3.7 0 0 0 .233 5.91 5.2 5.2 0 0 0 0 7.52q0 .864.233 1.564.245.698.678 1.2a3.2 3.2 0 0 0 1.054.764 3.5 3.5 0 0 0 1.388.266q.953 0 1.897-.431zm3.88 2.707h1.443v-.254h-.522V7.364q0-.866-.467-1.299-.453-.443-1.341-.444a3.66 3.66 0 0 0-1.765.444v1.698h.287q.124-.39.222-.675.113-.3.224-.534.187-.411.376-.543.2-.134.59-.133.952 0 .952 1.187v.775q-.21.09-.376.156a5 5 0 0 1-.31.124q-.156.043-.334.087-.166.034-.4.079-.511.11-.775.21a1.8 1.8 0 0 0-.456.255 1.25 1.25 0 0 0-.378.488 1.5 1.5 0 0 0-.133.623q.001.653.41 1.054.421.399 1.1.398 1.22.001 1.652-1.12zm0-2.33q0 .965-.367 1.542-.365.568-.986.568Q7 10.95 7 9.816q0-.575.21-.854.21-.278.755-.422l.388-.11a4 4 0 0 0 .277-.089q.134-.045.244-.09a2 2 0 0 0 .255-.11Zm3.536-3.074h-1.441v.255h.52v4.894h-.52v.256h2.108v-.256h-.667V7.763q0-.798.323-1.288.322-.488.855-.488.353-.002.544.246.188.23.188.687v3.995h-.679v.256h2.11v-.256h-.51V6.854q0-.6-.356-.911-.355-.322-1.054-.322-.52.001-.855.244-.332.245-.566.798zm7.054 5.404h1.443v-.254h-.521V7.364q.001-.866-.464-1.299-.458-.443-1.347-.444a3.66 3.66 0 0 0-1.762.444v1.698h.287q.123-.39.223-.675.11-.3.223-.534.189-.411.375-.543.201-.134.59-.133.953 0 .953 1.187v.775a14 14 0 0 1-.376.156 5 5 0 0 1-.311.124q-.157.043-.332.087l-.4.079q-.51.11-.778.21a1.8 1.8 0 0 0-.454.255 1.2 1.2 0 0 0-.377.488 1.5 1.5 0 0 0-.134.623q0 .653.41 1.054.422.399 1.1.398 1.22.001 1.652-1.12zm0-2.33q.001.965-.365 1.542-.367.568-.988.568-.776 0-.776-1.134-.001-.575.211-.854.21-.278.754-.422l.388-.11q.156-.045.277-.089.134-.045.244-.09a2 2 0 0 0 .255-.11zm5.57-.987v-2.03a1.5 1.5 0 0 0-.345-.157 1.2 1.2 0 0 0-.344-.045q-.455 0-.765.244-.3.234-.577.8v-.9h-1.442v.256h.52v4.894h-.52v.256h2.242v-.256h-.733V8.33q0-.344.009-.598.024-.256.057-.456.034-.211.09-.377.054-.167.131-.333.112-.22.29-.377.177-.167.311-.167a.3.3 0 0 1 .11.021q.045.014.078.08.044.056.09.166c.034.073.078.174.12.299q.123.3.2.588a9 9 0 0 1 .178.678zm3.591 3.317h1.442v-.254h-.52V7.364q0-.866-.468-1.299-.455-.443-1.343-.444-.942.002-1.765.444v1.698h.29q.121-.39.222-.675.111-.3.222-.534.19-.411.377-.543.2-.134.588-.133.955 0 .955 1.187v.775q-.212.09-.377.156a5 5 0 0 1-.31.124q-.157.043-.334.087l-.4.079a6 6 0 0 0-.776.21 1.8 1.8 0 0 0-.457.255 1.25 1.25 0 0 0-.375.488 1.5 1.5 0 0 0-.135.623q0 .653.411 1.054.422.399 1.099.398 1.22.001 1.654-1.12zm0-2.33q0 .965-.368 1.542-.363.568-.986.568-.776 0-.776-1.134 0-.575.21-.854.21-.278.754-.422l.39-.11q.154-.045.277-.089a5 5 0 0 0 .499-.2zm4.641-5.071v.255h.666v6.892h-.666v.254h2.375q.634 0 1.144-.077.51-.09.866-.255.555-.255.877-.723a1.83 1.83 0 0 0 .321-1.042 1.64 1.64 0 0 0-.233-.854 1.67 1.67 0 0 0-.622-.622 2.4 2.4 0 0 0-.599-.233 5 5 0 0 0-.866-.112q.867-.132 1.343-.599a1.56 1.56 0 0 0 .476-1.164q.002-.4-.187-.744a1.7 1.7 0 0 0-.544-.588 1.9 1.9 0 0 0-.7-.3 5 5 0 0 0-1.042-.088Zm1.776 3.395v-3.14h.799q.699 0 1.009.377.322.367.323 1.165 0 .854-.4 1.232-.398.366-1.31.366zm0 3.752V7.42h.822q.488 0 .82.1.333.09.545.288.22.201.31.521.1.323.1.777 0 .978-.466 1.4-.455.409-1.542.41zm7.587.254h1.443v-.254h-.522V7.364q0-.866-.465-1.299-.455-.443-1.342-.444-.946.002-1.765.444v1.698h.287q.123-.39.222-.675.112-.3.223-.534.19-.411.376-.543.202-.134.588-.133.955 0 .955 1.187v.775q-.209.09-.377.156a5 5 0 0 1-.311.124q-.157.043-.331.087l-.401.079q-.51.11-.777.21a1.8 1.8 0 0 0-.454.255 1.25 1.25 0 0 0-.378.488 1.5 1.5 0 0 0-.133.623q0 .653.41 1.054.422.399 1.099.398 1.222.001 1.653-1.12zm0-2.33q.001.965-.365 1.542-.37.568-.988.568-.776 0-.777-1.134 0-.575.211-.854.211-.278.754-.422l.389-.11q.157-.045.278-.089.133-.045.243-.09a2 2 0 0 0 .255-.11zm3.536-3.074h-1.44v.255h.52v4.894h-.52v.256h2.105v-.256h-.665V7.763q0-.798.323-1.288.32-.488.854-.488.357-.002.543.246.19.23.189.687v3.995h-.676v.256h2.11v-.256h-.513V6.854q0-.6-.354-.911-.357-.322-1.054-.322-.524.001-.855.244-.333.245-.567.798zM51.8 3.769h-1.444v.255h.523v6.892h-.523v.254h2.11v-.254H51.8zm.044 4.55 1.944 2.85h1.386v-.253h-.421l-2.165-3.064 1.553-1.831h.499v-.255h-1.52v.255h.668z" style="fill:#00adef;fill-opacity:1;fill-rule:nonzero;stroke:none;stroke-width:.35278"/></svg>