<svg xmlns="http://www.w3.org/2000/svg" xml:space="preserve" width="146.901" height="30.52"><defs><linearGradient id="b" x1="0" x2="1" y1="0" y2="0" gradientTransform="rotate(-50.323 871.87 368.813)scale(21.015 -21.015)" gradientUnits="userSpaceOnUse" spreadMethod="pad"><stop offset="0" style="stop-opacity:1;stop-color:#ef3b23"/><stop offset="1" style="stop-opacity:1;stop-color:#8b131e"/></linearGradient><linearGradient id="d" x1="0" x2="1" y1="0" y2="0" gradientTransform="matrix(18.014 0 0 -18.014 31.518 794.39)" gradientUnits="userSpaceOnUse" spreadMethod="pad"><stop offset="0" style="stop-opacity:1;stop-color:#b7212f"/><stop offset="1" style="stop-opacity:1;stop-color:#ef3b23"/></linearGradient><clipPath id="a" clipPathUnits="userSpaceOnUse"><path d="m43.584 815.254 18.951-22.845-22.752-18.873-18.951 22.844"/></clipPath><clipPath id="c" clipPathUnits="userSpaceOnUse"><path d="M32.333 805.144h20.573v-21.509H32.333Z"/></clipPath></defs><g clip-path="url(#a)" transform="matrix(1.33333 0 0 -1.33333 -40.827 1074.483)"><path d="M41.837 805.137c-5.788-.173-10.44-4.908-10.44-10.737 0-5.941 4.815-10.755 10.749-10.755 1.967 0 7.308.824 9.824 6.377a9.3 9.3 0 0 0-3.493-.682c-5.125 0-9.266 3.321-9.273 8.444-.005 2.633.791 4.751 2.01 6.313.247.318.654.763.932 1.047z" style="fill:url(#b);stroke:none"/></g><g clip-path="url(#c)" transform="matrix(1.33333 0 0 -1.33333 -40.827 1074.483)"><path d="M43.111 804.097c1.612-2.152 1.986-4.209 1.986-6.322 0-5.123-4.152-8.445-9.273-8.445a9.3 9.3 0 0 0-3.491.682c2.564-5.712 7.852-6.377 9.819-6.377 5.938 0 10.754 4.815 10.754 10.755 0 5.831-4.653 10.566-10.443 10.739l-.317.015c.279-.284.724-.722.965-1.047" style="fill:url(#d);stroke:none"/></g><path d="M0 0c-1.128-1.559-1.845-3.593-1.835-6.036.01-2.682 1.155-4.919 2.956-6.397 1.79 1.478 2.975 3.672 2.94 6.349C4.038-4.08 3.85-2.206 2.122.175c-.275.38-.756.872-1.007 1.109C1.086 1.284.44.61 0 0" style="fill:#fff;fill-opacity:1;fill-rule:nonzero;stroke:none" transform="matrix(1.33333 0 0 -1.33333 13.888 2.671)"/><path d="M0 0v-3.098a15 15 0 0 1 1.306-.058q.571.001 1.063.074.493.073.851.256.361.185.572.491c.144.207.212.471.212.793q0 .866-.63 1.204T1.629 0Zm0 1.452h1.306q1.058 0 1.657.301.603.304.603 1.08 0 .731-.624 1.043c-.418.205-.956.306-1.622.306q-.427 0-.754-.015A7 7 0 0 1 0 4.125Zm1.248-6.15c-.538 0-1.084.018-1.63.051a7.7 7.7 0 0 0-1.438.213v9.878q.32.06.688.112.368.049.75.08a20 20 0 0 0 1.466.058q.926 0 1.719-.138a4.4 4.4 0 0 0 1.372-.464 2.37 2.37 0 0 0 .901-.851q.325-.527.323-1.305 0-.72-.342-1.235A2.5 2.5 0 0 0 4.094.88Q5.02.573 5.458-.03 5.9-.631 5.9-1.556q0-1.572-1.144-2.357-1.147-.785-3.508-.785" style="fill:#0a3152;fill-opacity:1;fill-rule:nonzero;stroke:none" transform="matrix(1.33333 0 0 -1.33333 37.869 16.348)"/><path d="M0 0q.824 0 1.248.087v1.968a3 3 0 0 1-.426.088q-.278.044-.615.044-.294 0-.593-.044a1.8 1.8 0 0 1-.546-.163.97.97 0 0 1-.388-.328.94.94 0 0 1-.145-.537q-.002-.63.395-.873Q-.672.002 0 0m-.145 6.62q.879 0 1.482-.221.6-.219.961-.616c.361-.397.41-.585.513-.962q.155-.565.155-1.24v-4.653a24 24 0 0 0-1.24-.214 13 13 0 0 0-1.871-.123q-.69-.001-1.263.133a2.6 2.6 0 0 0-.975.424c-.271.197-.48.449-.633.764q-.227.47-.226 1.161-.001.659.257 1.114.255.455.698.741.439.285 1.018.412.581.124 1.211.125a5.6 5.6 0 0 0 1.306-.162v.293q-.001.308-.071.588a1.3 1.3 0 0 1-.257.491 1.2 1.2 0 0 1-.485.331 2.2 2.2 0 0 1-.759.117q-.616-.001-1.127-.089a5 5 0 0 1-.836-.205l-.222 1.44q.337.115.981.234.65.116 1.383.117" style="fill:#0a3152;fill-opacity:1;fill-rule:nonzero;stroke:none" transform="matrix(1.33333 0 0 -1.33333 50.51 20.79)"/><path d="M0 0a12 12 0 0 0 3.154.41q.938.001 1.57-.256a2.5 2.5 0 0 0 1.007-.718q.376-.465.526-1.118.157-.653.157-1.431v-4.315H4.637v4.037q.001.617-.082 1.049a1.9 1.9 0 0 1-.264.705 1.05 1.05 0 0 1-.498.396 2.1 2.1 0 0 1-.772.126q-.338 0-.703-.045-.369-.044-.543-.073v-6.195H0" style="fill:#0a3152;fill-opacity:1;fill-rule:nonzero;stroke:none" transform="matrix(1.33333 0 0 -1.33333 56.09 12.55)"/><path d="M0 0q0-1.174.557-1.841.558-.669 1.541-.669.426 0 .727.037.302.037.492.082v4.404a3 3 0 0 1-.625.299 2.5 2.5 0 0 1-.829.141Q.896 2.452.446 1.791 0 1.131 0 0m5.093-3.624q-.53-.163-1.327-.294a10 10 0 0 0-1.682-.132q-.91 0-1.629.278a3.4 3.4 0 0 0-1.226.8 3.5 3.5 0 0 0-.777 1.262 4.8 4.8 0 0 0-.274 1.666q0 .91.229 1.652.227.74.667 1.269t1.073.816q.63.285 1.454.285.556-.001.98-.131.43-.133.736-.294v3.684l1.776.293" style="fill:#0a3152;fill-opacity:1;fill-rule:nonzero;stroke:none" transform="matrix(1.33333 0 0 -1.33333 68.125 17.308)"/><path d="M0 0v11.097l1.777.294V7.588q.294.105.683.177c.26.048.514.074.77.074q.925 0 1.535-.256.61-.258.973-.719.37-.465.524-1.109.154-.646.155-1.44V0H4.641v4.037c0 .41-.03.762-.081 1.049q-.081.434-.267.705a1.06 1.06 0 0 1-.491.396 2 2 0 0 1-.762.126q-.354 0-.72-.075a5 5 0 0 1-.543-.131V0" style="fill:#0a3152;fill-opacity:1;fill-rule:nonzero;stroke:none" transform="matrix(1.33333 0 0 -1.33333 76.656 22.454)"/><path d="M0 0q.82 0 1.246.087v1.968Q1.1 2.1.818 2.143a4 4 0 0 1-.613.044 4 4 0 0 1-.595-.044 1.8 1.8 0 0 1-.543-.163 1 1 0 0 1-.39-.328.92.92 0 0 1-.145-.537q0-.63.394-.873C-.807.083-.452 0 0 0m-.149 6.62q.882 0 1.481-.221a2.35 2.35 0 0 0 .964-.616c.24-.264.409-.585.515-.962q.153-.565.152-1.24v-4.653a24 24 0 0 0-1.239-.214 13 13 0 0 0-1.873-.123q-.69-.001-1.262.133-.571.13-.977.424c-.268.197-.48.449-.629.764q-.23.47-.229 1.161 0 .659.258 1.114.256.455.697.741.441.285 1.022.412.579.124 1.209.125a5.7 5.7 0 0 0 1.306-.162v.293q0 .308-.073.588a1.19 1.19 0 0 1-.741.822 2.2 2.2 0 0 1-.756.117q-.618-.001-1.131-.089a5 5 0 0 1-.836-.205l-.22 1.44q.336.115.983.234.647.116 1.379.117" style="fill:#0a3152;fill-opacity:1;fill-rule:nonzero;stroke:none" transform="matrix(1.33333 0 0 -1.33333 90.378 20.79)"/><path d="M0 0q.515.146 1.337.279.822.13 1.82.131.94.001 1.57-.256.63-.258 1.008-.718a2.8 2.8 0 0 0 .528-1.118 6.3 6.3 0 0 0 .152-1.431v-4.315H4.639v4.037q0 .617-.08 1.049a1.9 1.9 0 0 1-.264.705 1.06 1.06 0 0 1-.5.396 2.1 2.1 0 0 1-.768.126c-.226 0-.464-.015-.706-.045q-.367-.044-.544-.073v-6.195H0" style="fill:#0a3152;fill-opacity:1;fill-rule:nonzero;stroke:none" transform="matrix(1.33333 0 0 -1.33333 95.952 12.55)"/><path d="M0 0v-4.021q.219-.033.66-.067a10 10 0 0 1 2.21.051q.637.09 1.122.325.487.235.777.649.293.412.294 1.06 0 .588-.204.98a1.56 1.56 0 0 1-.587.618 2.6 2.6 0 0 1-.932.316A8 8 0 0 1 2.114 0Zm0 .851h1.938q.541 0 1.026.08t.845.293q.361.211.566.57t.205.914q0 .496-.222.842a1.7 1.7 0 0 1-.623.563q-.402.218-.962.312a7.4 7.4 0 0 1-1.232.097q-.543 0-.918-.031A7 7 0 0 1 0 4.419Zm1.438-5.827a9 9 0 0 0-.58.021q-.331.024-.673.06-.35.037-.655.088c-.203.035-.382.07-.527.111v9.79q.263.073.587.124.32.05.669.089.343.034.673.051.329.014.609.014.821 0 1.564-.131a4.3 4.3 0 0 0 1.3-.439q.555-.309.889-.815.326-.506.326-1.253 0-.82-.416-1.4a2.17 2.17 0 0 0-1.123-.8q.44-.1.808-.293.364-.189.645-.492.28-.3.433-.734.153-.433.152-1.037 0-1.439-1.142-2.198-1.146-.756-3.539-.756" style="fill:#0a3152;fill-opacity:1;fill-rule:nonzero;stroke:none" transform="matrix(1.33333 0 0 -1.33333 111.004 15.937)"/><path d="M0 0q.561 0 .977.036c.279.023.516.058.712.096v2.671a3 3 0 0 1-.513.154q-.354.08-.969.08-.354.002-.735-.051a2.1 2.1 0 0 1-.704-.219 1.46 1.46 0 0 1-.527-.462q-.208-.295-.208-.779 0-.427.141-.718.14-.295.396-.473.256-.175.617-.253Q-.454 0 0 0m-.088 7.074q.749 0 1.271-.211.52-.215.844-.588a2.3 2.3 0 0 0 .468-.889c.1-.342.146-.713.146-1.115V-.514a4 4 0 0 0-.423-.095 20 20 0 0 0-.647-.109A11.5 11.5 0 0 0-.161-.852q-.602 0-1.109.134a2.4 2.4 0 0 0-.879.416 2 2 0 0 0-.587.734q-.213.449-.214 1.094 0 .616.237 1.057.231.442.66.727.426.288 1.012.419a6 6 0 0 0 1.71.11 7 7 0 0 0 .808-.133q.153-.036.212-.064v.468q0 .396-.059.77a1.65 1.65 0 0 1-.258.676q-.197.3-.555.485-.363.181-.947.181-.838.001-1.25-.115a8 8 0 0 1-.6-.193l-.134.838q.252.117.771.22.523.101 1.255.102" style="fill:#0a3152;fill-opacity:1;fill-rule:nonzero;stroke:none" transform="matrix(1.33333 0 0 -1.33333 123.84 21.534)"/><path d="M0 0q.428.118 1.146.264t1.762.147q.865 0 1.444-.25.58-.248.926-.711c.228-.309.394-.677.489-1.108q.15-.647.15-1.424v-4.242h-.955v3.934q0 .808-.11 1.364-.111.558-.368.911-.256.35-.675.508c-.279.1-.629.154-1.049.154a8 8 0 0 1-1.166-.074Q1.103-.6.954-.661v-6.663H0" style="fill:#0a3152;fill-opacity:1;fill-rule:nonzero;stroke:none" transform="matrix(1.33333 0 0 -1.33333 129.34 12.689)"/><path d="M0 0a12 12 0 0 0 1.05-.843q.528-.48 1.04-1.036c.344-.375.665-.754.969-1.146q.454-.59.774-1.107H2.686a9.4 9.4 0 0 1-.8 1.135q-.454.557-.955 1.049a13 13 0 0 1-.999.895 5.6 5.6 0 0 1-.886.609v-3.688h-.951V7.083l.951.176V.189c.206.175.458.414.764.716q.46.453.929.91c.32.305.616.602.898.888q.421.428.706.753h1.166a34 34 0 0 0-.772-.782A691 691 0 0 0 .895.862Q.437.408 0 0" style="fill:#0a3152;fill-opacity:1;fill-rule:nonzero;stroke:none" transform="matrix(1.33333 0 0 -1.33333 141.746 16.945)"/></svg>